<svg width="92" height="20" fill="none" xmlns="http://www.w3.org/2000/svg"><path d="M.798 7.398l3.157 1.834 6.394-3.721L.945.04A.297.297 0 00.5.3v6.58c0 .214.111.41.298.518zm0 5.12a.593.593 0 00-.298.518v6.58a.296.296 0 00.445.259l10.489-6.099a.312.312 0 00.155-.259V6.245L.798 12.518zM48.514 7.66a3.129 3.129 0 00-1.272-.91 5.304 5.304 0 00-1.987-.33c-.77-.004-1.543.054-2.304.17a14.63 14.63 0 00-1.69.357v9.467h2.246V8.522c.151-.027.378-.058.69-.094a8.43 8.43 0 01.893-.058 2.67 2.67 0 01.974.156c.258.099.476.277.631.505.17.272.285.58.334.896.075.442.106.888.102 1.339V16.4h2.25v-5.492a8.09 8.09 0 00-.196-1.82 3.576 3.576 0 00-.671-1.428zM15.076 5.532h3.944V16.41h2.348V5.532h3.944V3.498H15.076v2.034zm66.381.995c-.2-.03-.4-.058-.596-.075a5.79 5.79 0 00-.516-.027 10.338 10.338 0 00-2.165.214c-.551.116-1.094.268-1.627.46v9.32h2.245v-7.84c.191-.057.387-.097.587-.129a4.29 4.29 0 01.791-.075c.383-.005.765.03 1.143.102.263.05.52.116.774.196l.387-1.914a3.533 3.533 0 00-.445-.12 7.794 7.794 0 00-.578-.112zm-51.13 0c-.2-.03-.4-.058-.596-.075a5.786 5.786 0 00-.515-.027c-.73-.005-1.454.067-2.166.214-.551.116-1.094.268-1.627.46v9.32h2.245v-7.84c.192-.057.387-.097.587-.129.262-.049.525-.075.792-.075.382-.005.764.03 1.142.102.263.05.52.116.774.196l.387-1.914a3.536 3.536 0 00-.445-.12 8.262 8.262 0 00-.578-.112zm8.431.947a2.975 2.975 0 00-1.2-.776 5.315 5.315 0 00-1.828-.273 9.329 9.329 0 00-1.69.148 9.048 9.048 0 00-1.21.29l-.052.017.289 1.901.075-.027a5.739 5.739 0 011.01-.245 7.732 7.732 0 011.369-.107c.307-.01.61.035.898.138.431.156.752.518.863.964.058.227.089.468.089.705v.276a7.482 7.482 0 00-.77-.133 6.195 6.195 0 00-.76-.045h-.022c-.494 0-.987.053-1.467.152a3.77 3.77 0 00-1.268.508 2.67 2.67 0 00-.871.937 2.796 2.796 0 00-.32 1.4c-.018.496.075.996.275 1.455.178.38.454.714.792.964.369.259.774.437 1.214.535.511.112 1.031.17 1.552.166h.115c.725 0 1.459-.054 2.179-.157a21.67 21.67 0 001.516-.263l.053-.013v-5.769a5.82 5.82 0 00-.19-1.54 2.916 2.916 0 00-.641-1.208zm-1.392 4.671v2.311c-.48.076-.969.112-1.454.098h-.066c-.503-.009-.903-.107-1.2-.285-.299-.183-.455-.527-.455-1.018a1.064 1.064 0 01.17-.62c.115-.165.27-.299.449-.383a2.12 2.12 0 01.644-.192 4.969 4.969 0 011.912.089zm36.691-4.671a2.975 2.975 0 00-1.2-.776 5.315 5.315 0 00-1.828-.273 9.407 9.407 0 00-1.694.143 8.73 8.73 0 00-1.205.29l-.054.018.285 1.9.075-.026a5.645 5.645 0 011.01-.246 7.929 7.929 0 011.37-.107c.306-.009.608.036.897.139.432.156.752.517.863.963.058.228.089.469.089.705v.277a7.482 7.482 0 00-.77-.134 6.318 6.318 0 00-.76-.045h-.009c-.498 0-1 .054-1.485.157a3.764 3.764 0 00-1.267.508 2.67 2.67 0 00-.871.937 2.796 2.796 0 00-.32 1.4c-.014.496.08 1 .284 1.455.178.38.454.714.791.964.37.259.779.437 1.214.535a6.98 6.98 0 001.552.166h.116c.725 0 1.458-.054 2.178-.157.69-.102 1.188-.187 1.517-.263l.053-.013v-5.769a5.793 5.793 0 00-.191-1.54 3.021 3.021 0 00-.64-1.208zm-1.397 4.671v2.311c-.48.076-.969.112-1.453.098h-.067c-.503-.009-.903-.107-1.2-.285-.299-.183-.454-.527-.454-1.018a1.064 1.064 0 01.169-.62c.115-.165.27-.299.449-.383.204-.099.418-.161.645-.192a4.92 4.92 0 011.454 0c.15.018.306.049.457.089zm-15.027.37a2.217 2.217 0 00-.525-.821 3.49 3.49 0 00-.898-.634 13.109 13.109 0 00-1.312-.57 7.641 7.641 0 01-.778-.313 2.751 2.751 0 01-.507-.299.874.874 0 01-.253-.303.96.96 0 01-.076-.388.674.674 0 01.374-.63c.32-.156.68-.231 1.045-.218a5.29 5.29 0 012.17.428l.07.031.423-1.896-.053-.018a7.72 7.72 0 00-1.134-.298 7.865 7.865 0 00-1.583-.152c-1.094 0-1.97.259-2.61.763-.645.508-.97 1.209-.97 2.088-.013.397.058.785.21 1.15a2.3 2.3 0 00.578.804c.258.232.551.424.862.575.352.174.72.326 1.085.46.636.236 1.094.46 1.37.66a.842.842 0 01.386.719v.004a.671.671 0 01-.355.647c-.25.134-.663.2-1.219.2h-.035c-.498 0-.996-.062-1.476-.187a10.7 10.7 0 01-1.143-.37l-.071-.031-.4 1.945.053.018c.347.13.703.245 1.063.334.587.139 1.191.21 1.796.21.067 0 .133 0 .2-.004h.005c1.231 0 2.192-.237 2.863-.705.676-.473 1.018-1.178 1.018-2.093 0-.379-.053-.75-.173-1.106zm8.11 1.512a5.101 5.101 0 01-.92.268 5.444 5.444 0 01-1.08.107c-.965 0-1.659-.268-2.059-.79-.405-.53-.614-1.263-.614-2.177 0-.95.218-1.696.65-2.213.426-.513 1.058-.776 1.88-.776a4.717 4.717 0 011.836.374l.072.032.498-1.91-.053-.022a6.623 6.623 0 00-2.53-.49c-.72 0-1.383.128-1.961.383A4.343 4.343 0 0059.98 7.87a4.62 4.62 0 00-.934 1.593 5.844 5.844 0 00-.324 1.972c0 .71.098 1.378.289 1.985a4.32 4.32 0 00.88 1.588 3.98 3.98 0 001.494 1.04c.596.25 1.307.375 2.112.375.516 0 1.023-.05 1.507-.143.485-.098.859-.205 1.099-.33l.044-.022L65.824 14l-.08.027zm25.753 1.731v-.67l.005-13.04-2.299.384v4.475a5.969 5.969 0 00-.81-.317 4.035 4.035 0 00-1.218-.165 4.247 4.247 0 00-1.8.357 3.687 3.687 0 00-1.33 1.021c-.382.469-.658 1-.827 1.58a6.943 6.943 0 00-.28 2.047 6.06 6.06 0 00.334 2.07c.209.59.533 1.12.964 1.575a4.23 4.23 0 001.517 1 5.44 5.44 0 001.92.348h.094a13.204 13.204 0 003.681-.522l.05-.014v-.129zm-2.298-1.499a5.43 5.43 0 01-.543.085 7.164 7.164 0 01-.88.044c-.774 0-1.392-.267-1.828-.794-.431-.517-.653-1.244-.662-2.155h.004v-.067c0-.905.178-1.632.53-2.159.35-.517.91-.78 1.676-.78h.017c.334 0 .659.057.974.169.254.085.494.2.716.343v5.314h-.004z" fill="#fff"/></svg>