<svg width="280" height="179" fill="none" xmlns="http://www.w3.org/2000/svg"><g clip-path="url(#clip0)"><rect width="280" height="178.256" rx="8.14" fill="url(#paint0_linear)"/><rect x="16.279" y="80.256" width="40.233" height="17.093" rx="8.547" fill="#fff" fill-opacity=".2"/><path fill="#fff" d="M60.512 87.802h7v2h-7z"/><rect x="71.512" y="80.256" width="40.233" height="17.093" rx="8.547" fill="#fff" fill-opacity=".2"/><path fill="#fff" d="M115.744 87.802h7v2h-7z"/><rect x="126.744" y="80.256" width="40.233" height="17.093" rx="8.547" fill="#fff" fill-opacity=".2"/><path fill="#fff" d="M170.977 87.802h7v2h-7z"/><rect x="181.977" y="80.256" width="40.233" height="17.093" rx="8.547" fill="#fff" fill-opacity=".2"/><path d="M237.697 139.008h11.351v20.314h-11.351v-20.314z" fill="#F16022"/><path d="M238.37 149.165a12.81 12.81 0 015.002-10.157 13.158 13.158 0 00-8.08-2.752c-7.215 0-13.083 5.79-13.083 12.909 0 7.119 5.868 12.909 13.083 12.909 3.078 0 5.868-1.044 8.08-2.752a12.81 12.81 0 01-5.002-10.157z" fill="#E91D25"/><path d="M264.535 149.165c0 7.119-5.867 12.909-13.082 12.909a13.158 13.158 0 01-8.08-2.752c3.078-2.373 5.002-5.98 5.002-10.157a12.81 12.81 0 00-5.002-10.157 13.158 13.158 0 018.08-2.752c7.215 0 13.082 5.79 13.082 12.909z" fill="#F69E1E"/><path d="M22.606 154.113h-1.453a2.242 2.242 0 01-.133.64 1.26 1.26 0 01-.284.45 1.086 1.086 0 01-.434.273 1.87 1.87 0 01-.584.084c-.174 0-.33-.023-.468-.067a1.268 1.268 0 01-.367-.195 1.339 1.339 0 01-.267-.3 2.08 2.08 0 01-.19-.395 3.168 3.168 0 01-.155-.657 6.06 6.06 0 01-.05-.812v-1.113c0-.23.011-.449.033-.657a3.25 3.25 0 01.112-.573c.06-.219.14-.412.244-.579.104-.17.23-.304.379-.4.096-.071.206-.124.328-.162.126-.037.262-.055.406-.055.242 0 .447.033.618.1.174.067.319.165.434.295.115.13.202.289.262.478.063.186.103.399.122.64h1.452a3.845 3.845 0 00-.273-1.124 2.485 2.485 0 00-.573-.845 2.458 2.458 0 00-.873-.54 3.36 3.36 0 00-1.169-.189c-.307 0-.593.04-.857.122a2.52 2.52 0 00-.717.339 2.928 2.928 0 00-1.085 1.414 4.065 4.065 0 00-.234.829 5.256 5.256 0 00-.078.918v1.102c0 .337.028.66.084.968.055.308.137.591.244.851a3.4 3.4 0 00.401.723c.163.216.349.401.556.557.223.163.475.289.757.378.282.089.59.134.924.134.415 0 .794-.061 1.135-.184.341-.126.636-.304.885-.534.248-.23.447-.506.595-.829.148-.323.24-.685.273-1.085zm5.258.74l.506 1.775h1.514l-2.593-8.102h-1.302l-2.649 8.102h1.52l.511-1.775h2.493zm-2.131-1.241l.901-3.094.88 3.094h-1.781zm7.75-.067l1.536 3.083h1.553v-.072l-1.736-3.367c.222-.1.422-.219.6-.356a2.094 2.094 0 00.768-1.096c.07-.23.106-.486.106-.768 0-.404-.07-.758-.211-1.063a1.974 1.974 0 00-.59-.756 2.703 2.703 0 00-.924-.462 4.073 4.073 0 00-1.185-.162h-2.648v8.102h1.452v-3.083h1.28zm-1.28-1.185v-2.654H33.4c.223 0 .421.028.595.084.175.055.325.135.451.239.134.111.234.254.3.428.071.171.106.367.106.59 0 .193-.03.367-.089.523a1.06 1.06 0 01-.245.39c-.126.129-.283.23-.473.3-.185.067-.397.1-.634.1h-1.207zm5.337 4.268h2.114c.367 0 .71-.045 1.03-.134.322-.089.615-.217.879-.384.23-.144.441-.322.634-.534.193-.215.36-.45.5-.706.145-.275.257-.577.334-.907a4.62 4.62 0 00.117-1.052v-.657c0-.385-.042-.749-.128-1.09a3.709 3.709 0 00-.356-.935 3.346 3.346 0 00-.512-.69 2.799 2.799 0 00-.673-.523 3.499 3.499 0 00-.868-.362 3.9 3.9 0 00-1.018-.128H37.54v8.102zm1.463-6.922h.59c.204 0 .391.024.562.072.174.045.332.108.473.19.189.107.352.248.49.422.14.171.254.366.339.585.07.181.122.38.156.595.037.212.057.436.06.673v.668c-.003.249-.023.48-.06.696a2.972 2.972 0 01-.15.589 2.224 2.224 0 01-.307.557 1.672 1.672 0 01-.411.395c-.149.1-.314.178-.495.234a2.2 2.2 0 01-.596.077h-.65v-5.753zm17.566 6.922v-8.102h-1.424v3.356h-2.51v-3.356h-1.43v8.102h1.43v-3.561h2.51v3.561h1.424zm7.128-3.483v-1.124a5.482 5.482 0 00-.1-1.007 4.177 4.177 0 00-.279-.891 3.464 3.464 0 00-.417-.684 2.59 2.59 0 00-1.302-.896 2.922 2.922 0 00-.88-.128c-.314 0-.604.043-.867.128-.263.082-.5.199-.712.351a2.696 2.696 0 00-.568.556c-.16.212-.295.447-.406.707a4.262 4.262 0 00-.261.879 6.033 6.033 0 00-.09.985v1.124c.004.326.032.64.084.94.052.297.13.575.234.835.11.278.25.53.417.756.167.223.356.414.568.574.218.155.461.276.728.361.267.085.56.128.88.128.304 0 .586-.039.845-.117.26-.078.497-.187.712-.328a2.77 2.77 0 00.612-.568c.179-.226.327-.474.446-.745a4.15 4.15 0 00.261-.863c.06-.311.091-.636.095-.973zm-1.47-1.135v1.135c0 .2-.01.397-.033.59-.018.189-.05.365-.094.528a2.36 2.36 0 01-.212.551 1.43 1.43 0 01-.317.412 1.1 1.1 0 01-.373.228c-.14.052-.298.078-.473.078-.181 0-.343-.028-.484-.084a1.115 1.115 0 01-.361-.233 1.4 1.4 0 01-.295-.412 2.606 2.606 0 01-.19-.551 3.833 3.833 0 01-.088-.529 7.409 7.409 0 01-.023-.578v-1.135c0-.204.01-.403.028-.596a3.98 3.98 0 01.09-.545c.047-.208.114-.393.2-.556.089-.164.198-.301.328-.412.1-.085.215-.15.345-.195.13-.048.278-.072.445-.072.17 0 .323.026.456.078.137.048.26.115.367.2.13.111.24.248.329.412.092.163.167.345.222.545.048.171.082.352.1.545.023.193.034.392.034.596zm4.307 3.438v-6.922h-1.457v8.102h5.286v-1.18h-3.829zm5.225 1.18h2.115c.367 0 .71-.045 1.029-.134.323-.089.616-.217.879-.384a3.03 3.03 0 00.634-.534c.193-.215.36-.45.501-.706.145-.275.256-.577.334-.907a4.62 4.62 0 00.117-1.052v-.657c0-.385-.043-.749-.128-1.09a3.709 3.709 0 00-.356-.935 3.342 3.342 0 00-.512-.69 2.8 2.8 0 00-.673-.523 3.5 3.5 0 00-.868-.362 3.9 3.9 0 00-1.019-.128H71.76v8.102zm1.463-6.922h.59c.204 0 .392.024.562.072.175.045.332.108.473.19.19.107.353.248.49.422.14.171.254.366.34.585.07.181.122.38.155.595.037.212.058.436.061.673v.668c-.003.249-.024.48-.06.696a2.978 2.978 0 01-.151.589 2.224 2.224 0 01-.306.557 1.674 1.674 0 01-.412.395 1.86 1.86 0 01-.495.234c-.182.051-.38.077-.595.077h-.651v-5.753zm10.305 3.333v-1.163H80.19v-2.159h3.878v-1.191h-5.336v8.102h5.358v-1.18h-3.9v-2.409h3.338zm4.708.506l1.535 3.083h1.553v-.072l-1.736-3.367c.222-.1.422-.219.6-.356.182-.137.34-.298.474-.484a2.13 2.13 0 00.294-.612c.07-.23.106-.486.106-.768 0-.404-.07-.758-.211-1.063a1.974 1.974 0 00-.59-.756 2.703 2.703 0 00-.924-.462 4.073 4.073 0 00-1.185-.162h-2.648v8.102h1.452v-3.083h1.28zm-1.28-1.185v-2.654h1.196c.223 0 .421.028.596.084.174.055.324.135.45.239.134.111.234.254.3.428.071.171.106.367.106.59 0 .193-.03.367-.089.523a1.06 1.06 0 01-.245.39c-.126.129-.283.23-.473.3a1.86 1.86 0 01-.634.1h-1.207zM217.189 21.485c-.243-1.519-1.432-2.407-2.934-2.407-1.839 0-3.195 1.377-3.195 3.65 0 2.271 1.35 3.648 3.195 3.648 1.561 0 2.702-.978 2.934-2.383l-1.082-.003c-.184.909-.947 1.408-1.845 1.408-1.218 0-2.137-.933-2.137-2.67 0-1.725.916-2.672 2.14-2.672.906 0 1.665.51 1.842 1.43h1.082zm1.904-2.31h-1.159l2.556 7.104h1.239l2.556-7.104h-1.158l-1.978 5.786h-.079l-1.977-5.785zm11.765 2.31c-.243-1.519-1.433-2.407-2.934-2.407-1.839 0-3.195 1.377-3.195 3.65 0 2.271 1.349 3.648 3.195 3.648 1.56 0 2.702-.978 2.934-2.383l-1.082-.003c-.184.909-.947 1.408-1.846 1.408-1.217 0-2.136-.933-2.136-2.67 0-1.725.916-2.672 2.14-2.672.905 0 1.665.51 1.842 1.43h1.082zm1.185 4.794h4.676v-.92h-3.198v-.051l1.412-1.478c1.3-1.314 1.671-1.942 1.671-2.736 0-1.142-.929-2.016-2.268-2.016-1.328 0-2.3.86-2.3 2.158h1.024c-.004-.763.489-1.263 1.255-1.263.722 0 1.27.444 1.27 1.152 0 .628-.375 1.078-1.138 1.887l-2.404 2.49v.777zm6.688-4.44a.695.695 0 00.693-.693.697.697 0 00-.693-.69.695.695 0 00-.694.69c0 .385.312.693.694.693zm0 3.559a.695.695 0 00.693-.694.697.697 0 00-.693-.69.695.695 0 00-.694.69c0 .385.312.694.694.694z" fill="#fff"/><rect x="243.372" y="16.279" width="21.163" height="13.023" rx="6.512" fill="#fff" fill-opacity=".2"/><path d="M93.693 115.256l-1.555-5.682h1.172l.709 2.874.415 1.79h.057l.423-1.79.716-2.874h1.115l-1.554 5.682h-1.498zm6.842 0l-.399-1.441h-1.684l-.391 1.441h-1.075l1.596-5.682h1.481l1.604 5.682h-1.132zm-1.204-4.632h-.066l-.626 2.32h1.318l-.626-2.32zm3.244 4.632v-5.682h1.066v4.803h2.515v.879h-3.581zm4.702 0v-.798h1.277v-4.086h-1.277v-.798h3.613v.798h-1.277v4.086h1.277v.798h-3.613zm4.839-5.682h1.767c.738 0 1.286.245 1.644.733.363.488.545 1.191.545 2.108 0 .923-.182 1.628-.545 2.116-.358.483-.906.725-1.644.725h-1.767v-5.682zm1.693 4.827c.391 0 .679-.127.863-.382.19-.255.285-.627.285-1.116v-.984c0-.483-.095-.852-.285-1.107-.184-.255-.472-.383-.863-.383h-.643v3.972h.643zm-18.838 5.052v4.803h-1.058v-4.803h-1.71v-.879h4.477v.879h-1.71zm5.182 2.361h-1.66v2.442h-1.067v-5.682h1.066v2.361h1.661v-2.361h1.066v5.682h-1.066v-2.442zm3.326 2.442h-1.067v-5.682h2.157c.554 0 .977.158 1.27.472.293.315.44.744.44 1.287 0 .417-.098.77-.293 1.058-.19.282-.464.461-.823.537l1.213 2.328h-1.172l-1.082-2.206h-.643v2.206zm.87-3.036c.288 0 .494-.057.619-.171.125-.12.187-.307.187-.562v-.309c0-.255-.062-.44-.187-.554-.125-.119-.331-.179-.619-.179h-.87v1.775h.87zm3.864-2.646v3.541c0 .212.005.402.016.57.016.168.051.312.106.431a.648.648 0 00.26.269c.119.065.282.098.488.098.207 0 .367-.033.481-.098a.592.592 0 00.26-.269c.06-.119.095-.263.106-.431.016-.168.024-.358.024-.57v-3.541h1.067v3.378c0 .402-.025.752-.074 1.05a1.775 1.775 0 01-.284.749c-.142.201-.34.353-.595.456-.249.098-.578.146-.985.146-.406 0-.737-.048-.993-.146a1.31 1.31 0 01-.586-.456 1.775 1.775 0 01-.284-.749 6.55 6.55 0 01-.074-1.05v-3.378h1.067z" fill="#fff"/><rect x="122.93" y="110.291" width="34.186" height="13.837" rx="6.919" fill="#fff" fill-opacity=".2"/><path d="M228.935 68.062v.123c0 .457.057.883.17 1.278.117.39.283.73.498 1.02.211.284.471.509.78.673.308.16.654.24 1.037.24.363 0 .681-.068.955-.205.277-.137.515-.328.715-.574l.076.662h1.371v-9h-1.518v3.24a2.122 2.122 0 00-.685-.515 2.105 2.105 0 00-.903-.182c-.39 0-.74.078-1.048.234a2.24 2.24 0 00-.786.663 3.12 3.12 0 00-.492 1.025 4.82 4.82 0 00-.17 1.318zm1.512.123v-.123c0-.277.025-.537.076-.779s.131-.455.24-.639c.11-.18.25-.32.422-.422.176-.105.387-.158.633-.158.293 0 .537.065.733.194.195.129.351.304.468.527v2.642a1.386 1.386 0 01-.468.534c-.196.129-.444.193-.745.193-.246 0-.455-.05-.626-.152a1.17 1.17 0 01-.417-.422 1.923 1.923 0 01-.246-.627 4.047 4.047 0 01-.07-.768zm8.889 3.211c.613 0 1.14-.119 1.582-.357.445-.242.771-.514.978-.815l-.779-.802a1.825 1.825 0 01-.738.562 2.385 2.385 0 01-.949.194 1.742 1.742 0 01-1.202-.445 1.702 1.702 0 01-.357-.464 2.56 2.56 0 01-.205-.656v-.023h4.353v-.645a4.06 4.06 0 00-.187-1.266 2.748 2.748 0 00-.551-.99 2.547 2.547 0 00-.902-.638 3.029 3.029 0 00-1.213-.229 2.98 2.98 0 00-2.156.902 3.134 3.134 0 00-.645 1.037 3.723 3.723 0 00-.228 1.336v.235c0 .43.076.832.228 1.207.152.37.369.693.65.967a3.1 3.1 0 001.008.656 3.54 3.54 0 001.313.234zm-.182-5.344a1.396 1.396 0 011.008.399c.113.121.201.266.264.434.066.167.099.34.099.515v.117h-2.824c.039-.226.1-.43.182-.609a1.73 1.73 0 01.316-.463 1.21 1.21 0 01.422-.293c.164-.066.342-.1.533-.1zm10.014 2.122v-.124c0-.37-.033-.72-.1-1.048a3.54 3.54 0 00-.299-.89 2.85 2.85 0 00-.322-.493 2.08 2.08 0 00-.398-.387 2.102 2.102 0 00-.621-.305 2.526 2.526 0 00-.75-.105c-.204 0-.393.022-.569.064-.172.04-.332.1-.48.182a1.714 1.714 0 00-.299.211 2.317 2.317 0 00-.264.258v-3.258h-1.511v9h1.365l.07-.685c.066.09.137.171.211.246.078.07.16.134.246.193.164.117.348.207.551.27.207.062.437.093.691.093.262 0 .502-.033.721-.1.223-.066.424-.162.603-.287a2.07 2.07 0 00.534-.527c.152-.21.275-.447.369-.709.082-.23.144-.478.187-.744.043-.27.065-.555.065-.855zm-1.518-.124v.124c0 .168-.008.332-.023.492a3.009 3.009 0 01-.076.44 1.844 1.844 0 01-.188.491 1.056 1.056 0 01-.316.352c-.094.066-.203.12-.328.158a1.48 1.48 0 01-.411.053c-.171 0-.326-.02-.462-.059a1.147 1.147 0 01-.358-.181.992.992 0 01-.24-.223 1.999 1.999 0 01-.182-.299V66.82a1.621 1.621 0 01.328-.445 1.08 1.08 0 01.387-.229c.149-.054.32-.082.516-.082.148 0 .281.018.398.053.121.031.231.08.328.146.141.106.25.227.328.364.079.136.141.289.188.457.039.144.066.299.082.463.019.164.029.332.029.504zm3.457-3.11v1.247h1.881v3.85h-1.881v1.242h5.203v-1.242h-1.793v-5.098h-3.41zm1.758-1.63c0 .133.029.254.088.364a.612.612 0 00.252.252c.109.062.221.1.334.11a.837.837 0 00.34-.046c.23-.02.408-.102.533-.246a.712.712 0 00.176-.533.716.716 0 00-.246-.522c-.149-.133-.348-.199-.598-.199-.133 0-.254.02-.363.059a.765.765 0 00-.451.428.848.848 0 00-.065.333zm7.975.082h-1.518v1.547h-1.494v1.125h1.494v3c0 .414.053.768.158 1.06.11.294.264.534.463.722.195.19.43.331.703.421.278.09.582.135.914.135.18 0 .36-.01.539-.03a4.99 4.99 0 00.528-.07c.168-.03.324-.07.469-.117a1.98 1.98 0 00.386-.164l-.158-1.049a5.753 5.753 0 01-.592.111 4.154 4.154 0 01-.756.07 1.693 1.693 0 01-.463-.057.845.845 0 01-.363-.206.892.892 0 01-.228-.363 1.786 1.786 0 01-.082-.586v-2.877h2.373V64.94h-2.373v-1.547zM21.76 66.074h1.506l.007-1.626c3.047-.22 4.794-1.897 4.8-4.276-.006-2.521-2.087-3.672-4.275-4.19l-.468-.121.028-4.055c1.136.198 1.868.88 1.982 1.903h2.535c-.043-2.259-1.818-3.906-4.503-4.162l.007-1.655h-1.505l-.008 1.655c-2.663.27-4.58 1.903-4.573 4.254 0 2.088 1.484 3.289 3.878 3.907l.639.163-.029 4.297c-1.271-.2-2.187-.924-2.28-2.21H16.91c.1 2.664 1.932 4.248 4.858 4.49l-.007 1.626zm1.527-3.906l.028-3.9c1.293.377 2.117.874 2.124 1.883-.007 1.05-.852 1.804-2.152 2.017zm-1.463-6.69c-.98-.313-1.875-.832-1.86-1.84.006-.916.695-1.627 1.888-1.832l-.028 3.671z" fill="#fff"/><rect x="34" y="48.256" width="101" height="18" rx="9" fill="#fff" fill-opacity=".2"/></g><defs><linearGradient id="paint0_linear" x1="109.841" y1="0" x2="109.841" y2="178.256" gradientUnits="userSpaceOnUse"><stop stop-color="#1E326F"/><stop offset="1" stop-color="#090C38"/></linearGradient><clipPath id="clip0"><rect width="280" height="178.256" rx="8.14" fill="#fff"/></clipPath></defs></svg>