<svg width="342" height="241" fill="none" xmlns="http://www.w3.org/2000/svg"><g filter="url(#filter0_d)"><g clip-path="url(#clip0)"><rect x="31" y="14.744" width="280" height="178.256" rx="8.14" fill="url(#paint0_linear)"/><rect x="47.279" y="95" width="45.378" height="17.093" rx="8.547" fill="#fff" fill-opacity=".2"/><rect x="100.797" y="95" width="45.378" height="17.093" rx="8.547" fill="#fff" fill-opacity=".2"/><rect x="154.314" y="95" width="45.378" height="17.093" rx="8.547" fill="#fff" fill-opacity=".2"/><rect x="207.831" y="95" width="45.378" height="17.093" rx="8.547" fill="#fff" fill-opacity=".2"/><path d="M268.697 153.753h11.351v20.313h-11.351v-20.313z" fill="#F16022"/><path d="M269.37 163.909c0-4.081 1.924-7.783 5.002-10.156a13.153 13.153 0 00-8.08-2.753c-7.215 0-13.083 5.79-13.083 12.909 0 7.119 5.868 12.91 13.083 12.91 3.078 0 5.868-1.045 8.08-2.753a12.81 12.81 0 01-5.002-10.157z" fill="#E91D25"/><path d="M295.535 163.909c0 7.119-5.868 12.91-13.082 12.91a13.159 13.159 0 01-8.08-2.753c3.078-2.373 5.002-5.98 5.002-10.157 0-4.081-1.924-7.783-5.002-10.156a13.153 13.153 0 018.08-2.753c7.214 0 13.082 5.79 13.082 12.909z" fill="#F69E1E"/><path d="M53.605 168.857h-1.452a2.239 2.239 0 01-.133.64c-.07.182-.165.332-.284.451a1.095 1.095 0 01-.434.272c-.17.056-.365.084-.584.084-.175 0-.33-.023-.468-.067a1.268 1.268 0 01-.367-.195 1.31 1.31 0 01-.267-.3 2.073 2.073 0 01-.19-.395 3.162 3.162 0 01-.155-.657 6.043 6.043 0 01-.05-.812v-1.113c0-.23.011-.449.033-.657.023-.207.06-.398.112-.573.059-.219.14-.412.244-.578a1.22 1.22 0 01.379-.401 1.07 1.07 0 01.328-.161c.126-.038.262-.056.406-.056.241 0 .447.033.618.1.174.067.319.165.434.295.115.13.202.289.261.478.063.186.104.399.123.64h1.452a3.845 3.845 0 00-.273-1.124 2.496 2.496 0 00-.573-.845 2.458 2.458 0 00-.873-.54 3.36 3.36 0 00-1.169-.189c-.308 0-.593.041-.857.122a2.494 2.494 0 00-.717.34 2.9 2.9 0 00-.64.606c-.182.237-.33.506-.445.807a4.052 4.052 0 00-.234.829 5.256 5.256 0 00-.078.918v1.102c0 .337.028.66.084.968.055.308.137.591.244.851.108.264.241.505.4.723.164.216.35.401.557.557.223.163.475.289.757.378.282.089.59.134.924.134.415 0 .793-.061 1.135-.184.341-.126.636-.304.884-.534a2.59 2.59 0 00.596-.829c.148-.323.24-.684.273-1.085zm5.259.74l.506 1.775h1.513l-2.593-8.101h-1.3l-2.65 8.101h1.52l.512-1.775h2.493zm-2.131-1.241l.9-3.093.88 3.093h-1.78zm7.75-.067l1.536 3.083h1.552v-.072l-1.736-3.367c.223-.1.423-.219.601-.356.182-.137.34-.298.473-.484a2.13 2.13 0 00.295-.612c.07-.23.106-.486.106-.768 0-.404-.07-.758-.212-1.063a1.974 1.974 0 00-.59-.756 2.704 2.704 0 00-.923-.462 4.074 4.074 0 00-1.185-.161h-2.65v8.101h1.453v-3.083h1.28zm-1.28-1.185v-2.654H64.4c.222 0 .42.028.595.084.175.055.325.135.451.239.133.111.234.254.3.428.07.171.106.368.106.59 0 .193-.03.367-.089.523a1.06 1.06 0 01-.245.39c-.126.129-.284.23-.473.3a1.86 1.86 0 01-.634.1h-1.207zm5.337 4.268h2.114c.367 0 .71-.045 1.03-.134.322-.089.615-.217.879-.384.23-.144.44-.322.634-.534.193-.215.36-.45.5-.706a3.83 3.83 0 00.334-.907 4.62 4.62 0 00.117-1.052v-.656c0-.386-.042-.75-.128-1.091a3.709 3.709 0 00-.356-.935 3.346 3.346 0 00-.512-.69 2.824 2.824 0 00-.673-.523 3.46 3.46 0 00-.868-.361 3.858 3.858 0 00-1.018-.128H68.54v8.101zm1.463-6.922h.59c.204 0 .391.024.562.072.174.045.332.108.473.19.189.107.352.248.49.423.14.17.253.365.339.584.07.182.122.38.156.595.037.212.057.436.06.673v.668c-.003.249-.023.48-.06.696a2.972 2.972 0 01-.15.589 2.224 2.224 0 01-.307.557 1.672 1.672 0 01-.411.395 1.86 1.86 0 01-.496.234c-.181.052-.38.077-.595.077h-.651v-5.753zm17.566 6.922v-8.101h-1.425v3.355h-2.509v-3.355h-1.43v8.101h1.43v-3.561h2.51v3.561h1.424zm7.128-3.483v-1.124a5.482 5.482 0 00-.1-1.007 4.177 4.177 0 00-.279-.891 3.46 3.46 0 00-.417-.684 2.618 2.618 0 00-1.302-.896 2.92 2.92 0 00-.88-.128c-.314 0-.604.043-.867.128a2.452 2.452 0 00-.712.351 2.697 2.697 0 00-.568.556 3.38 3.38 0 00-.406.707 4.269 4.269 0 00-.262.879 6.043 6.043 0 00-.089.985v1.124c.004.326.032.64.084.94.052.297.13.575.233.835.112.278.25.53.418.756.167.223.356.414.567.574.22.155.462.276.73.361.266.086.56.128.878.128.305 0 .587-.039.846-.117.26-.078.497-.187.712-.328.23-.156.434-.345.612-.567.178-.227.327-.475.446-.746.115-.267.202-.555.261-.862.06-.312.09-.637.095-.974zm-1.47-1.135v1.135c0 .2-.01.397-.033.59-.018.189-.05.365-.094.528a2.36 2.36 0 01-.212.551 1.418 1.418 0 01-.317.412c-.108.1-.232.176-.373.228-.14.052-.298.078-.473.078-.181 0-.343-.028-.484-.084a1.114 1.114 0 01-.361-.233 1.4 1.4 0 01-.295-.412 2.606 2.606 0 01-.19-.551 3.833 3.833 0 01-.088-.529 7.409 7.409 0 01-.023-.578v-1.135c0-.204.01-.403.028-.596a3.98 3.98 0 01.09-.545c.047-.208.114-.393.2-.556.088-.164.198-.301.328-.412.1-.085.215-.15.345-.195.13-.048.278-.072.445-.072.17 0 .323.026.456.078.137.048.26.115.367.2.13.111.24.249.329.412.092.163.166.345.222.545.048.171.082.352.1.545.023.193.034.392.034.596zm4.307 3.438v-6.921h-1.458v8.101h5.286v-1.18h-3.828zm5.225 1.18h2.114c.368 0 .711-.045 1.03-.134.322-.089.616-.217.879-.384.23-.144.441-.322.634-.534.193-.215.36-.45.501-.706.145-.275.256-.577.334-.907.078-.334.117-.685.117-1.052v-.656a4.5 4.5 0 00-.128-1.091 3.755 3.755 0 00-.356-.935 3.357 3.357 0 00-.512-.69 2.822 2.822 0 00-.674-.523 3.444 3.444 0 00-.868-.361 3.852 3.852 0 00-1.018-.128h-2.053v8.101zm1.463-6.922h.59c.204 0 .392.024.562.072.175.045.332.108.473.19.189.107.353.248.49.423.141.17.254.365.339.584.071.182.123.38.156.595.037.212.057.436.061.673v.668c-.004.249-.024.48-.061.696a2.93 2.93 0 01-.15.589 2.25 2.25 0 01-.306.557 1.675 1.675 0 01-.412.395 1.85 1.85 0 01-.495.234 2.16 2.16 0 01-.596.077h-.651v-5.753zm10.305 3.333v-1.163h-3.338v-2.159h3.878v-1.19h-5.336v8.101h5.358v-1.18h-3.9v-2.409h3.338zm4.707.506l1.536 3.083h1.553v-.072l-1.736-3.367c.222-.1.422-.219.6-.356a2.094 2.094 0 00.768-1.096c.071-.23.106-.486.106-.768 0-.404-.07-.758-.211-1.063a1.982 1.982 0 00-.59-.756 2.71 2.71 0 00-.924-.462 4.072 4.072 0 00-1.185-.161h-2.649v8.101h1.453v-3.083h1.279zm-1.279-1.185v-2.654h1.196c.223 0 .421.028.595.084.175.055.325.135.451.239.134.111.234.254.301.428.07.171.105.368.105.59 0 .193-.029.367-.089.523a1.048 1.048 0 01-.245.39c-.126.129-.283.23-.473.3-.185.067-.396.1-.634.1h-1.207zM248.189 36.23c-.243-1.52-1.432-2.407-2.934-2.407-1.839 0-3.195 1.377-3.195 3.648 0 2.272 1.349 3.65 3.195 3.65 1.561 0 2.702-.979 2.934-2.384l-1.082-.003c-.184.909-.947 1.408-1.845 1.408-1.218 0-2.137-.933-2.137-2.67 0-1.724.916-2.671 2.14-2.671.905 0 1.665.51 1.842 1.429h1.082zm1.904-2.31h-1.159l2.556 7.103h1.239l2.556-7.103h-1.159l-1.977 5.785h-.079l-1.977-5.785zm11.765 2.31c-.243-1.52-1.433-2.407-2.935-2.407-1.838 0-3.194 1.377-3.194 3.648 0 2.272 1.349 3.65 3.194 3.65 1.561 0 2.702-.979 2.935-2.384l-1.082-.003c-.184.909-.947 1.408-1.846 1.408-1.217 0-2.136-.933-2.136-2.67 0-1.724.915-2.671 2.14-2.671.905 0 1.665.51 1.842 1.429h1.082zm1.185 4.793h4.676v-.919h-3.198v-.052l1.412-1.478c1.3-1.314 1.671-1.942 1.671-2.736 0-1.141-.929-2.016-2.268-2.016-1.329 0-2.3.86-2.3 2.158h1.024c-.004-.763.489-1.263 1.255-1.263.722 0 1.27.444 1.27 1.152 0 .628-.375 1.079-1.138 1.887l-2.404 2.49v.777zm6.688-4.44a.695.695 0 00.693-.693.697.697 0 00-.693-.69.695.695 0 00-.694.69c0 .385.312.693.694.693zm0 3.56a.695.695 0 00.693-.694.697.697 0 00-.693-.69.695.695 0 00-.694.69c0 .385.312.693.694.693z" fill="#fff"/><rect x="274.372" y="31.023" width="21.163" height="13.023" rx="6.512" fill="#fff" fill-opacity=".2"/><path d="M124.693 130l-1.555-5.682h1.172l.709 2.874.415 1.79h.057l.423-1.79.716-2.874h1.115L126.191 130h-1.498zm6.842 0l-.399-1.441h-1.685l-.39 1.441h-1.075l1.596-5.682h1.481l1.604 5.682h-1.132zm-1.204-4.632h-.066l-.626 2.32h1.318l-.626-2.32zm3.244 4.632v-5.682h1.066v4.803h2.515V130h-3.581zm4.702 0v-.798h1.277v-4.086h-1.277v-.798h3.613v.798h-1.277v4.086h1.277V130h-3.613zm4.839-5.682h1.767c.738 0 1.286.245 1.644.733.363.488.545 1.191.545 2.108 0 .923-.182 1.628-.545 2.116-.358.483-.906.725-1.644.725h-1.767v-5.682zm1.693 4.827c.391 0 .679-.127.863-.382.19-.255.285-.627.285-1.115v-.985c0-.483-.095-.852-.285-1.107-.184-.255-.472-.383-.863-.383h-.643v3.972h.643zm-18.838 5.053V139h-1.058v-4.802h-1.71v-.88h4.477v.88h-1.709zm5.182 2.36h-1.661V139h-1.066v-5.682h1.066v2.361h1.661v-2.361h1.066V139h-1.066v-2.442zm3.326 2.442h-1.067v-5.682h2.157c.554 0 .977.158 1.27.473.293.314.44.743.44 1.286 0 .417-.098.77-.293 1.058-.19.282-.464.461-.823.537l1.213 2.328h-1.172l-1.082-2.206h-.643V139zm.87-3.036c.288 0 .494-.057.619-.171.125-.119.187-.307.187-.562v-.309c0-.255-.062-.44-.187-.554-.125-.119-.331-.179-.619-.179h-.87v1.775h.87zm3.864-2.646v3.541c0 .212.005.402.016.57.016.168.051.312.106.431a.648.648 0 00.26.269c.119.065.282.098.488.098.207 0 .367-.033.481-.098a.592.592 0 00.26-.269c.06-.119.095-.263.106-.431.016-.168.024-.358.024-.57v-3.541h1.067v3.378c0 .402-.025.752-.074 1.05a1.775 1.775 0 01-.284.749c-.142.201-.34.353-.595.456-.249.098-.578.147-.985.147-.406 0-.737-.049-.993-.147a1.31 1.31 0 01-.586-.456 1.775 1.775 0 01-.284-.749 6.55 6.55 0 01-.074-1.05v-3.378h1.067z" fill="#fff"/><rect x="153.93" y="125.035" width="34.186" height="13.837" rx="6.919" fill="#fff" fill-opacity=".2"/><path d="M259.935 82.806v.123c0 .457.057.883.17 1.278.117.39.283.73.498 1.02.211.284.471.51.78.673.308.16.654.24 1.037.24.363 0 .681-.068.955-.205.277-.136.515-.328.715-.574l.076.662h1.371v-9h-1.518v3.24a2.123 2.123 0 00-.685-.515 2.105 2.105 0 00-.903-.182c-.39 0-.74.078-1.048.234a2.243 2.243 0 00-.786.663 3.12 3.12 0 00-.492 1.025 4.82 4.82 0 00-.17 1.318zm1.512.123v-.123c0-.277.025-.537.076-.779s.131-.455.24-.639c.11-.18.25-.32.422-.421.176-.106.387-.159.633-.159.293 0 .537.065.733.194.195.129.351.304.468.527v2.643a1.386 1.386 0 01-.468.533c-.196.129-.444.193-.745.193-.246 0-.455-.05-.627-.152a1.175 1.175 0 01-.416-.422 1.924 1.924 0 01-.246-.627 3.966 3.966 0 01-.07-.768zm8.889 3.211c.613 0 1.14-.119 1.582-.357.445-.242.771-.514.978-.814l-.779-.803a1.831 1.831 0 01-.738.562 2.39 2.39 0 01-.95.194c-.242 0-.464-.04-.668-.118a1.75 1.75 0 01-.533-.328 1.702 1.702 0 01-.357-.463 2.56 2.56 0 01-.205-.656v-.023h4.353v-.645c0-.46-.062-.883-.187-1.265a2.75 2.75 0 00-.551-.99 2.546 2.546 0 00-.902-.64 3.027 3.027 0 00-1.213-.228c-.426 0-.824.08-1.196.24a2.871 2.871 0 00-.96.663 3.128 3.128 0 00-.645 1.037 3.723 3.723 0 00-.229 1.336v.234c0 .43.077.832.229 1.207.152.371.369.693.65.967a3.1 3.1 0 001.008.656c.395.156.832.234 1.313.234zm-.182-5.343a1.394 1.394 0 011.008.398c.113.121.201.266.264.434.066.168.099.34.099.515v.117h-2.824c.039-.226.1-.43.182-.609a1.73 1.73 0 01.316-.463 1.21 1.21 0 01.422-.293c.164-.066.342-.1.533-.1zm10.014 2.12v-.122c0-.371-.033-.721-.1-1.05a3.54 3.54 0 00-.299-.89 2.853 2.853 0 00-.322-.492 2.08 2.08 0 00-.398-.387 2.096 2.096 0 00-.622-.304 2.517 2.517 0 00-.75-.106c-.203 0-.392.022-.568.065a1.713 1.713 0 00-.779.393 2.326 2.326 0 00-.264.257v-3.258h-1.512v9h1.366l.07-.685c.066.09.137.172.211.246.078.07.16.135.246.193.164.117.348.207.551.27.207.062.437.093.691.093.262 0 .502-.033.721-.1a2.093 2.093 0 001.137-.814c.152-.21.275-.447.369-.709.082-.23.144-.478.187-.744.043-.27.065-.554.065-.855zm-1.518-.122v.123c0 .168-.008.332-.023.492a3.01 3.01 0 01-.076.44 1.845 1.845 0 01-.188.492 1.054 1.054 0 01-.316.351c-.094.067-.203.12-.328.158a1.477 1.477 0 01-.411.053 1.69 1.69 0 01-.463-.058 1.153 1.153 0 01-.357-.182.993.993 0 01-.24-.223 2.005 2.005 0 01-.182-.299v-2.578a1.62 1.62 0 01.328-.445 1.08 1.08 0 01.387-.229c.148-.054.32-.082.516-.082.148 0 .281.018.398.053.121.031.231.08.328.147.141.105.25.226.328.363.078.137.141.289.188.457.039.144.066.299.082.463.019.164.029.332.029.504zm3.457-3.112v1.248h1.881v3.85h-1.881v1.242h5.203v-1.242h-1.793v-5.098h-3.41zm1.758-1.629c0 .133.029.254.088.364.058.11.142.193.252.252a.84.84 0 00.334.111.837.837 0 00.34-.047c.23-.02.408-.101.533-.246a.712.712 0 00.176-.533.716.716 0 00-.246-.522c-.149-.133-.348-.199-.598-.199-.133 0-.254.02-.363.059a.776.776 0 00-.452.427.847.847 0 00-.064.334zm7.975.082h-1.518v1.547h-1.494v1.125h1.494v3c0 .414.053.768.158 1.06.11.294.264.534.463.722.195.191.43.332.703.421.278.09.582.135.914.135.18 0 .36-.01.539-.03a4.99 4.99 0 00.528-.07c.168-.03.324-.07.468-.117.149-.046.278-.101.387-.164l-.158-1.048a5.662 5.662 0 01-.592.111 4.154 4.154 0 01-.756.07c-.168 0-.322-.02-.463-.058a.844.844 0 01-.363-.206.88.88 0 01-.228-.363 1.785 1.785 0 01-.082-.586v-2.877h2.373v-1.125h-2.373v-1.547z" fill="#fff"/></g></g><defs><linearGradient id="paint0_linear" x1="140.841" y1="14.744" x2="140.841" y2="193" gradientUnits="userSpaceOnUse"><stop stop-color="#1E326F"/><stop offset="1" stop-color="#090C38"/></linearGradient><clipPath id="clip0"><rect x="31" y="14.744" width="280" height="178.256" rx="8.14" fill="#fff"/></clipPath><filter id="filter0_d" x=".07" y=".093" width="341.86" height="240.116" filterUnits="userSpaceOnUse" color-interpolation-filters="sRGB"><feFlood flood-opacity="0" result="BackgroundImageFix"/><feColorMatrix in="SourceAlpha" values="0 0 0 0 0 0 0 0 0 0 0 0 0 0 0 0 0 0 127 0" result="hardAlpha"/><feMorphology radius="9.767" in="SourceAlpha" result="effect1_dropShadow"/><feOffset dy="16.279"/><feGaussianBlur stdDeviation="20.349"/><feColorMatrix values="0 0 0 0 0 0 0 0 0 0 0 0 0 0 0 0 0 0 0.25 0"/><feBlend in2="BackgroundImageFix" result="effect1_dropShadow"/><feBlend in="SourceGraphic" in2="effect1_dropShadow" result="shape"/></filter></defs></svg>