<svg width="42" height="42" fill="none" xmlns="http://www.w3.org/2000/svg"><g clip-path="url(#clip0)"><path d="M10.458 16.898v-2.267a2 2 0 012-2h2.267m16.817 12.546v2.267a2 2 0 01-2 2h-2.267m-.005-16.817h2.268a2 2 0 012 2v2.267M14.73 29.449h-2.268a2 2 0 01-2-2v-2.267" stroke="#374151" stroke-linecap="round" stroke-linejoin="round"/><path d="M15.75 16c-.966 0-1.75.746-1.75 1.667v.833h14v-.833c0-.92-.784-1.667-1.75-1.667h-10.5z" fill="#374151"/><path fill-rule="evenodd" clip-rule="evenodd" d="M28 20.167H14v4.166c0 .92.784 1.667 1.75 1.667h10.5c.966 0 1.75-.746 1.75-1.667v-4.166zM15.75 23.5c0-.46.392-.833.875-.833h.875c.483 0 .875.373.875.833 0 .46-.392.833-.875.833h-.875c-.483 0-.875-.373-.875-.833zm4.375-.833c-.483 0-.875.373-.875.833 0 .46.392.833.875.833H21c.483 0 .875-.373.875-.833 0-.46-.392-.833-.875-.833h-.875z" fill="#374151"/></g><defs><clipPath id="clip0"><path fill="#fff" transform="translate(9 9)" d="M0 0h24v24H0z"/></clipPath></defs></svg>