<svg width="53" height="60" fill="none" xmlns="http://www.w3.org/2000/svg"><path d="M11.728 57.668c0-.7.473-1.4 1.3-1.4.709 0 1.3.583 1.3 1.4 0 .7-.591 1.4-1.3 1.4-.827-.117-1.3-.7-1.3-1.4zm3.545 0v-2.1h-.945v.584c-.355-.35-.71-.583-1.3-.583-1.182 0-2.127.933-2.127 2.215 0 1.283.945 2.216 2.127 2.216.59 0 1.063-.233 1.3-.583V60h.945v-2.332zm31.319 0c0-.7.472-1.4 1.3-1.4.709 0 1.3.583 1.3 1.4 0 .7-.591 1.4-1.3 1.4-.828-.117-1.3-.7-1.3-1.4zm3.427 0v-3.849h-.946v2.216c-.354-.35-.709-.583-1.3-.583-1.181 0-2.127.933-2.127 2.216 0 1.282.946 2.215 2.127 2.215.591 0 1.064-.233 1.3-.583v.584h.946v-2.216zm-23.282-1.516c.59 0 .945.35 1.064 1.05h-2.246c.118-.584.473-1.05 1.182-1.05zm0-.7c-1.3 0-2.127.933-2.127 2.216 0 1.282.945 2.215 2.245 2.215.591 0 1.3-.233 1.773-.583l-.473-.7c-.354.234-.827.467-1.3.467-.59 0-1.182-.233-1.3-1.05h3.191v-.35c0-1.399-.827-2.215-2.01-2.215zm11.227 2.216c0-.7.473-1.4 1.3-1.4.71 0 1.3.583 1.3 1.4 0 .7-.59 1.4-1.3 1.4-.827-.117-1.3-.7-1.3-1.4zm3.428 0v-2.1h-.946v.584c-.354-.35-.71-.583-1.3-.583-1.182 0-2.127.933-2.127 2.215 0 1.283.945 2.216 2.127 2.216.59 0 1.064-.233 1.3-.583V60h.946v-2.332zm-8.628 0c0 1.282.946 2.215 2.246 2.215.59 0 1.063-.116 1.536-.466l-.473-.7c-.354.233-.709.35-1.063.35-.71 0-1.3-.583-1.3-1.4 0-.816.59-1.282 1.3-1.399.354 0 .709.117 1.063.35l.473-.7c-.473-.35-.945-.466-1.536-.466-1.418 0-2.246.933-2.246 2.216zm11.937-2.216c-.591 0-.946.233-1.064.583v-.583h-.946v4.198h.946v-2.332c0-.7.355-1.05.945-1.05.237 0 .355 0 .591.117l.237-.933h-.71zm-24.937.35c-.473-.35-1.063-.467-1.773-.467-1.063 0-1.772.584-1.772 1.4 0 .7.59 1.05 1.418 1.283h.473c.472.116.709.233.709.466 0 .35-.355.583-.946.583-.59 0-1.063-.233-1.418-.466l-.473.7c.473.35 1.182.582 1.773.582 1.3 0 2.01-.583 2.01-1.399 0-.7-.592-1.166-1.419-1.283h-.473c-.354 0-.709-.116-.709-.35 0-.35.355-.466.827-.466.591 0 1.064.233 1.3.35l.473-.933zm12.055-.35c-.591 0-.946.233-1.064.583v-.583h-.945v4.198h.945v-2.332c0-.7.355-1.05.946-1.05.236 0 .354 0 .59.117l.237-.933h-.71zm-7.918 0h-1.537v-1.283h-.945v1.283h-.828v.816h.828v1.983c0 .933.354 1.516 1.418 1.516.355 0 .827-.117 1.182-.35l-.237-.816c-.236.233-.59.233-.827.233-.473 0-.59-.233-.59-.7v-1.866H23.9v-.816zM9.955 59.767v-2.682c0-1.05-.59-1.633-1.654-1.633-.591 0-1.064.233-1.537.7-.354-.467-.709-.7-1.418-.7-.473 0-.945.117-1.3.583v-.583h-.945v4.198h.945v-2.332c0-.7.355-1.05 1.064-1.05.709 0 .945.35.945 1.05v2.332h.946v-2.332c0-.7.472-1.05 1.063-1.05s.946.35.946 1.05v2.332h.945v.117z" fill="#fff"/><path d="M19.527 23.382h13.946v24.956H19.527V23.382z" fill="#F16022"/><path d="M20.355 35.86c0-5.014 2.363-9.563 6.145-12.478A16.164 16.164 0 0016.573 20C7.709 20 .5 27.114.5 35.86c0 8.746 7.21 15.86 16.073 15.86 3.782 0 7.209-1.283 9.927-3.382a15.736 15.736 0 01-6.145-12.478z" fill="#E91D25"/><path d="M52.5 35.86c0 8.746-7.21 15.86-16.073 15.86a16.163 16.163 0 01-9.927-3.382c3.782-2.915 6.145-7.347 6.145-12.478 0-5.014-2.363-9.563-6.145-12.478A16.164 16.164 0 0136.427 20C45.291 20 52.5 27.114 52.5 35.86zm-4.095 12.939v-.254H49.6v.254h-.445V50h-.304v-1.201h-.446zm1.392-.254h.379l.4.978h.017l.401-.978h.38V50h-.299v-.947h-.012l-.377.94h-.203l-.376-.943h-.012V50h-.298v-1.455z" fill="#F69E1E"/><path d="M11.643 9.664c0-.664.136-1.252.408-1.764a3.047 3.047 0 012.724-1.62c.432 0 .856.096 1.272.288.424.184.76.432 1.008.744V4.12h1.38V13h-1.38v-.996a2.55 2.55 0 01-.936.792c-.392.208-.844.312-1.356.312a3.021 3.021 0 01-1.584-.432 3.206 3.206 0 01-1.128-1.224c-.272-.528-.408-1.124-.408-1.788zm5.412.024c0-.456-.096-.852-.288-1.188a1.938 1.938 0 00-.732-.768 1.93 1.93 0 00-.984-.264c-.352 0-.68.088-.984.264-.304.168-.552.42-.744.756-.184.328-.276.72-.276 1.176 0 .456.092.856.276 1.2.192.344.44.608.744.792a1.974 1.974 0 001.968 0c.304-.176.548-.432.732-.768.192-.344.288-.744.288-1.2zm9.237-.156c0 .248-.016.472-.048.672h-5.052c.04.528.236.952.588 1.272.352.32.784.48 1.296.48.736 0 1.256-.308 1.56-.924h1.476a2.998 2.998 0 01-1.092 1.5c-.52.384-1.168.576-1.944.576-.632 0-1.2-.14-1.704-.42a3.139 3.139 0 01-1.176-1.2c-.28-.52-.42-1.12-.42-1.8 0-.68.136-1.276.408-1.788.28-.52.668-.92 1.164-1.2.504-.28 1.08-.42 1.728-.42.624 0 1.18.136 1.668.408.488.272.868.656 1.14 1.152.272.488.408 1.052.408 1.692zM24.864 9.1c-.008-.504-.188-.908-.54-1.212-.352-.304-.788-.456-1.308-.456-.472 0-.876.152-1.212.456-.336.296-.536.7-.6 1.212h3.66zm4.142-1.728c.232-.32.548-.58.948-.78.408-.208.86-.312 1.356-.312.584 0 1.112.14 1.584.42.472.28.844.68 1.116 1.2.272.512.408 1.1.408 1.764 0 .664-.136 1.26-.408 1.788-.272.52-.648.928-1.128 1.224a2.96 2.96 0 01-1.572.432c-.512 0-.968-.1-1.368-.3a2.63 2.63 0 01-.936-.768V13h-1.368V4.12h1.368v3.252zm4.02 2.292c0-.456-.096-.848-.288-1.176a1.832 1.832 0 00-.744-.756 1.974 1.974 0 00-1.968 0 2.022 2.022 0 00-.744.768c-.184.336-.276.732-.276 1.188 0 .456.092.856.276 1.2.192.336.44.592.744.768a1.974 1.974 0 001.968 0c.312-.184.56-.448.744-.792.192-.344.288-.744.288-1.2zm3.441-4.152a.847.847 0 01-.624-.252.847.847 0 01-.252-.624c0-.248.084-.456.252-.624a.847.847 0 01.624-.252c.24 0 .444.084.612.252a.847.847 0 01.252.624.847.847 0 01-.252.624.833.833 0 01-.612.252zm.672.876V13h-1.368V6.388h1.368zm3.392 1.116v3.66c0 .248.056.428.168.54.12.104.32.156.6.156h.84V13h-1.08c-.616 0-1.088-.144-1.416-.432-.328-.288-.492-.756-.492-1.404v-3.66h-.78V6.388h.78V4.744h1.38v1.644h1.608v1.116h-1.608z" fill="#fff"/></svg>