<svg width="348" height="180" fill="none" xmlns="http://www.w3.org/2000/svg"><g filter="url(#filter0_d)"><rect x="2" y="1" width="344" height="150" rx="8" fill="#F9FAFB"/><path fill="#D1D5DB" d="M18 40h208v1H18zm227.456-9.91h.903l.005-.975c1.828-.132 2.876-1.138 2.88-2.565-.004-1.513-1.253-2.203-2.565-2.515l-.281-.072.017-2.433c.682.12 1.121.528 1.189 1.142h1.521c-.026-1.355-1.091-2.344-2.702-2.497l.005-.993h-.904l-.004.993c-1.598.162-2.749 1.142-2.744 2.552 0 1.253.89 1.973 2.326 2.344l.384.098-.017 2.578c-.763-.12-1.313-.554-1.368-1.325h-1.556c.06 1.598 1.16 2.548 2.915 2.693l-.004.976zm.916-2.343l.017-2.34c.776.227 1.27.525 1.274 1.13-.004.63-.511 1.082-1.291 1.21zm-.878-4.014c-.588-.188-1.125-.499-1.116-1.104.004-.55.417-.976 1.133-1.1l-.017 2.204z"/><rect x="257.5" y="17.5" width="72" height="23" rx="2.5" stroke="#D1D5DB"/><path fill="#D1D5DB" d="M18 65h312v1H18zm0 37h144v1H18zm168 0h144v1H186z"/><path d="M22.001 131.166c2.105.004 3.363-1.657 3.363-4.521 0-2.847-1.266-4.492-3.363-4.492-2.096 0-3.358 1.641-3.362 4.492 0 2.859 1.257 4.521 3.362 4.521zm0-1.334c-1.086 0-1.768-1.091-1.764-3.187.005-2.08.682-3.175 1.764-3.175 1.087 0 1.765 1.095 1.769 3.175 0 2.096-.678 3.187-1.769 3.187zm8.928-7.559h-1.504l-2.17 1.393v1.449l2.042-1.304h.051V131h1.581v-8.727zM33.745 131h5.983v-1.321h-3.801v-.06l1.504-1.53c1.696-1.627 2.165-2.42 2.165-3.404 0-1.462-1.189-2.532-2.945-2.532-1.73 0-2.957 1.074-2.957 2.732h1.504c0-.891.563-1.449 1.432-1.449.831 0 1.449.507 1.449 1.33 0 .728-.443 1.248-1.304 2.122l-3.03 2.97V131zm11.185.119c1.867 0 3.226-1.069 3.222-2.544.004-1.091-.678-1.875-1.9-2.049v-.069c.945-.204 1.58-.907 1.576-1.887.004-1.33-1.13-2.417-2.872-2.417-1.696 0-3.009 1.01-3.043 2.472h1.522c.025-.733.707-1.189 1.512-1.189.814 0 1.355.494 1.351 1.227.005.763-.626 1.27-1.53 1.27h-.77v1.219h.77c1.104 0 1.76.554 1.756 1.342.004.772-.665 1.3-1.598 1.3-.878 0-1.555-.456-1.594-1.168H41.73c.043 1.475 1.36 2.493 3.2 2.493zm5.127-1.738h4.163V131h1.509v-1.619h1.116v-1.3H55.73v-5.808h-1.97l-3.703 5.851v1.257zm4.18-1.3h-2.56v-.068l2.492-3.951h.068v4.019zm7.604 3.038c1.845 0 3.132-1.253 3.132-2.987 0-1.679-1.168-2.889-2.753-2.889-.707 0-1.334.281-1.657.665h-.052l.252-2.314h3.754v-1.321h-5.062l-.456 4.5 1.427.234c.294-.324.848-.541 1.372-.537.96.004 1.65.712 1.645 1.7.004.976-.669 1.671-1.602 1.671-.788 0-1.423-.499-1.479-1.215h-1.534c.043 1.449 1.308 2.493 3.013 2.493zm8.356 0c1.883.013 3.149-1.282 3.144-3.008.005-1.649-1.171-2.843-2.701-2.843-.938 0-1.764.456-2.182 1.206h-.06c.005-1.836.678-2.953 1.888-2.953.75 0 1.257.435 1.42 1.104h1.554c-.187-1.411-1.325-2.472-2.974-2.472-2.097 0-3.422 1.748-3.422 4.731-.004 3.2 1.658 4.227 3.333 4.235zm-.009-1.278c-.933 0-1.615-.771-1.62-1.683.01-.917.717-1.684 1.641-1.684.925 0 1.603.733 1.598 1.671.005.954-.694 1.696-1.619 1.696zM75.701 131h1.641l3.707-7.376v-1.351h-5.944v1.321h4.308v.059L75.701 131zm10.25.119c1.888 0 3.239-1.039 3.243-2.458-.004-1.091-.81-2.003-1.824-2.174v-.059c.882-.196 1.496-.989 1.5-1.935-.004-1.342-1.24-2.34-2.919-2.34-1.691 0-2.927.993-2.923 2.34-.004.946.6 1.739 1.5 1.935v.059a2.198 2.198 0 00-1.824 2.174c-.004 1.419 1.343 2.458 3.247 2.458zm0-1.218c-.988 0-1.628-.546-1.619-1.351-.009-.836.678-1.428 1.62-1.428.928 0 1.61.597 1.619 1.428-.009.805-.644 1.351-1.62 1.351zm0-3.976c-.81 0-1.389-.524-1.38-1.283-.009-.75.554-1.253 1.38-1.253.814 0 1.372.503 1.381 1.253-.009.763-.584 1.283-1.38 1.283zm44.05 5.241c2.106.004 3.363-1.657 3.363-4.521 0-2.847-1.266-4.492-3.363-4.492-2.096 0-3.358 1.641-3.362 4.492 0 2.859 1.257 4.521 3.362 4.521zm0-1.334c-1.086 0-1.768-1.091-1.764-3.187.004-2.08.682-3.175 1.764-3.175 1.087 0 1.765 1.095 1.769 3.175 0 2.096-.678 3.187-1.769 3.187zm8.408-7.679c-1.892-.012-3.149 1.287-3.149 2.992.004 1.645 1.176 2.834 2.706 2.834.942 0 1.76-.456 2.182-1.206h.06c-.005 1.866-.682 2.978-1.888 2.978-.754 0-1.262-.434-1.419-1.129h-1.556c.179 1.445 1.321 2.497 2.975 2.497 2.092 0 3.426-1.747 3.422-4.751-.005-3.179-1.658-4.206-3.333-4.215zm.005 1.279c.933 0 1.619.775 1.619 1.666.004.903-.716 1.679-1.636 1.679-.929 0-1.598-.733-1.603-1.666 0-.938.695-1.679 1.62-1.679zm8.449 7.687c1.888 0 3.239-1.039 3.243-2.458-.004-1.091-.81-2.003-1.824-2.174v-.059c.882-.196 1.496-.989 1.5-1.935-.004-1.342-1.24-2.34-2.919-2.34-1.692 0-2.928.993-2.923 2.34-.005.946.601 1.739 1.5 1.935v.059a2.198 2.198 0 00-1.824 2.174c-.004 1.419 1.342 2.458 3.247 2.458zm0-1.218c-.989 0-1.628-.546-1.619-1.351-.009-.836.677-1.428 1.619-1.428.929 0 1.611.597 1.619 1.428-.008.805-.643 1.351-1.619 1.351zm0-3.976c-.81 0-1.389-.524-1.381-1.283-.008-.75.554-1.253 1.381-1.253.814 0 1.372.503 1.381 1.253-.009.763-.584 1.283-1.381 1.283zm5.563 5.075h1.641l3.707-7.376v-1.351h-5.944v1.321h4.308v.059L152.426 131zm10.332.119c1.884.013 3.149-1.282 3.145-3.008.004-1.649-1.172-2.843-2.702-2.843-.937 0-1.764.456-2.181 1.206h-.06c.004-1.836.678-2.953 1.888-2.953.75 0 1.257.435 1.419 1.104h1.555c-.187-1.411-1.325-2.472-2.974-2.472-2.097 0-3.422 1.748-3.422 4.731-.004 3.2 1.658 4.227 3.332 4.235zm-.008-1.278c-.933 0-1.615-.771-1.62-1.683.009-.917.716-1.684 1.641-1.684s1.602.733 1.598 1.671c.004.954-.694 1.696-1.619 1.696zm8.228 1.278c1.845 0 3.132-1.253 3.132-2.987 0-1.679-1.168-2.889-2.753-2.889-.707 0-1.334.281-1.658.665h-.051l.252-2.314h3.754v-1.321h-5.063l-.456 4.5 1.428.234c.294-.324.848-.541 1.372-.537.959.004 1.649.712 1.645 1.7.004.976-.669 1.671-1.602 1.671-.789 0-1.424-.499-1.479-1.215h-1.534c.042 1.449 1.308 2.493 3.013 2.493zm5.002-1.738h4.163V131h1.508v-1.619h1.117v-1.3h-1.117v-5.808h-1.968l-3.703 5.851v1.257zm4.18-1.3h-2.561v-.068l2.493-3.951h.068v4.019zm7.702 3.038c1.866 0 3.225-1.069 3.221-2.544.004-1.091-.677-1.875-1.9-2.049v-.069c.946-.204 1.581-.907 1.576-1.887.005-1.33-1.129-2.417-2.872-2.417-1.696 0-3.008 1.01-3.042 2.472h1.521c.025-.733.707-1.189 1.513-1.189.814 0 1.355.494 1.35 1.227.005.763-.626 1.27-1.529 1.27h-.772v1.219h.772c1.103 0 1.76.554 1.755 1.342.005.772-.664 1.3-1.598 1.3-.878 0-1.555-.456-1.593-1.168h-1.603c.043 1.475 1.36 2.493 3.201 2.493zm5.284-.119h5.983v-1.321h-3.801v-.06l1.504-1.53c1.696-1.627 2.165-2.42 2.165-3.404 0-1.462-1.189-2.532-2.945-2.532-1.73 0-2.957 1.074-2.957 2.732h1.504c0-.891.563-1.449 1.432-1.449.831 0 1.449.507 1.449 1.33 0 .728-.443 1.248-1.304 2.122l-3.03 2.97V131zm11.603-8.727h-1.505l-2.169 1.393v1.449l2.042-1.304h.051V131h1.581v-8.727z" fill="#374151"/><rect x="2.5" y="1.5" width="343" height="149" rx="7.5" stroke="#D1D5DB"/></g><rect x="10.5" y="116.5" width="86" height="21" rx="3.5" stroke="#2563EB"/><g filter="url(#filter1_d)"><mask id="a" fill="#fff"><path fill-rule="evenodd" clip-rule="evenodd" d="M54.987 143.652a2 2 0 00-2.974 0l-2.963 3.293H16a4 4 0 00-4 4v22a4 4 0 004 4h75a4 4 0 004-4v-22a4 4 0 00-4-4H57.95l-2.963-3.293z"/></mask><path fill-rule="evenodd" clip-rule="evenodd" d="M54.987 143.652a2 2 0 00-2.974 0l-2.963 3.293H16a4 4 0 00-4 4v22a4 4 0 004 4h75a4 4 0 004-4v-22a4 4 0 00-4-4H57.95l-2.963-3.293z" fill="#1F2937"/><path d="M52.013 143.652l-.743-.669.743.669zm2.974 0l-.744.669.744-.669zm-5.937 3.293v1h.445l.298-.331-.743-.669zm8.9 0l-.743.669.298.331h.445v-1zm-5.193-2.624a1 1 0 011.486 0l1.487-1.338a3 3 0 00-4.46 0l1.487 1.338zm-2.964 3.293l2.964-3.293-1.487-1.338-2.964 3.293 1.487 1.338zM16 147.945h33.05v-2H16v2zm-3 3a3 3 0 013-3v-2a5 5 0 00-5 5h2zm0 22v-22h-2v22h2zm3 3a3 3 0 01-3-3h-2a5 5 0 005 5v-2zm75 0H16v2h75v-2zm3-3a3 3 0 01-3 3v2a5 5 0 005-5h-2zm0-22v22h2v-22h-2zm-3-3a3 3 0 013 3h2a5 5 0 00-5-5v2zm-33.05 0H91v-2H57.95v2zm-3.707-3.624l2.964 3.293 1.487-1.338-2.964-3.293-1.487 1.338z" fill="#1F2937" mask="url(#a)"/><path d="M29.057 166v-8.728h2.949c.681 0 1.241.117 1.679.35.437.23.761.547.971.95.21.403.316.862.316 1.376 0 .515-.105.971-.316 1.368a2.22 2.22 0 01-.967.938c-.435.224-.99.336-1.666.336h-2.387v-.954h2.353c.466 0 .84-.068 1.125-.205a1.29 1.29 0 00.622-.579c.13-.253.196-.554.196-.904 0-.349-.066-.654-.196-.916a1.338 1.338 0 00-.627-.605c-.287-.145-.666-.217-1.137-.217h-1.858V166h-1.057zm4.108-3.921L35.313 166h-1.228l-2.113-3.921h1.193zm6.02 4.057c-.59 0-1.11-.141-1.555-.422a2.868 2.868 0 01-1.04-1.18c-.247-.506-.37-1.097-.37-1.773 0-.682.123-1.277.37-1.786a2.86 2.86 0 011.04-1.184c.446-.281.964-.422 1.555-.422.59 0 1.108.141 1.551.422a2.82 2.82 0 011.04 1.184c.25.509.375 1.104.375 1.786 0 .676-.125 1.267-.375 1.773a2.828 2.828 0 01-1.04 1.18c-.443.281-.96.422-1.551.422zm0-.903c.449 0 .818-.116 1.108-.346.29-.23.504-.532.643-.907.14-.375.21-.782.21-1.219 0-.438-.07-.845-.21-1.223a2.06 2.06 0 00-.643-.916c-.29-.233-.66-.35-1.108-.35-.449 0-.818.117-1.108.35a2.06 2.06 0 00-.643.916 3.51 3.51 0 00-.21 1.223c0 .437.07.844.21 1.219.139.375.353.677.643.907.29.23.66.346 1.108.346zm8.626-1.91v-3.869h1.006V166H47.81v-1.108h-.068a2.15 2.15 0 01-.716.848c-.324.23-.733.345-1.227.345-.41 0-.773-.09-1.091-.269a1.872 1.872 0 01-.75-.818c-.182-.366-.273-.828-.273-1.385v-4.159h1.006v4.091c0 .477.133.858.4 1.142.27.284.614.426 1.032.426.25 0 .504-.064.762-.192a1.65 1.65 0 00.657-.588c.179-.264.268-.6.268-1.01zm5.694-3.869v.852h-3.392v-.852h3.392zm-2.403-1.568h1.006v6.239c0 .284.04.497.123.639a.64.64 0 00.324.281c.134.045.274.068.422.068.11 0 .202-.005.273-.017l.17-.034.205.903a1.906 1.906 0 01-.286.077 2.064 2.064 0 01-.464.043c-.284 0-.563-.061-.836-.183a1.668 1.668 0 01-.673-.559c-.176-.25-.264-.565-.264-.946v-6.511zM55.018 166v-6.546h1.006V166h-1.006zm.511-7.637a.717.717 0 01-.507-.2.644.644 0 01-.208-.482c0-.187.07-.348.208-.481a.713.713 0 01.508-.2c.195 0 .363.066.502.2a.636.636 0 01.213.481.638.638 0 01-.213.482.702.702 0 01-.502.2zm3.342 3.699V166h-1.005v-6.546h.971v1.023h.086c.153-.333.386-.6.698-.801.313-.205.716-.307 1.21-.307.444 0 .832.091 1.164.273.332.179.59.451.776.818.184.363.277.824.277 1.38V166h-1.006v-4.091c0-.515-.134-.915-.4-1.202-.268-.29-.634-.435-1.1-.435-.321 0-.608.07-.86.209-.25.139-.448.342-.593.609-.145.268-.218.591-.218.972zm8.656 6.528c-.486 0-.903-.062-1.252-.187a2.651 2.651 0 01-.874-.486 2.666 2.666 0 01-.55-.639l.801-.563c.091.12.206.256.346.41.139.156.33.291.57.404.245.117.564.175.96.175.528 0 .964-.128 1.308-.383.343-.256.515-.657.515-1.202v-1.33h-.085c-.074.12-.179.267-.315.444a1.787 1.787 0 01-.58.464c-.25.134-.588.2-1.014.2a2.731 2.731 0 01-1.423-.375 2.627 2.627 0 01-.993-1.091c-.242-.477-.362-1.056-.362-1.738 0-.671.117-1.254.353-1.752.236-.5.564-.886.984-1.159a2.606 2.606 0 011.458-.413c.426 0 .764.071 1.014.213.253.139.446.298.58.477.136.176.241.321.315.435h.102v-1.04h.972v6.733c0 .563-.128 1.02-.384 1.372a2.187 2.187 0 01-1.022.78 3.85 3.85 0 01-1.424.251zm-.034-3.596c.404 0 .745-.092 1.023-.277.278-.185.49-.45.635-.797.145-.347.217-.761.217-1.244 0-.472-.07-.888-.213-1.249a1.875 1.875 0 00-.63-.848c-.279-.204-.623-.307-1.032-.307-.426 0-.781.108-1.065.324a1.975 1.975 0 00-.635.869 3.35 3.35 0 00-.209 1.211c0 .454.071.856.213 1.206.145.346.358.619.64.818.284.196.636.294 1.056.294zm7.96 1.006l1.432-8.728h.853L76.306 166h-.852zm-3.971-2.421l.136-.852h6.512l-.137.852h-6.511zm.903 2.421l1.432-8.728h.852L73.238 166h-.853zm-.392-5.455l.137-.852h6.511l-.136.852h-6.512z" fill="#fff"/></g><rect x="120.5" y="116.5" width="92" height="21" rx="3.5" stroke="#2563EB"/><g filter="url(#filter2_d)"><mask id="b" fill="#fff"><path fill-rule="evenodd" clip-rule="evenodd" d="M167.987 143.652a2 2 0 00-2.974 0l-2.963 3.293H129a4 4 0 00-4 4v22a4 4 0 004 4h75a4 4 0 004-4v-22a4 4 0 00-4-4h-33.05l-2.963-3.293z"/></mask><path fill-rule="evenodd" clip-rule="evenodd" d="M167.987 143.652a2 2 0 00-2.974 0l-2.963 3.293H129a4 4 0 00-4 4v22a4 4 0 004 4h75a4 4 0 004-4v-22a4 4 0 00-4-4h-33.05l-2.963-3.293z" fill="#1F2937"/><path d="M165.013 143.652l-.743-.669.743.669zm2.974 0l-.744.669.744-.669zm-5.937 3.293v1h.445l.298-.331-.743-.669zm8.9 0l-.743.669.298.331h.445v-1zm-5.193-2.624a.998.998 0 011.486 0l1.487-1.338a3 3 0 00-4.46 0l1.487 1.338zm-2.964 3.293l2.964-3.293-1.487-1.338-2.964 3.293 1.487 1.338zm-33.793.331h33.05v-2H129v2zm-3 3a3 3 0 013-3v-2a5 5 0 00-5 5h2zm0 22v-22h-2v22h2zm3 3a3 3 0 01-3-3h-2a5 5 0 005 5v-2zm75 0h-75v2h75v-2zm3-3a3 3 0 01-3 3v2a5 5 0 005-5h-2zm0-22v22h2v-22h-2zm-3-3a3 3 0 013 3h2a5 5 0 00-5-5v2zm-33.05 0H204v-2h-33.05v2zm-3.707-3.624l2.964 3.293 1.487-1.338-2.964-3.293-1.487 1.338z" fill="#1F2937" mask="url(#b)"/><path d="M140.415 166h-1.108l3.204-8.728h1.091l3.205 8.728h-1.108l-2.608-7.347h-.068L140.415 166zm.409-3.41h4.466v.938h-4.466v-.938zm9.865 3.546c-.614 0-1.142-.145-1.585-.435a2.834 2.834 0 01-1.023-1.197c-.239-.509-.358-1.09-.358-1.743 0-.665.122-1.251.366-1.76a2.895 2.895 0 011.032-1.197c.443-.29.96-.435 1.551-.435.46 0 .875.085 1.244.256.37.17.672.409.908.715.236.307.382.665.439 1.074h-1.006a1.561 1.561 0 00-.511-.792c-.262-.233-.614-.35-1.057-.35a1.77 1.77 0 00-1.031.307 1.99 1.99 0 00-.686.857c-.162.366-.243.797-.243 1.291 0 .506.079.946.238 1.321.162.375.39.666.682.873.296.208.642.312 1.04.312.261 0 .499-.046.712-.137a1.465 1.465 0 00.856-1.006h1.006a2.34 2.34 0 01-.422 1.045 2.362 2.362 0 01-.882.732c-.364.179-.787.269-1.27.269zm6.703 0c-.614 0-1.142-.145-1.585-.435a2.834 2.834 0 01-1.023-1.197c-.239-.509-.358-1.09-.358-1.743 0-.665.122-1.251.367-1.76a2.892 2.892 0 011.031-1.197c.443-.29.96-.435 1.551-.435.46 0 .875.085 1.244.256.37.17.672.409.908.715.236.307.382.665.439 1.074h-1.006a1.555 1.555 0 00-.511-.792c-.261-.233-.614-.35-1.057-.35a1.77 1.77 0 00-1.031.307 1.99 1.99 0 00-.686.857c-.162.366-.243.797-.243 1.291 0 .506.079.946.238 1.321.162.375.39.666.682.873.296.208.642.312 1.04.312.261 0 .499-.046.712-.137a1.465 1.465 0 00.856-1.006h1.006a2.34 2.34 0 01-.422 1.045 2.362 2.362 0 01-.882.732c-.364.179-.787.269-1.27.269zm6.703 0c-.591 0-1.109-.141-1.555-.422a2.87 2.87 0 01-1.04-1.18c-.247-.506-.371-1.097-.371-1.773 0-.682.124-1.277.371-1.786.25-.508.597-.903 1.04-1.184.446-.281.964-.422 1.555-.422s1.108.141 1.551.422a2.82 2.82 0 011.04 1.184c.25.509.375 1.104.375 1.786 0 .676-.125 1.267-.375 1.773a2.828 2.828 0 01-1.04 1.18c-.443.281-.96.422-1.551.422zm0-.903c.449 0 .818-.116 1.108-.346.29-.23.504-.532.644-.907.139-.375.208-.782.208-1.219 0-.438-.069-.845-.208-1.223a2.065 2.065 0 00-.644-.916c-.29-.233-.659-.35-1.108-.35-.449 0-.818.117-1.108.35-.29.233-.504.538-.643.916a3.514 3.514 0 00-.209 1.223c0 .437.07.844.209 1.219.139.375.353.677.643.907.29.23.659.346 1.108.346zm8.626-1.91v-3.869h1.006V166h-1.006v-1.108h-.068a2.146 2.146 0 01-.716.848c-.324.23-.733.345-1.227.345-.409 0-.773-.09-1.091-.269a1.874 1.874 0 01-.75-.818c-.182-.366-.273-.828-.273-1.385v-4.159h1.006v4.091c0 .477.133.858.4 1.142.27.284.614.426 1.032.426.25 0 .504-.064.763-.192a1.65 1.65 0 00.656-.588c.179-.264.268-.6.268-1.01zm3.854-1.261V166h-1.006v-6.546h.971v1.023h.086c.153-.333.386-.6.699-.801.312-.205.715-.307 1.21-.307.443 0 .831.091 1.163.273.333.179.591.451.776.818.184.363.277.824.277 1.38V166h-1.006v-4.091c0-.515-.133-.915-.401-1.202-.267-.29-.633-.435-1.099-.435-.321 0-.608.07-.861.209-.25.139-.447.342-.592.609-.145.268-.217.591-.217.972zm8.86-2.608v.852h-3.392v-.852h3.392zm-2.403-1.568h1.005v6.239c0 .284.041.497.124.639a.637.637 0 00.324.281c.133.045.274.068.422.068.11 0 .201-.005.272-.017l.171-.034.204.903a1.9 1.9 0 01-.285.077 2.065 2.065 0 01-.465.043c-.284 0-.562-.061-.835-.183a1.666 1.666 0 01-.673-.559c-.176-.25-.264-.565-.264-.946v-6.511zm7.171 8.114l1.432-8.728h.853L191.056 166h-.853zm-3.971-2.421l.136-.852h6.512l-.137.852h-6.511zm.903 2.421l1.432-8.728h.852L187.988 166h-.853zm-.392-5.455l.137-.852h6.511l-.136.852h-6.512z" fill="#fff"/></g><defs><filter id="filter0_d" x="0" y="0" width="348" height="154" filterUnits="userSpaceOnUse" color-interpolation-filters="sRGB"><feFlood flood-opacity="0" result="BackgroundImageFix"/><feColorMatrix in="SourceAlpha" values="0 0 0 0 0 0 0 0 0 0 0 0 0 0 0 0 0 0 127 0"/><feOffset dy="1"/><feGaussianBlur stdDeviation="1"/><feColorMatrix values="0 0 0 0 0 0 0 0 0 0 0 0 0 0 0 0 0 0 0.05 0"/><feBlend in2="BackgroundImageFix" result="effect1_dropShadow"/><feBlend in="SourceGraphic" in2="effect1_dropShadow" result="shape"/></filter><filter id="filter1_d" x="10" y="141.99" width="87" height="37.955" filterUnits="userSpaceOnUse" color-interpolation-filters="sRGB"><feFlood flood-opacity="0" result="BackgroundImageFix"/><feColorMatrix in="SourceAlpha" values="0 0 0 0 0 0 0 0 0 0 0 0 0 0 0 0 0 0 127 0"/><feOffset dy="1"/><feGaussianBlur stdDeviation="1"/><feColorMatrix values="0 0 0 0 0 0 0 0 0 0 0 0 0 0 0 0 0 0 0.05 0"/><feBlend in2="BackgroundImageFix" result="effect1_dropShadow"/><feBlend in="SourceGraphic" in2="effect1_dropShadow" result="shape"/></filter><filter id="filter2_d" x="123" y="141.99" width="87" height="37.955" filterUnits="userSpaceOnUse" color-interpolation-filters="sRGB"><feFlood flood-opacity="0" result="BackgroundImageFix"/><feColorMatrix in="SourceAlpha" values="0 0 0 0 0 0 0 0 0 0 0 0 0 0 0 0 0 0 127 0"/><feOffset dy="1"/><feGaussianBlur stdDeviation="1"/><feColorMatrix values="0 0 0 0 0 0 0 0 0 0 0 0 0 0 0 0 0 0 0.05 0"/><feBlend in2="BackgroundImageFix" result="effect1_dropShadow"/><feBlend in="SourceGraphic" in2="effect1_dropShadow" result="shape"/></filter></defs></svg>