<svg width="144" height="72" fill="none" xmlns="http://www.w3.org/2000/svg"><rect x=".5" y=".5" width="143" height="71" rx="9.5" fill="#fff"/><path d="M24.511 18.454h2.017l4.035 6.79h.17l4.034-6.79h2.017l-5.256 8.552V33h-1.761v-5.994l-5.256-8.552zm17.213 14.773c-.985 0-1.85-.234-2.593-.703-.738-.469-1.316-1.124-1.733-1.967-.412-.843-.617-1.828-.617-2.955 0-1.136.206-2.128.617-2.976.417-.847.995-1.505 1.733-1.974.744-.469 1.608-.703 2.593-.703.985 0 1.846.234 2.585.703.743.469 1.321 1.127 1.733 1.974.417.848.625 1.84.625 2.976 0 1.127-.208 2.112-.625 2.955-.412.843-.99 1.498-1.733 1.967-.739.469-1.6.703-2.585.703zm0-1.505c.748 0 1.363-.192 1.846-.576.483-.383.84-.887 1.073-1.512a5.792 5.792 0 00.348-2.032 5.85 5.85 0 00-.348-2.038 3.433 3.433 0 00-1.073-1.527c-.483-.388-1.098-.582-1.846-.582s-1.364.194-1.847.582c-.483.388-.84.897-1.072 1.527a5.851 5.851 0 00-.348 2.038c0 .73.116 1.407.348 2.032.232.625.59 1.129 1.072 1.512.483.384 1.099.576 1.847.576zM56.1 28.54v-6.45h1.676V33H56.1v-1.847h-.113a3.58 3.58 0 01-1.193 1.414c-.54.383-1.222.575-2.046.575-.682 0-1.288-.15-1.818-.447-.53-.303-.947-.758-1.25-1.364-.303-.61-.455-1.38-.455-2.308V22.09h1.677v6.818c0 .796.222 1.43.667 1.904.45.473 1.023.71 1.719.71.417 0 .84-.107 1.271-.32.436-.213.8-.54 1.094-.98.298-.44.447-1.001.447-1.683zM60.846 33V22.09h1.619v1.649h.114c.198-.54.558-.978 1.08-1.314a3.177 3.177 0 011.76-.505 17.872 17.872 0 01.882.028v1.705a4.973 4.973 0 00-.392-.063 3.839 3.839 0 00-.632-.05c-.53 0-1.003.111-1.42.334-.412.217-.739.52-.98.909a2.45 2.45 0 00-.355 1.314V33h-1.676zm13.293 0V18.454h1.762v12.983h6.761V33H74.14zm15.455.227c-.985 0-1.85-.234-2.593-.703-.738-.469-1.316-1.124-1.733-1.967-.411-.843-.617-1.828-.617-2.955 0-1.136.206-2.128.617-2.976.417-.847.995-1.505 1.733-1.974.744-.469 1.608-.703 2.593-.703.985 0 1.846.234 2.585.703.743.469 1.321 1.127 1.733 1.974.417.848.625 1.84.625 2.976 0 1.127-.208 2.112-.625 2.955-.412.843-.99 1.498-1.733 1.967-.739.469-1.6.703-2.585.703zm0-1.505c.748 0 1.364-.192 1.846-.576.483-.383.84-.887 1.073-1.512a5.79 5.79 0 00.348-2.032 5.85 5.85 0 00-.348-2.038 3.433 3.433 0 00-1.073-1.527c-.483-.388-1.098-.582-1.846-.582s-1.364.194-1.847.582c-.483.388-.84.897-1.072 1.527a5.851 5.851 0 00-.348 2.038c0 .73.116 1.407.348 2.032.232.625.59 1.129 1.072 1.512.483.384 1.099.576 1.847.576zm11.905 5.596c-.81 0-1.506-.104-2.088-.312-.583-.204-1.068-.474-1.456-.81a4.425 4.425 0 01-.916-1.065l1.335-.938c.151.199.343.426.575.682.232.26.55.485.952.675.407.194.94.29 1.598.29.881 0 1.607-.212 2.18-.638.573-.426.86-1.094.86-2.003v-2.216h-.142a9.108 9.108 0 01-.526.739c-.222.288-.544.547-.966.774-.416.222-.98.334-1.69.334-.881 0-1.671-.209-2.372-.625-.696-.417-1.248-1.023-1.655-1.819-.402-.795-.604-1.761-.604-2.897 0-1.118.197-2.09.59-2.92.393-.833.94-1.477 1.64-1.931.701-.46 1.511-.69 2.429-.69.711 0 1.274.12 1.691.356.421.232.743.497.966.795.227.294.402.535.525.725h.171V22.09h1.619v11.221c0 .938-.213 1.7-.639 2.287a3.643 3.643 0 01-1.705 1.3c-.71.28-1.501.42-2.372.42zm-.057-5.994c.673 0 1.241-.154 1.705-.462.464-.307.816-.75 1.058-1.328.241-.578.362-1.269.362-2.074 0-.786-.118-1.48-.355-2.08-.237-.602-.587-1.073-1.051-1.414-.464-.341-1.037-.512-1.719-.512-.71 0-1.302.18-1.775.54-.47.36-.822.843-1.059 1.45-.232.605-.348 1.278-.348 2.016 0 .758.119 1.428.356 2.01.241.578.596 1.032 1.065 1.364.473.326 1.06.49 1.761.49zm12.273 1.903c-.985 0-1.849-.234-2.592-.703-.739-.469-1.317-1.124-1.733-1.967-.412-.843-.618-1.828-.618-2.955 0-1.136.206-2.128.618-2.976.416-.847.994-1.505 1.733-1.974.743-.469 1.607-.703 2.592-.703.985 0 1.847.234 2.585.703.744.469 1.321 1.127 1.733 1.974.417.848.625 1.84.625 2.976 0 1.127-.208 2.112-.625 2.955-.412.843-.989 1.498-1.733 1.967-.738.469-1.6.703-2.585.703zm0-1.505c.748 0 1.364-.192 1.846-.576a3.392 3.392 0 001.073-1.512 5.792 5.792 0 00.348-2.032 5.85 5.85 0 00-.348-2.038 3.437 3.437 0 00-1.073-1.527c-.482-.388-1.098-.582-1.846-.582s-1.364.194-1.847.582c-.483.388-.84.897-1.072 1.527a5.851 5.851 0 00-.348 2.038c0 .73.116 1.407.348 2.032.232.625.589 1.129 1.072 1.512.483.384 1.099.576 1.847.576z" fill="#101010"/><path d="M31.38 50v-7.273h2.458c.57 0 1.037.103 1.4.31.364.203.634.479.809.827.175.348.263.736.263 1.164 0 .429-.088.818-.263 1.169-.173.35-.44.63-.803.838-.362.206-.826.309-1.392.309h-1.761v-.782h1.733c.39 0 .704-.067.94-.202.238-.135.41-.317.516-.547.109-.232.163-.493.163-.785 0-.29-.054-.551-.163-.78-.107-.23-.28-.41-.519-.54-.239-.133-.556-.2-.951-.2h-1.55V50h-.88zm7.348 0v-7.273h.881v6.492h3.38V50h-4.26zm7.383 0h-.924l2.67-7.273h.91L51.437 50h-.923l-2.173-6.122h-.057L46.11 50zm.34-2.84h3.722v.78h-3.721v-.78zM59.082 45H58.2a1.83 1.83 0 00-.742-1.15 1.992 1.992 0 00-.608-.299 2.424 2.424 0 00-.696-.1c-.44 0-.839.112-1.196.334-.355.223-.638.55-.849.984-.208.433-.313.965-.313 1.595s.105 1.16.313 1.594c.21.433.494.761.849.984.357.222.756.334 1.197.334.241 0 .473-.034.695-.1.223-.066.425-.164.608-.295a1.871 1.871 0 00.742-1.154h.88a2.933 2.933 0 01-.362.998 2.726 2.726 0 01-1.53 1.215c-.322.106-.667.16-1.034.16-.62 0-1.171-.152-1.654-.455-.483-.303-.863-.734-1.14-1.293-.277-.558-.416-1.221-.416-1.988 0-.767.139-1.43.416-1.989.277-.559.657-.99 1.14-1.293.483-.303 1.034-.454 1.654-.454.367 0 .712.053 1.034.16.324.106.617.262.877.468.26.204.478.453.653.746.176.291.296.624.363.998zm2.423 5v-7.273h4.389v.782h-3.509v2.457h3.282v.781h-3.282v2.472h3.566V50h-4.446zm6.976 0v-7.273h.881v3.239h3.878v-3.239h.88V50h-.88v-3.253h-3.88V50h-.88zm14.539-3.636c0 .767-.139 1.43-.416 1.988-.276.559-.656.99-1.14 1.293-.482.303-1.034.454-1.654.454-.62 0-1.172-.151-1.655-.454-.483-.303-.863-.734-1.14-1.293-.277-.558-.415-1.221-.415-1.988 0-.767.138-1.43.415-1.989.277-.559.657-.99 1.14-1.293.483-.303 1.035-.454 1.655-.454.62 0 1.172.151 1.655.454.483.303.862.734 1.14 1.293.276.559.415 1.222.415 1.989zm-.852 0c0-.63-.106-1.162-.316-1.595-.209-.433-.492-.761-.849-.983a2.201 2.201 0 00-1.193-.334c-.44 0-.84.111-1.197.334-.355.222-.638.55-.849.983-.208.433-.312.965-.312 1.595s.104 1.16.312 1.594c.211.433.494.761.849.984.358.222.756.334 1.197.334.44 0 .838-.112 1.193-.334.357-.223.64-.55.849-.984.21-.433.316-.965.316-1.594zM85.5 50v-7.273h.88v6.492h3.381V50H85.5zm8.87 0h-2.245v-7.273h2.344c.705 0 1.309.146 1.81.437a2.86 2.86 0 011.155 1.246c.267.54.401 1.187.401 1.94 0 .757-.135 1.41-.405 1.956a2.88 2.88 0 01-1.179 1.257c-.516.291-1.143.437-1.882.437zm-1.365-.781h1.307c.602 0 1.1-.116 1.495-.348a2.15 2.15 0 00.885-.991c.194-.428.29-.939.29-1.53 0-.588-.095-1.093-.287-1.517a2.122 2.122 0 00-.86-.98c-.38-.23-.855-.345-1.423-.345h-1.407v5.71zm7.307.781v-7.273h4.39v.782h-3.509v2.457h3.281v.781h-3.281v2.472h3.565V50h-4.446zm6.977 0v-7.273h2.457c.568 0 1.035.097 1.399.292.365.191.635.455.81.791.175.337.263.719.263 1.147 0 .429-.088.809-.263 1.14a1.852 1.852 0 01-.806.782c-.362.187-.825.28-1.389.28h-1.988v-.795h1.96c.388 0 .701-.057.938-.17.239-.114.411-.275.518-.484.109-.21.163-.461.163-.753 0-.29-.054-.545-.163-.763a1.115 1.115 0 00-.522-.504c-.239-.121-.555-.181-.948-.181h-1.548V50h-.881zm3.423-3.267l1.79 3.267h-1.023l-1.761-3.267h.994z" fill="#868686"/><rect x=".5" y=".5" width="143" height="71" rx="9.5" stroke="#000"/></svg>