<svg width="19" height="18" fill="none" xmlns="http://www.w3.org/2000/svg"><path fill-rule="evenodd" clip-rule="evenodd" d="M9.832 1.125C7.29 3.299 3.168 3.43 3.168 3.43v5.796c0 3.557 6.664 7.649 6.664 7.649s6.663-4.092 6.663-7.649V3.43s-4.121-.13-6.663-2.305zM8.197 7.981l1.187.69 2.405-1.4-3.537-2.06a.111.111 0 00-.167.098v2.477c0 .08.042.155.112.195zm-.112 2.123c0-.081.042-.155.112-.195l4.058-2.361v2.737a.118.118 0 01-.059.097l-3.943 2.296a.111.111 0 01-.168-.098v-2.476z" fill="#0089CF"/></svg>