<svg width="65" height="18" fill="none" xmlns="http://www.w3.org/2000/svg"><path d="M28.618 7.103a2.584 2.584 0 00-1.05-.752 4.381 4.381 0 00-1.642-.273 12.175 12.175 0 00-1.903.14c-.47.07-.936.17-1.395.295v7.82h1.854v-6.52c.125-.021.313-.047.57-.077.242-.029.488-.044.738-.047.275-.008.547.036.804.129.213.08.393.228.522.416.14.225.235.479.275.74.063.365.088.734.085 1.106v4.242h1.858V9.785a6.688 6.688 0 00-.162-1.503 2.954 2.954 0 00-.554-1.18zM1 5.345h3.258v8.984h1.939V5.345h3.257v-1.68H1v1.68zm54.829.821a7.809 7.809 0 00-.492-.062 4.781 4.781 0 00-.426-.022 8.56 8.56 0 00-1.789.177c-.455.095-.903.22-1.344.38v7.697h1.855V7.862c.157-.048.32-.081.484-.107a3.54 3.54 0 01.654-.063c.316-.004.632.026.944.085.217.04.43.096.639.162l.32-1.58a2.918 2.918 0 00-.368-.1 6.436 6.436 0 00-.477-.093zm-42.231 0a7.818 7.818 0 00-.492-.062 4.783 4.783 0 00-.426-.022 8.56 8.56 0 00-1.789.177c-.455.095-.903.22-1.344.38v7.697h1.855V7.862a3.58 3.58 0 01.485-.107 3.54 3.54 0 01.653-.063c.316-.004.632.026.944.085.217.04.43.096.64.162l.319-1.58a2.915 2.915 0 00-.368-.1 6.824 6.824 0 00-.477-.093zm6.962.782a2.457 2.457 0 00-.99-.641 4.39 4.39 0 00-1.51-.225 7.705 7.705 0 00-1.396.121 7.422 7.422 0 00-.999.24l-.044.015.239 1.57.062-.023c.272-.092.555-.162.834-.202.37-.063.753-.092 1.131-.089.253-.007.503.03.742.115.356.129.62.427.712.796.048.187.074.386.074.582v.228a6.187 6.187 0 00-.636-.11 5.13 5.13 0 00-.628-.037h-.018c-.408 0-.815.044-1.212.125a3.11 3.11 0 00-1.046.42 2.2 2.2 0 00-.72.774 2.31 2.31 0 00-.265 1.157c-.014.41.063.822.228 1.202.147.313.374.59.654.796.304.213.639.36 1.002.442.423.092.852.14 1.282.136h.095c.6 0 1.205-.044 1.8-.129.57-.085.98-.155 1.252-.217l.044-.011V9.218a4.812 4.812 0 00-.157-1.272 2.409 2.409 0 00-.53-.998zm-1.149 3.858v1.909a6.56 6.56 0 01-1.2.081h-.056c-.415-.007-.745-.088-.992-.236-.245-.15-.374-.435-.374-.84a.878.878 0 01.14-.512.962.962 0 01.37-.317c.17-.081.346-.133.533-.159a4.096 4.096 0 011.58.074zm30.305-3.858a2.457 2.457 0 00-.992-.641 4.39 4.39 0 00-1.51-.225 7.772 7.772 0 00-1.399.118 7.24 7.24 0 00-.995.24l-.044.014.235 1.57.063-.022c.271-.092.55-.162.833-.203a6.383 6.383 0 011.131-.088c.254-.008.504.03.742.114.356.129.621.427.713.796.047.188.073.387.073.582v.229a6.185 6.185 0 00-.635-.111 5.214 5.214 0 00-.628-.037h-.008c-.41 0-.826.044-1.226.13a3.11 3.11 0 00-1.047.42 2.2 2.2 0 00-.72.773 2.31 2.31 0 00-.264 1.157c-.011.41.066.826.235 1.202.147.313.375.59.654.796.304.213.642.36 1.002.442.419.092.852.14 1.282.136h.096c.598 0 1.204-.044 1.8-.129.568-.085.98-.155 1.252-.217l.044-.011V9.218a4.785 4.785 0 00-.158-1.272c-.1-.368-.28-.714-.53-.998zm-1.153 3.858v1.909a6.56 6.56 0 01-1.201.081h-.056c-.414-.007-.745-.088-.991-.236-.246-.15-.375-.435-.375-.84a.878.878 0 01.14-.512.962.962 0 01.37-.317c.17-.081.346-.133.533-.159a4.097 4.097 0 011.201 0c.125.015.254.04.379.074zm-12.413.306a1.832 1.832 0 00-.433-.678 2.878 2.878 0 00-.742-.524 10.832 10.832 0 00-1.083-.471 6.32 6.32 0 01-.643-.258 2.27 2.27 0 01-.419-.247.722.722 0 01-.209-.25.793.793 0 01-.062-.321.557.557 0 01.308-.52 1.82 1.82 0 01.863-.18 4.351 4.351 0 011.792.353l.06.026.348-1.566-.044-.015a6.373 6.373 0 00-.936-.247 6.496 6.496 0 00-1.308-.125c-.903 0-1.627.214-2.156.63-.532.42-.8.999-.8 1.725a2.27 2.27 0 00.172.95c.11.255.272.48.478.664.213.191.455.35.712.475.29.144.595.269.896.38.525.195.904.38 1.131.545.203.129.32.35.32.593v.004a.555.555 0 01-.294.534c-.206.11-.547.166-1.006.166h-.03c-.41 0-.822-.052-1.219-.155a8.813 8.813 0 01-.944-.306l-.058-.025-.33 1.606.043.015c.287.107.58.203.878.276.485.115.984.174 1.484.174.055 0 .11 0 .165-.004h.004c1.017 0 1.81-.195 2.365-.582.558-.39.84-.973.84-1.729 0-.313-.043-.619-.142-.913zm6.7 1.249a4.19 4.19 0 01-.76.221c-.29.06-.592.089-.893.089-.797 0-1.37-.221-1.7-.653-.335-.438-.507-1.043-.507-1.798 0-.785.18-1.4.536-1.828.352-.423.874-.64 1.553-.64.29 0 .566.029.823.088s.492.132.694.22l.059.026.411-1.577-.044-.018a5.47 5.47 0 00-2.09-.406c-.595 0-1.142.107-1.62.317a3.58 3.58 0 00-1.222.874c-.334.368-.595.81-.772 1.315a4.827 4.827 0 00-.268 1.63c0 .585.081 1.138.24 1.639.157.505.403.947.726 1.312.324.365.739.656 1.234.858.492.207 1.08.31 1.745.31.426 0 .845-.04 1.245-.118.4-.081.709-.17.907-.273l.037-.018-.268-1.592-.066.022zm21.27 1.429v-.552l.004-10.771-1.9.316V6.48a4.924 4.924 0 00-.668-.262 3.333 3.333 0 00-1.006-.136 3.508 3.508 0 00-1.487.294 3.045 3.045 0 00-1.099.844 3.672 3.672 0 00-.683 1.305 5.735 5.735 0 00-.231 1.691 5.025 5.025 0 00.276 1.71c.172.486.44.925.796 1.3a3.49 3.49 0 001.253.826c.51.192 1.043.288 1.586.288h.078a10.913 10.913 0 003.04-.431l.04-.011v-.107zm-1.899-1.237a5.966 5.966 0 01-1.175.107c-.64 0-1.15-.222-1.51-.656-.356-.428-.54-1.029-.547-1.78h.004v-.056c0-.748.147-1.348.437-1.783.29-.428.753-.645 1.385-.645h.014a2.4 2.4 0 01.804.14c.21.07.408.166.592.284v4.389h-.004z" fill="#090C38"/></svg>