<svg width="86" height="86" fill="none" xmlns="http://www.w3.org/2000/svg"><g clip-path="url(#clip0)"><path d="M86 34.9v41.976c0 .875-.23 1.697-.637 2.407a4.855 4.855 0 01-1.836 1.834 4.843 4.843 0 01-2.401.633H4.874c-.873 0-1.692-.23-2.401-.633a4.854 4.854 0 01-1.836-1.834A4.824 4.824 0 010 76.876V34.9a4.85 4.85 0 011.466-3.483h83.068A4.854 4.854 0 0186 34.9z" fill="#0593FC"/><path d="M85.363 79.282a4.853 4.853 0 01-1.836 1.835L58.541 56.163a1.298 1.298 0 111.834-1.836l24.988 24.954zM27.46 56.164L2.473 81.117a4.853 4.853 0 01-1.836-1.835L25.625 54.33a1.298 1.298 0 111.834 1.835z" fill="#0181FA"/><path d="M84.534 31.417h-3.909a4.854 4.854 0 011.466 3.483v41.976a4.874 4.874 0 01-4.875 4.874h3.91A4.874 4.874 0 0086 76.876V34.9a4.85 4.85 0 00-1.466-3.483z" fill="#0181FA"/><path d="M84.534 31.418L49.617 64.596a9.606 9.606 0 01-13.234 0L1.466 31.418a4.852 4.852 0 013.409-1.392h76.25c1.328 0 2.53.53 3.41 1.392z" fill="#EAF6FF"/><path d="M59.74 30.026c-2.108 9.464-10.552 16.538-20.65 16.538-10.098 0-18.543-7.074-20.65-16.538h41.3zm21.386 0h-3.91c.596 0 1.166.107 1.693.302.95.352 1.186 1.593.451 2.291L45.708 64.596a9.565 9.565 0 01-4.663 2.44 9.597 9.597 0 008.572-2.44l34.917-33.178a4.853 4.853 0 00-3.409-1.392z" fill="#C8EFFE"/><path d="M44.517 74.32h-3.034a3.078 3.078 0 01-3.078-3.078v-9.926c0-1.7 1.378-3.078 3.078-3.078h3.034c1.7 0 3.078 1.378 3.078 3.078v9.926c0 1.7-1.378 3.078-3.078 3.078z" fill="#99E6FC"/><path d="M47.594 61.317v9.925c0 1.7-1.377 3.078-3.076 3.078H42.31a3.067 3.067 0 001.374-2.559v-10.79a3.066 3.066 0 00-1.668-2.733h2.5c1.7 0 3.077 1.378 3.077 3.079z" fill="#62DBFB"/><path d="M43 46.563c11.685 0 21.157-9.472 21.157-21.157S54.685 4.25 43 4.25s-21.157 9.472-21.157 21.157S31.315 46.563 43 46.563z" fill="#4FC123"/><path d="M43 4.249c-.66 0-1.31.032-1.955.09 10.768.987 19.202 10.042 19.202 21.067 0 11.026-8.434 20.08-19.202 21.066.644.06 1.296.091 1.955.091 11.685 0 21.157-9.472 21.157-21.157S54.685 4.25 43 4.25z" fill="#47A920"/><path d="M39.942 24.897l-3.026-3.026a1.977 1.977 0 00-2.795 0l-2.624 2.623a1.977 1.977 0 000 2.796l6.722 6.72a3.567 3.567 0 005.044 0l13.143-13.142a1.977 1.977 0 000-2.796l-2.43-2.43a1.977 1.977 0 00-2.795 0l-9.255 9.255a1.403 1.403 0 01-1.984 0z" fill="#D1F19E"/><path d="M56.406 18.072l-2.43-2.43a1.977 1.977 0 00-2.795 0l-.808.808c.374.072.732.253 1.022.543l1.102 1.08a1.977 1.977 0 010 2.795L41.045 31.943a3.565 3.565 0 01-4.368.526l1.542 1.542a3.567 3.567 0 005.044 0l13.143-13.143a1.977 1.977 0 000-2.796z" fill="#BBEC6C"/></g><defs><clipPath id="clip0"><path fill="#fff" d="M0 0h86v86H0z"/></clipPath></defs></svg>