<svg width="304" height="589" fill="none" xmlns="http://www.w3.org/2000/svg"><g filter="url(#filter0_d)"><mask id="a" fill="#fff"><path fill-rule="evenodd" clip-rule="evenodd" d="M2 2a1 1 0 011-1h298a1 1 0 011 1v583a1 1 0 01-1 1h-9.697c-.553 0-.993-.45-1.071-.997a7.072 7.072 0 00-14.002 0c-.078.547-.518.997-1.071.997h-4.061c-.553 0-.993-.45-1.071-.997a7.073 7.073 0 00-14.002 0c-.078.547-.518.997-1.07.997h-4.062c-.552 0-.993-.45-1.07-.997a7.073 7.073 0 00-14.003 0c-.078.547-.518.997-1.07.997h-4.062c-.552 0-.993-.45-1.07-.997a7.073 7.073 0 00-14.003 0c-.078.547-.518.997-1.07.997h-4.062c-.552 0-.993-.45-1.07-.997a7.073 7.073 0 00-14.003 0c-.077.547-.518.997-1.07.997h-4.062c-.552 0-.992-.45-1.07-.997a7.073 7.073 0 00-14.003 0c-.077.547-.518.997-1.07.997h-4.062c-.552 0-.992-.45-1.07-.997a7.073 7.073 0 00-14.003 0c-.077.547-.518.997-1.07.997h-4.061c-.553 0-.993-.45-1.071-.997a7.072 7.072 0 00-14.002 0c-.078.547-.518.997-1.071.997h-4.061c-.553 0-.993-.45-1.071-.997a7.073 7.073 0 00-14.002 0c-.078.547-.518.997-1.07.997h-4.062c-.552 0-.993-.45-1.07-.997a7.073 7.073 0 00-14.003 0c-.078.547-.518.997-1.07.997h-4.062c-.552 0-.993-.45-1.07-.997a7.073 7.073 0 00-14.003 0c-.078.547-.518.997-1.07.997h-4.062c-.552 0-.993-.45-1.07-.997a7.073 7.073 0 00-14.003 0c-.077.547-.518.997-1.07.997h-4.062c-.552 0-.992-.45-1.07-.997a7.073 7.073 0 00-14.003 0c-.077.547-.518.997-1.07.997H28.64c-.552 0-.992-.45-1.07-.997a7.073 7.073 0 00-14.003 0c-.077.547-.517.997-1.07.997H3a1 1 0 01-1-1V2z"/></mask><path fill-rule="evenodd" clip-rule="evenodd" d="M2 2a1 1 0 011-1h298a1 1 0 011 1v583a1 1 0 01-1 1h-9.697c-.553 0-.993-.45-1.071-.997a7.072 7.072 0 00-14.002 0c-.078.547-.518.997-1.071.997h-4.061c-.553 0-.993-.45-1.071-.997a7.073 7.073 0 00-14.002 0c-.078.547-.518.997-1.07.997h-4.062c-.552 0-.993-.45-1.07-.997a7.073 7.073 0 00-14.003 0c-.078.547-.518.997-1.07.997h-4.062c-.552 0-.993-.45-1.07-.997a7.073 7.073 0 00-14.003 0c-.078.547-.518.997-1.07.997h-4.062c-.552 0-.993-.45-1.07-.997a7.073 7.073 0 00-14.003 0c-.077.547-.518.997-1.07.997h-4.062c-.552 0-.992-.45-1.07-.997a7.073 7.073 0 00-14.003 0c-.077.547-.518.997-1.07.997h-4.062c-.552 0-.992-.45-1.07-.997a7.073 7.073 0 00-14.003 0c-.077.547-.518.997-1.07.997h-4.061c-.553 0-.993-.45-1.071-.997a7.072 7.072 0 00-14.002 0c-.078.547-.518.997-1.071.997h-4.061c-.553 0-.993-.45-1.071-.997a7.073 7.073 0 00-14.002 0c-.078.547-.518.997-1.07.997h-4.062c-.552 0-.993-.45-1.07-.997a7.073 7.073 0 00-14.003 0c-.078.547-.518.997-1.07.997h-4.062c-.552 0-.993-.45-1.07-.997a7.073 7.073 0 00-14.003 0c-.078.547-.518.997-1.07.997h-4.062c-.552 0-.993-.45-1.07-.997a7.073 7.073 0 00-14.003 0c-.077.547-.518.997-1.07.997h-4.062c-.552 0-.992-.45-1.07-.997a7.073 7.073 0 00-14.003 0c-.077.547-.518.997-1.07.997H28.64c-.552 0-.992-.45-1.07-.997a7.073 7.073 0 00-14.003 0c-.077.547-.517.997-1.07.997H3a1 1 0 01-1-1V2z" fill="#fff"/><path d="M288.231 581l.708-.707-.708.707zm-20.204 0l.707-.707-.707.707zm-20.205 0l.707-.707-.707.707zm-10.001 0l-.707-.707.707.707zm-10.204 0l.707-.707-.707.707zm-10.001 0l-.707-.707.707.707zm-10.204 0l.707-.707-.707.707zm-10.001 0l-.707-.707.707.707zm-10.204 0l.707-.707-.707.707zm-10.001 0l-.707-.707.707.707zm-10.204 0l.707-.707-.707.707zm-10.001 0l-.707-.707.707.707zm-10.204 0l.708-.707-.708.707zm-10 0l-.708-.707.708.707zm-10.204 0l.707-.707-.707.707zm-10.001 0l-.707-.707.707.707zm-10.204 0l.707-.707-.707.707zm-10.001 0l-.707-.707.707.707zm-10.204 0l.707-.707-.707.707zm-10.001 0l-.707-.707.707.707zm-10.204 0l.707-.707-.707.707zm-10 0l-.708-.707.707.707zm-10.205 0l.707-.707-.707.707zm-10 0l-.708-.707.707.707zm-10.205 0l.707-.707-.707.707zm-10 0l-.708-.707.707.707zm12.001 4.003l.99-.14-.99.14zm20.205 0l.99-.14-.99.14zm26.407 0l.99.141-.99-.141zm14.003 0l.99-.14-.99.14zm20.205 0l.99-.14-.99.14zm20.204 0l.991-.14-.991.14zm20.205 0l-.99.141.99-.141zm20.205 0l-.99.141.99-.141zm26.407 0l.99.141-.99-.141zm-101.024 0l.99.141-.99-.141zm115.027 0l-.99.141.99-.141zm-94.822 0l.99.141-.99-.141zm115.027 0l-.99.141.99-.141zm26.407 0l-.99-.14.99.14zm-40.41 0l.99.141-.99-.141zm-60.615 0l.99.141-.99-.141zm-121.229 0l.99.141-.99-.141zm236.256 0l-.99.141.99-.141zm-34.207 0l.99.141-.99-.141zm-60.615 0l.99.141-.99-.141zm-121.229 0l.99.141-.99-.141zm236.256 0l-.99.141.99-.141zm-14.002 0l-.991-.14.991.14zm-141.434 0l.99.141-.99-.141zm-121.23 0l-.99-.14.99.14zm236.257 0l-.99.141.99-.141zm-60.615 0l-.99.141.99-.141zm-121.23 0l-.99.141.99-.141zM301 0H3v2h298V0zm2 585V2h-2v583h2zm-11.697 2H301v-2h-9.697v2zm-3.779-5.292a6.037 6.037 0 011.718 3.436l1.98-.281a8.04 8.04 0 00-2.283-4.57l-1.415 1.415zm-8.586 0a6.07 6.07 0 018.586 0l1.415-1.415a8.073 8.073 0 00-11.416 0l1.415 1.415zm-1.718 3.436a6.037 6.037 0 011.718-3.436l-1.415-1.415a8.04 8.04 0 00-2.284 4.57l1.981.281zM271.098 587h4.061v-2h-4.061v2zm-3.779-5.292a6.037 6.037 0 011.718 3.436l1.981-.281a8.04 8.04 0 00-2.284-4.57l-1.415 1.415zm-8.586 0a6.07 6.07 0 018.586 0l1.415-1.415a8.072 8.072 0 00-11.415 0l1.414 1.415zm-1.718 3.436a6.037 6.037 0 011.718-3.436l-1.414-1.415a8.035 8.035 0 00-2.284 4.57l1.98.281zM250.893 587h4.062v-2h-4.062v2zm-3.778-5.292a6.043 6.043 0 011.718 3.436l1.98-.281a8.04 8.04 0 00-2.284-4.57l-1.414 1.415zm-8.587 0a6.07 6.07 0 018.587 0l1.414-1.415a8.072 8.072 0 00-11.415 0l1.414 1.415zm-1.718 3.436a6.037 6.037 0 011.718-3.436l-1.414-1.415a8.04 8.04 0 00-2.284 4.57l1.98.281zM230.688 587h4.062v-2h-4.062v2zm-3.778-5.292a6.037 6.037 0 011.718 3.436l1.98-.281a8.04 8.04 0 00-2.284-4.57l-1.414 1.415zm-8.587 0a6.07 6.07 0 018.587 0l1.414-1.415a8.072 8.072 0 00-11.415 0l1.414 1.415zm-1.718 3.436a6.037 6.037 0 011.718-3.436l-1.414-1.415a8.04 8.04 0 00-2.284 4.57l1.98.281zM210.483 587h4.062v-2h-4.062v2zm-3.778-5.292a6.037 6.037 0 011.718 3.436l1.98-.281a8.04 8.04 0 00-2.284-4.57l-1.414 1.415zm-8.587 0a6.07 6.07 0 018.587 0l1.414-1.415a8.072 8.072 0 00-11.415 0l1.414 1.415zm-1.718 3.436a6.037 6.037 0 011.718-3.436l-1.414-1.415a8.04 8.04 0 00-2.284 4.57l1.98.281zM190.278 587h4.062v-2h-4.062v2zm-3.778-5.292a6.037 6.037 0 011.718 3.436l1.98-.281a8.04 8.04 0 00-2.284-4.57l-1.414 1.415zm-8.587 0a6.07 6.07 0 018.587 0l1.414-1.415a8.072 8.072 0 00-11.415 0l1.414 1.415zm-1.718 3.436a6.043 6.043 0 011.718-3.436l-1.414-1.415a8.04 8.04 0 00-2.284 4.57l1.98.281zM170.073 587h4.062v-2h-4.062v2zm-3.778-5.292a6.037 6.037 0 011.718 3.436l1.98-.281a8.04 8.04 0 00-2.284-4.57l-1.414 1.415zm-8.587 0a6.07 6.07 0 018.587 0l1.414-1.415a8.072 8.072 0 00-11.415 0l1.414 1.415zm-1.718 3.436a6.043 6.043 0 011.718-3.436l-1.414-1.415a8.04 8.04 0 00-2.284 4.57l1.98.281zM149.869 587h4.061v-2h-4.061v2zm-3.779-5.292a6.037 6.037 0 011.718 3.436l1.98-.281a8.04 8.04 0 00-2.283-4.57l-1.415 1.415zm-8.586 0a6.07 6.07 0 018.586 0l1.415-1.415a8.073 8.073 0 00-11.416 0l1.415 1.415zm-1.718 3.436a6.037 6.037 0 011.718-3.436l-1.415-1.415a8.04 8.04 0 00-2.284 4.57l1.981.281zM129.664 587h4.061v-2h-4.061v2zm-3.779-5.292a6.037 6.037 0 011.718 3.436l1.981-.281a8.04 8.04 0 00-2.284-4.57l-1.415 1.415zm-8.586 0a6.07 6.07 0 018.586 0l1.415-1.415a8.072 8.072 0 00-11.415 0l1.414 1.415zm-1.718 3.436a6.037 6.037 0 011.718-3.436l-1.414-1.415a8.035 8.035 0 00-2.284 4.57l1.98.281zM109.459 587h4.062v-2h-4.062v2zm-3.778-5.292a6.043 6.043 0 011.718 3.436l1.98-.281a8.04 8.04 0 00-2.284-4.57l-1.414 1.415zm-8.587 0a6.07 6.07 0 018.587 0l1.414-1.415a8.072 8.072 0 00-11.415 0l1.414 1.415zm-1.718 3.436a6.038 6.038 0 011.718-3.436l-1.414-1.415a8.04 8.04 0 00-2.284 4.57l1.98.281zM89.254 587h4.062v-2h-4.062v2zm-3.778-5.292a6.038 6.038 0 011.718 3.436l1.98-.281a8.04 8.04 0 00-2.284-4.57l-1.414 1.415zm-8.587 0a6.07 6.07 0 018.587 0l1.414-1.415a8.072 8.072 0 00-11.415 0l1.414 1.415zm-1.718 3.436a6.038 6.038 0 011.718-3.436l-1.414-1.415a8.04 8.04 0 00-2.284 4.57l1.98.281zM69.05 587h4.062v-2H69.05v2zm-3.778-5.292a6.038 6.038 0 011.718 3.436l1.98-.281a8.04 8.04 0 00-2.284-4.57l-1.414 1.415zm-8.587 0a6.07 6.07 0 018.587 0l1.414-1.415a8.072 8.072 0 00-11.415 0l1.414 1.415zm-1.718 3.436a6.038 6.038 0 011.718-3.436l-1.414-1.415a8.04 8.04 0 00-2.284 4.57l1.98.281zM48.844 587h4.062v-2h-4.062v2zm-3.778-5.292a6.038 6.038 0 011.718 3.436l1.98-.281a8.04 8.04 0 00-2.284-4.57l-1.414 1.415zm-8.587 0a6.07 6.07 0 018.587 0l1.414-1.415a8.072 8.072 0 00-11.415 0l1.414 1.415zm-1.718 3.436a6.038 6.038 0 011.718-3.436l-1.414-1.415a8.04 8.04 0 00-2.284 4.57l1.98.281zM28.64 587h4.062v-2H28.64v2zm-3.778-5.292a6.038 6.038 0 011.718 3.436l1.98-.281a8.04 8.04 0 00-2.284-4.57l-1.414 1.415zm-8.587 0a6.07 6.07 0 018.587 0l1.414-1.415a8.072 8.072 0 00-11.415 0l1.414 1.415zm-1.718 3.436a6.038 6.038 0 011.719-3.436l-1.415-1.415a8.04 8.04 0 00-2.284 4.57l1.98.281zM3 587h9.496v-2H3v2zM1 2v583h2V2H1zm2 583H1a2 2 0 002 2v-2zm25.64 0h-.001a.08.08 0 01-.021-.016.212.212 0 01-.059-.121l-1.98.281c.135.952.927 1.856 2.06 1.856v-2zm20.204 0a.08.08 0 01-.021-.016.211.211 0 01-.059-.121l-1.98.281c.135.952.926 1.856 2.06 1.856v-2zm24.347-.137a.211.211 0 01-.059.121c-.011.011-.019.015-.02.016h-.001v2c1.134 0 1.925-.904 2.06-1.856l-1.98-.281zm16.063.137c-.002-.001-.01-.005-.022-.016a.211.211 0 01-.058-.121l-1.98.281c.135.952.926 1.856 2.06 1.856v-2zm20.205 0h-.001a.104.104 0 01-.021-.016.209.209 0 01-.058-.121l-1.98.281c.134.952.926 1.856 2.06 1.856v-2zm20.205 0h-.001a.08.08 0 01-.021-.016.209.209 0 01-.058-.121l-1.981.281c.135.952.927 1.856 2.061 1.856v-2zm20.205 0h-.001a.08.08 0 01-.021-.016.215.215 0 01-.059-.121l-1.98.281c.135.952.927 1.856 2.061 1.856v-2zm20.204 0s.001 0 0 0a.08.08 0 01-.021-.016.215.215 0 01-.059-.121l-1.98.281c.135.952.927 1.856 2.06 1.856v-2zm24.347-.137a.21.21 0 01-.059.121.08.08 0 01-.021.016c-.001 0 0 0 0 0v2c1.134 0 1.925-.904 2.06-1.856l-1.98-.281zm-101.024 0a.211.211 0 01-.059.121c-.011.011-.019.015-.02.016h-.001v2c1.133 0 1.925-.904 2.06-1.856l-1.98-.281zm117.087.137s.001 0 0 0a.08.08 0 01-.021-.016.21.21 0 01-.059-.121l-1.98.281c.135.952.926 1.856 2.06 1.856v-2zm-96.882-.137a.215.215 0 01-.059.121.08.08 0 01-.021.016c-.001 0 0 0 0 0v2c1.133 0 1.925-.904 2.06-1.856l-1.98-.281zm117.087.137a.096.096 0 01-.022-.016.215.215 0 01-.058-.121l-1.98.281c.135.952.926 1.856 2.06 1.856v-2zm24.347-.137a.215.215 0 01-.059.121.08.08 0 01-.021.016c-.001 0 0 0 0 0v2c1.133 0 1.925-.904 2.06-1.856l-1.98-.281zm-40.41 0a.21.21 0 01-.059.121.08.08 0 01-.021.016c-.001 0 0 0 0 0v2c1.134 0 1.925-.904 2.06-1.856l-1.98-.281zm-60.615 0a.209.209 0 01-.058.121.104.104 0 01-.021.016h-.001v2c1.134 0 1.926-.904 2.06-1.856l-1.98-.281zm-121.229 0a.211.211 0 01-.058.121c-.012.011-.02.015-.021.016-.001 0 0 0 0 0v2c1.133 0 1.924-.904 2.06-1.856l-1.98-.281zm238.317.137h-.001a.08.08 0 01-.021-.016.209.209 0 01-.058-.121l-1.981.281c.135.952.927 1.856 2.061 1.856v-2zm-36.268-.137a.215.215 0 01-.059.121.08.08 0 01-.021.016c-.001 0 0 0 0 0v2c1.133 0 1.925-.904 2.06-1.856l-1.98-.281zm-60.615 0a.209.209 0 01-.058.121c-.012.011-.02.015-.021.016h-.001v2c1.134 0 1.925-.904 2.06-1.856l-1.98-.281zm-121.229 0a.212.212 0 01-.058.121c-.012.011-.02.015-.022.016v2c1.134 0 1.925-.904 2.06-1.856l-1.98-.281zm238.317.137h-.001a.08.08 0 01-.021-.016.215.215 0 01-.059-.121l-1.98.281c.135.952.927 1.856 2.061 1.856v-2zm9.697 0v2a2 2 0 002-2h-2zm-25.761-.137a.209.209 0 01-.058.121c-.011.011-.019.015-.021.016h-.001v2c1.134 0 1.926-.904 2.061-1.856l-1.981-.281zM3 0a2 2 0 00-2 2h2V0zm130.805 584.863a.209.209 0 01-.058.121.08.08 0 01-.021.016h-.001v2c1.134 0 1.926-.904 2.061-1.856l-1.981-.281zm-121.229 0a.212.212 0 01-.058.121c-.012.011-.02.015-.021.016-.001 0 0 0 0 0v2c1.133 0 1.925-.904 2.06-1.856l-1.98-.281zm238.317.137h-.001a.104.104 0 01-.021-.016.209.209 0 01-.058-.121l-1.98.281c.134.952.926 1.856 2.06 1.856v-2zm-60.615 0s.001 0 0 0a.08.08 0 01-.021-.016.215.215 0 01-.059-.121l-1.98.281c.135.952.926 1.856 2.06 1.856v-2zm-121.229 0a.08.08 0 01-.021-.016.212.212 0 01-.059-.121l-1.98.281c.135.952.926 1.856 2.06 1.856v-2zM301 2h2a2 2 0 00-2-2v2z" fill="#D1D5DB" mask="url(#a)"/></g><defs><filter id="filter0_d" x="0" y="0" width="304" height="589" filterUnits="userSpaceOnUse" color-interpolation-filters="sRGB"><feFlood flood-opacity="0" result="BackgroundImageFix"/><feColorMatrix in="SourceAlpha" values="0 0 0 0 0 0 0 0 0 0 0 0 0 0 0 0 0 0 127 0"/><feOffset dy="1"/><feGaussianBlur stdDeviation="1"/><feColorMatrix values="0 0 0 0 0 0 0 0 0 0 0 0 0 0 0 0 0 0 0.05 0"/><feBlend in2="BackgroundImageFix" result="effect1_dropShadow"/><feBlend in="SourceGraphic" in2="effect1_dropShadow" result="shape"/></filter></defs></svg>