<svg width="20" height="16" fill="none" xmlns="http://www.w3.org/2000/svg"><mask id="a" style="mask-type:alpha" maskUnits="userSpaceOnUse" x="0" y="0" width="20" height="16"><path fill="#fff" d="M0 .5h20v15H0z"/></mask><g mask="url(#a)"><path fill-rule="evenodd" clip-rule="evenodd" d="M0 .5h20v15H0V.5z" fill="#2E42A5"/><path fill="#2E42A5" d="M0 .5h11v9H0z"/><mask id="b" style="mask-type:alpha" maskUnits="userSpaceOnUse" x="0" y="0" width="11" height="10"><path fill="#fff" d="M0 .5h11v9H0z"/></mask><g mask="url(#b)"><path d="M-1.252 8.625L1.224 9.71l10.083-8.03L12.613.066 9.965-.296l-4.112 3.46-3.31 2.332-3.795 3.129z" fill="#F7FCFF"/><path d="M-.913 9.386l1.261.63L12.144-.083h-1.771L-.913 9.386z" fill="#F50100"/><path d="M12.503 8.625l-2.197 1.396L-.056 1.68-1.362.066l2.648-.363 4.112 3.46 3.31 2.332 3.795 3.129z" fill="#F7FCFF"/><path d="M12.419 9.17l-1.261.63-5.023-4.323-1.49-.483L-1.486.073h1.77l6.13 4.804 1.627.58L12.42 9.17z" fill="#F50100"/><mask id="c" maskUnits="userSpaceOnUse" x="-1" y="-.5" width="13" height="11" fill="#000"><path fill="#fff" d="M-1-.5h13v11H-1z"/><path fill-rule="evenodd" clip-rule="evenodd" d="M6 .5H5v4H0v1h5v4h1v-4h5v-1H6v-4z"/></mask><path fill-rule="evenodd" clip-rule="evenodd" d="M6 .5H5v4H0v1h5v4h1v-4h5v-1H6v-4z" fill="#F50100"/><path d="M5 .5v-.938h-.938V.5H5zm1 0h.938v-.938H6V.5zm-1 4v.938h.938V4.5H5zm-5 0v-.938h-.938V4.5H0zm0 1h-.938v.938H0V5.5zm5 0h.938v-.938H5V5.5zm0 4h-.938v.938H5V9.5zm1 0v.938h.938V9.5H6zm0-4v-.938h-.938V5.5H6zm5 0v.938h.938V5.5H11zm0-1h.938v-.938H11V4.5zm-5 0h-.938v.938H6V4.5zM5 1.437h1V-.438H5v1.875zM5.938 4.5v-4H4.063v4h1.875zM0 5.438h5V3.563H0v1.874zm.938.062v-1H-.938v1H.938zM5 4.562H0v1.875h5V4.563zM5.938 9.5v-4H4.063v4h1.875zM6 8.562H5v1.876h1V8.562zM5.062 5.5v4h1.875v-4H5.063zM11 4.562H6v1.875h5V4.563zm-.938-.062v1h1.876v-1h-1.876zM6 5.438h5V3.563H6v1.874zM5.062.5v4h1.875v-4H5.063z" fill="#F7FCFF" mask="url(#c)"/></g></g><g clip-path="url(#clip0_12095_2997)" fill="#F7FCFF"><path d="M5.92 12.778l-.82.758.081-1.113-1.103-.17.921-.63-.556-.968 1.067.327.41-1.039.41 1.039 1.068-.327-.556.968.92.63-1.103.17.081 1.113-.82-.758zm7.32-3.981l-.546.505.054-.743-.736-.112.614-.42-.37-.646.711.218.274-.692.273.692.712-.218-.371.645.614.421-.736.112.054.743-.546-.505zm1.28-5.334l-.547.506.054-.743-.736-.112.615-.42-.371-.646.711.218.274-.693.273.693.712-.218-.371.645.614.42-.736.113.054.743-.546-.506zm3.2 2.667l-.547.505.054-.742-.735-.113.614-.42-.371-.646.712.218.273-.692.273.692.712-.218-.37.646.613.42-.736.113.055.742-.547-.505zm-2.56 7.667l-.546.505.054-.742-.736-.113.614-.42-.37-.646.711.218.273-.692.274.692.711-.218-.37.646.614.42-.736.113.054.742-.547-.505zM17.4 9.64l-.555.291.106-.618-.45-.438.621-.09.278-.563.278.562.62.09-.448.439.105.618-.555-.292z"/></g><defs><clipPath id="clip0_12095_2997"><path fill="#fff" transform="translate(4 1.5)" d="M0 0h15v13H0z"/></clipPath></defs></svg>