<svg width="20" height="16" fill="none" xmlns="http://www.w3.org/2000/svg"><mask id="a" style="mask-type:alpha" maskUnits="userSpaceOnUse" x="0" y="0" width="20" height="16"><path fill="#fff" d="M0 .5h20v15H0z"/></mask><g mask="url(#a)"><path fill-rule="evenodd" clip-rule="evenodd" d="M0 .5h20v15H0V.5z" fill="#E31D1C"/><path fill-rule="evenodd" clip-rule="evenodd" d="M0 1.75V3h20V1.75H0zm0 2.5V5.5h20V4.25H0zM0 8V6.75h20V8H0zm0 1.25v1.25h20V9.25H0zM0 13v-1.25h20V13H0zm0 2.5v-1.25h20v1.25H0z" fill="#F7FCFF"/><path fill="#2E42A5" d="M0 .5h11.25v8.75H0z"/><path fill-rule="evenodd" clip-rule="evenodd" d="M1.3 3.219l.663-.462.513.37h-.29l.588.52-.199.73h-.311l-.302-.67-.258.67H.936l.588.52-.224.822.663-.462.513.37h-.29l.588.52-.199.73h-.311l-.302-.67-.258.67H.936l.588.52-.224.822.663-.462.64.462-.199-.821.515-.52h-.237l.53-.37.514.37h-.29l.588.52-.224.82.663-.46.64.46-.199-.82.515-.52h-.237l.53-.37.514.37h-.29l.588.52-.224.82.663-.46.64.46-.199-.82.515-.52h-.237l.53-.37.514.37h-.29l.588.52-.224.82.663-.46.64.46-.199-.82.515-.52h-.655l-.302-.671-.258.67h-.373l-.177-.73.515-.52h-.237l.53-.37.642.462-.2-.821.515-.52h-.655l-.302-.671-.258.67h-.373l-.177-.73.515-.52h-.237l.53-.37.642.462-.2-.821.515-.52h-.655l-.302-.671-.258.67h-.768l.588.52-.199.73h-.311l-.302-.67-.258.67h-.373l-.177-.73.515-.52h-.655l-.302-.67-.258.67h-.768l.588.52-.199.73h-.311l-.302-.67-.258.67h-.373l-.177-.73.515-.52h-.655l-.302-.67-.258.67h-.768l.588.52-.199.73h-.311l-.302-.67-.258.67h-.373l-.177-.73.515-.52h-.655l-.302-.67-.258.67H.936l.588.52-.224.822zm7.525 2.408l.199-.73-.588-.52h.29l-.513-.37-.531.37h.237l-.515.52.177.73h.373l.258-.67.302.67h.311zm-1.349 0l-.513-.37-.531.37h.237l-.515.52.177.73h.373l.258-.67.302.67h.311l.199-.73-.588-.52h.29zm-2.202.52l-.199.73h-.311l-.302-.67-.258.67h-.373l-.177-.73.515-.52h-.237l.53-.37.514.37h-.29l.588.52zm.18-.52h-.373l-.177-.73.515-.52h-.237l.53-.37.514.37h-.29l.588.52-.199.73h-.311l-.302-.67-.258.67zm-1.629 0l.199-.73-.588-.52h.29l-.513-.37-.531.37h.237l-.515.52.177.73h.373l.258-.67.302.67h.311zm3.949-1.98l-.199.73h-.311l-.302-.67-.258.67h-.373l-.177-.73.515-.52h-.237l.53-.37.514.37h-.29l.588.52zm-2.798-.52l-.513-.37-.531.37h.237l-.515.52.177.73h.373l.258-.67.302.67h.311l.199-.73-.588-.52h.29z" fill="#F7FCFF"/></g></svg>