<svg width="53" height="60" viewBox="0 0 53 60" fill="none" xmlns="http://www.w3.org/2000/svg">
<path d="M11.7279 57.6677C11.7279 56.968 12.2006 56.2683 13.0279 56.2683C13.737 56.2683 14.3279 56.8514 14.3279 57.6677C14.3279 58.3674 13.737 59.0671 13.0279 59.0671C12.2006 58.9505 11.7279 58.3674 11.7279 57.6677ZM15.2733 57.6677V55.5686H14.3279V56.1517C13.9733 55.8018 13.6188 55.5686 13.0279 55.5686C11.846 55.5686 10.9006 56.5016 10.9006 57.7844C10.9006 59.0672 11.846 60.0001 13.0279 60.0001C13.6188 60.0001 14.0915 59.7669 14.3279 59.417V60.0001H15.2733V57.6677ZM46.5915 57.6677C46.5915 56.968 47.0642 56.2683 47.8915 56.2683C48.6006 56.2683 49.1915 56.8514 49.1915 57.6677C49.1915 58.3674 48.6006 59.0671 47.8915 59.0671C47.0642 58.9505 46.5915 58.3674 46.5915 57.6677ZM50.0188 57.6677V53.8193H49.0733V56.0351C48.7188 55.6852 48.3642 55.452 47.7733 55.452C46.5915 55.452 45.646 56.3849 45.646 57.6677C45.646 58.9505 46.5915 59.8835 47.7733 59.8835C48.3642 59.8835 48.8369 59.6502 49.0733 59.3004V59.8835H50.0188V57.6677ZM26.7369 56.1517C27.3279 56.1517 27.6824 56.5016 27.8006 57.2013H25.5551C25.6733 56.6182 26.0279 56.1517 26.7369 56.1517ZM26.7369 55.452C25.437 55.452 24.6097 56.3849 24.6097 57.6677C24.6097 58.9505 25.5551 59.8835 26.8551 59.8835C27.446 59.8835 28.1551 59.6502 28.6279 59.3004L28.1551 58.6007C27.8006 58.8339 27.3279 59.0671 26.8551 59.0671C26.2642 59.0671 25.6733 58.8339 25.5551 58.0176H28.746V57.6677C28.746 56.2683 27.9188 55.452 26.7369 55.452ZM37.9642 57.6677C37.9642 56.968 38.437 56.2683 39.2642 56.2683C39.9733 56.2683 40.5642 56.8514 40.5642 57.6677C40.5642 58.3674 39.9733 59.0671 39.2642 59.0671C38.437 58.9505 37.9642 58.3674 37.9642 57.6677ZM41.3915 57.6677V55.5686H40.446V56.1517C40.0915 55.8018 39.7369 55.5686 39.146 55.5686C37.9642 55.5686 37.0188 56.5016 37.0188 57.7844C37.0188 59.0672 37.9642 60.0001 39.146 60.0001C39.7369 60.0001 40.2097 59.7669 40.446 59.417V60.0001H41.3915V57.6677ZM32.7642 57.6677C32.7642 58.9505 33.7097 59.8835 35.0097 59.8835C35.6006 59.8835 36.0733 59.7669 36.546 59.417L36.0733 58.7173C35.7188 58.9505 35.3642 59.0671 35.0097 59.0671C34.3006 59.0671 33.7097 58.4841 33.7097 57.6677C33.7097 56.8514 34.3006 56.3849 35.0097 56.2683C35.3642 56.2683 35.7188 56.3849 36.0733 56.6182L36.546 55.9185C36.0733 55.5686 35.6006 55.452 35.0097 55.452C33.5915 55.452 32.7642 56.3849 32.7642 57.6677ZM44.7006 55.452C44.1097 55.452 43.7551 55.6852 43.637 56.0351V55.452H42.6915V59.6502H43.637V57.3179C43.637 56.6182 43.9915 56.2683 44.5824 56.2683C44.8188 56.2683 44.937 56.2683 45.1733 56.3849L45.4097 55.452C45.1733 55.452 44.8188 55.452 44.7006 55.452ZM19.7642 55.8018C19.2915 55.452 18.7006 55.3354 17.9915 55.3354C16.9279 55.3354 16.2188 55.9185 16.2188 56.7348C16.2188 57.4345 16.8097 57.7843 17.637 58.0176H18.1097C18.5824 58.1342 18.8188 58.2508 18.8188 58.4841C18.8188 58.8339 18.4642 59.0671 17.8733 59.0671C17.2824 59.0671 16.8097 58.8339 16.4551 58.6007L15.9824 59.3004C16.4551 59.6502 17.1642 59.8835 17.7551 59.8835C19.0551 59.8835 19.7642 59.3004 19.7642 58.4841C19.7642 57.7844 19.1733 57.3179 18.346 57.2013H17.8733C17.5188 57.2013 17.1642 57.0846 17.1642 56.8514C17.1642 56.5016 17.5188 56.3849 17.9915 56.3849C18.5824 56.3849 19.0551 56.6182 19.2915 56.7348L19.7642 55.8018ZM31.8188 55.452C31.2279 55.452 30.8733 55.6852 30.7551 56.0351V55.452H29.8097V59.6502H30.7551V57.3179C30.7551 56.6182 31.1097 56.2683 31.7006 56.2683C31.937 56.2683 32.0551 56.2683 32.2915 56.3849L32.5279 55.452C32.2915 55.452 31.937 55.452 31.8188 55.452ZM23.9006 55.452H22.3642V54.1692H21.4188V55.452H20.5915V56.2683H21.4188V58.2508C21.4188 59.1838 21.7733 59.7669 22.8369 59.7669C23.1915 59.7669 23.6642 59.6502 24.0188 59.417L23.7824 58.6007C23.546 58.8339 23.1915 58.8339 22.9551 58.8339C22.4824 58.8339 22.3642 58.6007 22.3642 58.1342V56.2683H23.9006V55.452ZM9.95513 59.7669V57.0846C9.95513 56.0351 9.36422 55.452 8.30059 55.452C7.70968 55.452 7.23695 55.6852 6.76422 56.1517C6.40968 55.6852 6.05513 55.452 5.34604 55.452C4.87331 55.452 4.40059 55.5686 4.04604 56.0351V55.452H3.10059V59.6502H4.04604V57.3179C4.04604 56.6182 4.40059 56.2683 5.10968 56.2683C5.81877 56.2683 6.05513 56.6182 6.05513 57.3179V59.6502H7.00059V57.3179C7.00059 56.6182 7.47331 56.2683 8.06422 56.2683C8.65513 56.2683 9.00968 56.6182 9.00968 57.3179V59.6502H9.95513V59.7669Z" fill="white"/>
<path d="M19.5273 23.3818H33.4728V48.3381H19.5273V23.3818Z" fill="#F16022"/>
<path d="M20.3545 35.8601C20.3545 30.8455 22.7182 26.2974 26.5 23.3819C23.7818 21.2828 20.3545 20 16.5727 20C7.70909 20 0.5 27.1137 0.5 35.8601C0.5 44.6064 7.70909 51.7201 16.5727 51.7201C20.3545 51.7201 23.7818 50.4373 26.5 48.3382C22.7182 45.4227 20.3545 40.8746 20.3545 35.8601Z" fill="#E91D25"/>
<path d="M52.5 35.8601C52.5 44.6064 45.2909 51.7201 36.4273 51.7201C32.6455 51.7201 29.2182 50.4373 26.5 48.3382C30.2818 45.4227 32.6455 40.9913 32.6455 35.8601C32.6455 30.8455 30.2818 26.2974 26.5 23.3819C29.2182 21.2828 32.6455 20 36.4273 20C45.2909 20 52.5 27.1137 52.5 35.8601Z" fill="#F69E1E"/>
<path d="M48.4053 48.799V48.5454H49.5999V48.799H49.1546V50H48.8506V48.799H48.4053Z" fill="#F69E1E"/>
<path d="M49.7966 48.5454H50.1759L50.5764 49.5227H50.5935L50.9941 48.5454H51.3733V50H51.075V49.0532H51.0629L50.6865 49.9929H50.4834L50.107 49.0497H50.0949V50H49.7966V48.5454Z" fill="#F69E1E"/>
<path d="M11.6432 9.664C11.6432 9 11.7792 8.412 12.0512 7.9C12.3312 7.388 12.7072 6.992 13.1792 6.712C13.6592 6.424 14.1912 6.28 14.7752 6.28C15.2072 6.28 15.6312 6.376 16.0472 6.568C16.4712 6.752 16.8072 7 17.0552 7.312V4.12H18.4352V13H17.0552V12.004C16.8312 12.324 16.5192 12.588 16.1192 12.796C15.7272 13.004 15.2752 13.108 14.7632 13.108C14.1872 13.108 13.6592 12.964 13.1792 12.676C12.7072 12.38 12.3312 11.972 12.0512 11.452C11.7792 10.924 11.6432 10.328 11.6432 9.664ZM17.0552 9.688C17.0552 9.232 16.9592 8.836 16.7672 8.5C16.5832 8.164 16.3392 7.908 16.0352 7.732C15.7312 7.556 15.4032 7.468 15.0512 7.468C14.6992 7.468 14.3712 7.556 14.0672 7.732C13.7632 7.9 13.5152 8.152 13.3232 8.488C13.1392 8.816 13.0472 9.208 13.0472 9.664C13.0472 10.12 13.1392 10.52 13.3232 10.864C13.5152 11.208 13.7632 11.472 14.0672 11.656C14.3792 11.832 14.7072 11.92 15.0512 11.92C15.4032 11.92 15.7312 11.832 16.0352 11.656C16.3392 11.48 16.5832 11.224 16.7672 10.888C16.9592 10.544 17.0552 10.144 17.0552 9.688ZM26.292 9.532C26.292 9.78 26.276 10.004 26.244 10.204H21.192C21.232 10.732 21.428 11.156 21.78 11.476C22.132 11.796 22.564 11.956 23.076 11.956C23.812 11.956 24.332 11.648 24.636 11.032H26.112C25.912 11.64 25.548 12.14 25.02 12.532C24.5 12.916 23.852 13.108 23.076 13.108C22.444 13.108 21.876 12.968 21.372 12.688C20.876 12.4 20.484 12 20.196 11.488C19.916 10.968 19.776 10.368 19.776 9.688C19.776 9.008 19.912 8.412 20.184 7.9C20.464 7.38 20.852 6.98 21.348 6.7C21.852 6.42 22.428 6.28 23.076 6.28C23.7 6.28 24.256 6.416 24.744 6.688C25.232 6.96 25.612 7.344 25.884 7.84C26.156 8.328 26.292 8.892 26.292 9.532ZM24.864 9.1C24.856 8.596 24.676 8.192 24.324 7.888C23.972 7.584 23.536 7.432 23.016 7.432C22.544 7.432 22.14 7.584 21.804 7.888C21.468 8.184 21.268 8.588 21.204 9.1H24.864ZM29.0063 7.372C29.2383 7.052 29.5543 6.792 29.9543 6.592C30.3623 6.384 30.8143 6.28 31.3103 6.28C31.8943 6.28 32.4223 6.42 32.8943 6.7C33.3663 6.98 33.7383 7.38 34.0103 7.9C34.2823 8.412 34.4183 9 34.4183 9.664C34.4183 10.328 34.2823 10.924 34.0103 11.452C33.7383 11.972 33.3623 12.38 32.8823 12.676C32.4103 12.964 31.8863 13.108 31.3103 13.108C30.7983 13.108 30.3423 13.008 29.9423 12.808C29.5503 12.608 29.2383 12.352 29.0063 12.04V13H27.6383V4.12H29.0063V7.372ZM33.0263 9.664C33.0263 9.208 32.9303 8.816 32.7383 8.488C32.5543 8.152 32.3063 7.9 31.9943 7.732C31.6903 7.556 31.3623 7.468 31.0103 7.468C30.6663 7.468 30.3383 7.556 30.0263 7.732C29.7223 7.908 29.4743 8.164 29.2823 8.5C29.0983 8.836 29.0063 9.232 29.0063 9.688C29.0063 10.144 29.0983 10.544 29.2823 10.888C29.4743 11.224 29.7223 11.48 30.0263 11.656C30.3383 11.832 30.6663 11.92 31.0103 11.92C31.3623 11.92 31.6903 11.832 31.9943 11.656C32.3063 11.472 32.5543 11.208 32.7383 10.864C32.9303 10.52 33.0263 10.12 33.0263 9.664ZM36.4671 5.512C36.2191 5.512 36.0111 5.428 35.8431 5.26C35.6751 5.092 35.5911 4.884 35.5911 4.636C35.5911 4.388 35.6751 4.18 35.8431 4.012C36.0111 3.844 36.2191 3.76 36.4671 3.76C36.7071 3.76 36.9111 3.844 37.0791 4.012C37.2471 4.18 37.3311 4.388 37.3311 4.636C37.3311 4.884 37.2471 5.092 37.0791 5.26C36.9111 5.428 36.7071 5.512 36.4671 5.512ZM37.1391 6.388V13H35.7711V6.388H37.1391ZM40.5312 7.504V11.164C40.5312 11.412 40.5872 11.592 40.6992 11.704C40.8192 11.808 41.0192 11.86 41.2992 11.86H42.1392V13H41.0592C40.4432 13 39.9712 12.856 39.6432 12.568C39.3152 12.28 39.1512 11.812 39.1512 11.164V7.504H38.3712V6.388H39.1512V4.744H40.5312V6.388H42.1392V7.504H40.5312Z" fill="white"/>
</svg>
