<svg width="280" height="179" viewBox="0 0 280 179" fill="none" xmlns="http://www.w3.org/2000/svg">
<g clip-path="url(#clip0)">
<rect width="280" height="178.256" rx="8.13953" fill="url(#paint0_linear)"/>
<rect x="16.2792" y="80.2558" width="40.2326" height="17.093" rx="8.54651" fill="white" fill-opacity="0.2"/>
<rect x="60.5117" y="87.8023" width="7" height="2" fill="white"/>
<rect x="71.5117" y="80.2558" width="40.2326" height="17.093" rx="8.54651" fill="white" fill-opacity="0.2"/>
<rect x="115.744" y="87.8023" width="7" height="2" fill="white"/>
<rect x="126.744" y="80.2558" width="40.2326" height="17.093" rx="8.54651" fill="white" fill-opacity="0.2"/>
<rect x="170.977" y="87.8023" width="7" height="2" fill="white"/>
<rect x="181.977" y="80.2558" width="40.2326" height="17.093" rx="8.54651" fill="white" fill-opacity="0.2"/>
<path d="M237.697 139.008H249.048V159.322H237.697V139.008Z" fill="#F16022"/>
<path d="M238.37 149.165C238.37 145.083 240.294 141.382 243.372 139.008C241.16 137.3 238.37 136.256 235.292 136.256C228.077 136.256 222.209 142.046 222.209 149.165C222.209 156.284 228.077 162.074 235.292 162.074C238.37 162.074 241.16 161.03 243.372 159.322C240.294 156.949 238.37 153.247 238.37 149.165Z" fill="#E91D25"/>
<path d="M264.535 149.165C264.535 156.284 258.668 162.074 251.453 162.074C248.375 162.074 245.585 161.03 243.373 159.322C246.451 156.949 248.375 153.342 248.375 149.165C248.375 145.083 246.451 141.382 243.373 139.008C245.585 137.3 248.375 136.256 251.453 136.256C258.668 136.256 264.535 142.046 264.535 149.165Z" fill="#F69E1E"/>
<path d="M22.6056 154.113H21.1534C21.1348 154.358 21.0903 154.571 21.0198 154.753C20.9493 154.935 20.8547 155.085 20.736 155.203C20.6173 155.326 20.4727 155.417 20.302 155.476C20.1314 155.532 19.9367 155.56 19.7178 155.56C19.5435 155.56 19.3877 155.537 19.2504 155.493C19.1169 155.448 18.9945 155.383 18.8832 155.298C18.783 155.216 18.694 155.116 18.6161 154.998C18.5419 154.879 18.4789 154.747 18.4269 154.603C18.3565 154.41 18.3045 154.191 18.2711 153.946C18.2378 153.701 18.2211 153.43 18.2211 153.134V152.021C18.2211 151.791 18.2322 151.572 18.2544 151.364C18.2767 151.156 18.3138 150.965 18.3657 150.791C18.4251 150.572 18.5067 150.379 18.6105 150.212C18.7144 150.042 18.8405 149.908 18.9889 149.812C19.0854 149.741 19.1948 149.688 19.3172 149.65C19.4433 149.613 19.5787 149.595 19.7234 149.595C19.9645 149.595 20.1704 149.628 20.341 149.695C20.5153 149.762 20.66 149.86 20.775 149.99C20.89 150.12 20.9772 150.279 21.0365 150.468C21.0996 150.654 21.1404 150.867 21.1589 151.108H22.6112C22.5704 150.693 22.4795 150.318 22.3385 149.984C22.1976 149.65 22.0065 149.369 21.7654 149.139C21.5243 148.905 21.2331 148.725 20.8918 148.599C20.5506 148.473 20.1611 148.41 19.7234 148.41C19.4155 148.41 19.1299 148.45 18.8665 148.532C18.6031 148.61 18.3639 148.723 18.1487 148.871C17.9076 149.038 17.6943 149.241 17.5088 149.478C17.3271 149.715 17.1787 149.984 17.0637 150.285C16.9599 150.541 16.882 150.817 16.83 151.114C16.7781 151.407 16.7521 151.713 16.7521 152.032V153.134C16.7521 153.471 16.7799 153.794 16.8356 154.102C16.8912 154.41 16.9728 154.693 17.0804 154.953C17.188 155.216 17.3215 155.458 17.481 155.676C17.6442 155.892 17.8297 156.077 18.0374 156.233C18.26 156.396 18.5122 156.522 18.7942 156.611C19.0761 156.7 19.384 156.745 19.7178 156.745C20.1333 156.745 20.5116 156.684 20.8529 156.561C21.1942 156.435 21.4891 156.257 21.7376 156.027C21.9861 155.797 22.1846 155.521 22.333 155.198C22.4813 154.875 22.5722 154.513 22.6056 154.113ZM27.8637 154.853L28.37 156.628H29.8835L27.2906 148.526H25.9886L23.3401 156.628H24.8591L25.371 154.853H27.8637ZM25.7326 153.612L26.634 150.518L27.5132 153.612H25.7326ZM33.4835 153.545L35.0192 156.628H36.5716V156.556L34.8356 153.189C35.0581 153.089 35.2584 152.97 35.4365 152.833C35.6183 152.696 35.7759 152.535 35.9094 152.349C36.0356 152.171 36.1339 151.967 36.2043 151.737C36.2748 151.507 36.3101 151.251 36.3101 150.969C36.3101 150.565 36.2396 150.211 36.0986 149.906C35.9614 149.602 35.7648 149.35 35.5088 149.15C35.2492 148.946 34.9413 148.792 34.5852 148.688C34.2291 148.58 33.834 148.526 33.4 148.526H30.7515V156.628H32.2037V153.545H33.4835ZM32.2037 152.36V149.706H33.4C33.6226 149.706 33.821 149.734 33.9954 149.79C34.1697 149.845 34.32 149.925 34.4461 150.029C34.5796 150.14 34.6798 150.283 34.7465 150.457C34.817 150.628 34.8523 150.824 34.8523 151.047C34.8523 151.24 34.8226 151.414 34.7632 151.57C34.7076 151.722 34.626 151.852 34.5184 151.96C34.3923 152.089 34.2346 152.19 34.0455 152.26C33.86 152.327 33.6485 152.36 33.4111 152.36H32.2037ZM37.5397 156.628H39.6541C40.0213 156.628 40.3645 156.583 40.6835 156.494C41.0062 156.405 41.2992 156.277 41.5626 156.11C41.7926 155.966 42.004 155.788 42.1969 155.576C42.3898 155.361 42.5567 155.126 42.6977 154.87C42.8424 154.595 42.9536 154.293 43.0315 153.963C43.1094 153.629 43.1484 153.278 43.1484 152.911V152.254C43.1484 151.869 43.1057 151.505 43.0204 151.164C42.9388 150.823 42.8201 150.511 42.6643 150.229C42.5233 149.977 42.3527 149.747 42.1524 149.539C41.9558 149.331 41.7314 149.157 41.4791 149.016C41.2158 148.86 40.9264 148.74 40.6111 148.654C40.2958 148.569 39.9564 148.526 39.5929 148.526H37.5397V156.628ZM39.0031 149.706H39.5929C39.7969 149.706 39.9842 149.73 40.1549 149.778C40.3292 149.823 40.4869 149.886 40.6278 149.968C40.817 150.075 40.9802 150.216 41.1175 150.39C41.2584 150.561 41.3716 150.756 41.4569 150.975C41.5274 151.156 41.5793 151.355 41.6127 151.57C41.6498 151.782 41.6702 152.006 41.6739 152.243V152.911C41.6702 153.16 41.6498 153.391 41.6127 153.607C41.5793 153.822 41.5292 154.018 41.4624 154.196C41.3808 154.408 41.2788 154.593 41.1564 154.753C41.0377 154.912 40.9005 155.044 40.7447 155.148C40.5963 155.248 40.4312 155.326 40.2495 155.382C40.0677 155.433 39.8693 155.459 39.6541 155.459H39.0031V149.706ZM56.5691 156.628V148.526H55.1447V151.882H52.6352V148.526H51.2052V156.628H52.6352V153.067H55.1447V156.628H56.5691ZM63.6967 153.145V152.021C63.693 151.668 63.6596 151.333 63.5966 151.014C63.5335 150.695 63.4408 150.398 63.3184 150.123C63.2034 149.875 63.0643 149.647 62.9011 149.439C62.7378 149.228 62.5487 149.048 62.3335 148.899C62.1184 148.747 61.8736 148.628 61.5991 148.543C61.3283 148.458 61.0352 148.415 60.7199 148.415C60.4046 148.415 60.1153 148.458 59.8519 148.543C59.5885 148.625 59.3511 148.742 59.1397 148.894C58.9246 149.05 58.7354 149.235 58.5722 149.45C58.4127 149.662 58.2773 149.897 58.166 150.157C58.051 150.428 57.9638 150.721 57.9045 151.036C57.8488 151.351 57.8192 151.679 57.8154 152.021V153.145C57.8192 153.471 57.847 153.785 57.8989 154.085C57.9508 154.382 58.0287 154.66 58.1326 154.92C58.2439 155.198 58.383 155.45 58.5499 155.676C58.7168 155.899 58.906 156.09 59.1175 156.25C59.3363 156.405 59.5793 156.526 59.8464 156.611C60.1134 156.696 60.4065 156.739 60.7255 156.739C61.0297 156.739 61.3116 156.7 61.5712 156.622C61.8309 156.544 62.0683 156.435 62.2834 156.294C62.5134 156.138 62.7174 155.949 62.8955 155.726C63.0736 155.5 63.2219 155.252 63.3406 154.981C63.4556 154.714 63.5428 154.426 63.6021 154.118C63.6615 153.807 63.693 153.482 63.6967 153.145ZM62.2278 152.01V153.145C62.2278 153.345 62.2167 153.542 62.1944 153.735C62.1759 153.924 62.1443 154.1 62.0998 154.263C62.0479 154.467 61.9774 154.651 61.8884 154.814C61.8031 154.977 61.6974 155.114 61.5712 155.226C61.4637 155.326 61.3394 155.402 61.1984 155.454C61.0575 155.506 60.8998 155.532 60.7255 155.532C60.5437 155.532 60.3824 155.504 60.2414 155.448C60.1042 155.393 59.9836 155.315 59.8797 155.215C59.7647 155.107 59.6664 154.97 59.5848 154.803C59.5032 154.632 59.4402 154.449 59.3957 154.252C59.3549 154.085 59.3252 153.909 59.3066 153.723C59.2918 153.534 59.2844 153.341 59.2844 153.145V152.01C59.2844 151.806 59.2936 151.607 59.3122 151.414C59.3307 151.221 59.3604 151.04 59.4012 150.869C59.4494 150.661 59.5162 150.476 59.6015 150.313C59.6906 150.149 59.8 150.012 59.9298 149.901C60.03 149.816 60.145 149.751 60.2748 149.706C60.4046 149.658 60.553 149.634 60.7199 149.634C60.8906 149.634 61.0426 149.66 61.1762 149.712C61.3134 149.76 61.4358 149.827 61.5434 149.912C61.6732 150.023 61.7827 150.16 61.8717 150.324C61.9644 150.487 62.0386 150.669 62.0943 150.869C62.1425 151.04 62.1759 151.221 62.1944 151.414C62.2167 151.607 62.2278 151.806 62.2278 152.01ZM66.5344 155.448V148.526H65.0766V156.628H70.3626V155.448H66.5344ZM71.7592 156.628H73.8735C74.2408 156.628 74.5839 156.583 74.9029 156.494C75.2256 156.405 75.5187 156.277 75.782 156.11C76.012 155.966 76.2235 155.788 76.4163 155.576C76.6092 155.361 76.7762 155.126 76.9171 154.87C77.0618 154.595 77.1731 154.293 77.251 153.963C77.3289 153.629 77.3678 153.278 77.3678 152.911V152.254C77.3678 151.869 77.3252 151.505 77.2398 151.164C77.1582 150.823 77.0395 150.511 76.8837 150.229C76.7428 149.977 76.5721 149.747 76.3718 149.539C76.1752 149.331 75.9508 149.157 75.6986 149.016C75.4352 148.86 75.1459 148.74 74.8306 148.654C74.5153 148.569 74.1759 148.526 73.8123 148.526H71.7592V156.628ZM73.2225 149.706H73.8123C74.0163 149.706 74.2037 149.73 74.3743 149.778C74.5487 149.823 74.7063 149.886 74.8473 149.968C75.0364 150.075 75.1997 150.216 75.3369 150.39C75.4779 150.561 75.591 150.756 75.6763 150.975C75.7468 151.156 75.7987 151.355 75.8321 151.57C75.8692 151.782 75.8896 152.006 75.8933 152.243V152.911C75.8896 153.16 75.8692 153.391 75.8321 153.607C75.7987 153.822 75.7486 154.018 75.6819 154.196C75.6003 154.408 75.4983 154.593 75.3759 154.753C75.2571 154.912 75.1199 155.044 74.9641 155.148C74.8157 155.248 74.6507 155.326 74.4689 155.382C74.2871 155.433 74.0887 155.459 73.8735 155.459H73.2225V149.706ZM83.5273 153.039V151.876H80.1888V149.717H84.067V148.526H78.731V156.628H84.0893V155.448H80.1888V153.039H83.5273ZM88.2346 153.545L89.7703 156.628H91.3227V156.556L89.5867 153.189C89.8092 153.089 90.0095 152.97 90.1876 152.833C90.3693 152.696 90.527 152.535 90.6605 152.349C90.7866 152.171 90.8849 151.967 90.9554 151.737C91.0259 151.507 91.0611 151.251 91.0611 150.969C91.0611 150.565 90.9907 150.211 90.8497 149.906C90.7125 149.602 90.5159 149.35 90.2599 149.15C90.0003 148.946 89.6924 148.792 89.3363 148.688C88.9802 148.58 88.5851 148.526 88.1511 148.526H85.5026V156.628H86.9548V153.545H88.2346ZM86.9548 152.36V149.706H88.1511C88.3737 149.706 88.5721 149.734 88.7465 149.79C88.9208 149.845 89.071 149.925 89.1972 150.029C89.3307 150.14 89.4309 150.283 89.4976 150.457C89.5681 150.628 89.6033 150.824 89.6033 151.047C89.6033 151.24 89.5737 151.414 89.5143 151.57C89.4587 151.722 89.3771 151.852 89.2695 151.96C89.1434 152.089 88.9857 152.19 88.7965 152.26C88.6111 152.327 88.3996 152.36 88.1622 152.36H86.9548Z" fill="white"/>
<path d="M217.189 21.4855C216.946 19.9663 215.757 19.0783 214.255 19.0783C212.416 19.0783 211.06 20.4554 211.06 22.7273C211.06 24.9992 212.41 26.3762 214.255 26.3762C215.816 26.3762 216.957 25.398 217.189 23.9933L216.107 23.9898C215.923 24.8986 215.16 25.398 214.262 25.398C213.044 25.398 212.125 24.465 212.125 22.7273C212.125 21.0034 213.041 20.0565 214.265 20.0565C215.171 20.0565 215.93 20.5663 216.107 21.4855H217.189ZM219.093 19.1755H217.934L220.49 26.2791H221.729L224.285 19.1755H223.127L221.149 24.961H221.07L219.093 19.1755ZM230.858 21.4855C230.615 19.9663 229.425 19.0783 227.924 19.0783C226.085 19.0783 224.729 20.4554 224.729 22.7273C224.729 24.9992 226.078 26.3762 227.924 26.3762C229.484 26.3762 230.626 25.398 230.858 23.9933L229.776 23.9898C229.592 24.8986 228.829 25.398 227.93 25.398C226.713 25.398 225.794 24.465 225.794 22.7273C225.794 21.0034 226.71 20.0565 227.934 20.0565C228.839 20.0565 229.599 20.5663 229.776 21.4855H230.858ZM232.043 26.2791H236.719V25.3599H233.521V25.3079L234.933 23.8303C236.233 22.5157 236.604 21.8879 236.604 21.0936C236.604 19.9524 235.675 19.0783 234.336 19.0783C233.008 19.0783 232.036 19.9385 232.036 21.2358H233.06C233.056 20.4727 233.549 19.9732 234.315 19.9732C235.037 19.9732 235.585 20.4172 235.585 21.1248C235.585 21.7526 235.21 22.2035 234.447 23.0117L232.043 25.5021V26.2791ZM238.731 21.8393C239.109 21.8393 239.424 21.5306 239.424 21.1456C239.424 20.7675 239.109 20.4554 238.731 20.4554C238.349 20.4554 238.037 20.7675 238.037 21.1456C238.037 21.5306 238.349 21.8393 238.731 21.8393ZM238.731 25.398C239.109 25.398 239.424 25.0893 239.424 24.7043C239.424 24.3263 239.109 24.0141 238.731 24.0141C238.349 24.0141 238.037 24.3263 238.037 24.7043C238.037 25.0893 238.349 25.398 238.731 25.398Z" fill="white"/>
<rect x="243.372" y="16.2791" width="21.1628" height="13.0233" rx="6.51163" fill="white" fill-opacity="0.2"/>
<path d="M93.693 115.256L92.1384 109.574H93.3105L94.0186 112.448L94.4337 114.238H94.4907L94.914 112.448L95.6302 109.574H96.7453L95.1907 115.256H93.693ZM100.535 115.256L100.136 113.815H98.4515L98.0608 115.256H96.9864L98.5817 109.574H100.063L101.667 115.256H100.535ZM99.3305 110.624H99.2654L98.6387 112.944H99.9573L99.3305 110.624ZM102.575 115.256V109.574H103.641V114.377H106.156V115.256H102.575ZM107.277 115.256V114.458H108.554V110.372H107.277V109.574H110.89V110.372H109.613V114.458H110.89V115.256H107.277ZM112.116 109.574H113.883C114.621 109.574 115.169 109.819 115.527 110.307C115.89 110.795 116.072 111.498 116.072 112.415C116.072 113.338 115.89 114.043 115.527 114.531C115.169 115.014 114.621 115.256 113.883 115.256H112.116V109.574ZM113.809 114.401C114.2 114.401 114.488 114.274 114.672 114.019C114.862 113.764 114.957 113.392 114.957 112.903V111.919C114.957 111.436 114.862 111.067 114.672 110.812C114.488 110.557 114.2 110.429 113.809 110.429H113.166V114.401H113.809ZM94.9709 119.453V124.256H93.9128V119.453H92.2035V118.574H96.6802V119.453H94.9709ZM100.153 121.814H98.4922V124.256H97.4259V118.574H98.4922V120.935H100.153V118.574H101.219V124.256H100.153V121.814ZM103.479 124.256H102.412V118.574H104.569C105.123 118.574 105.546 118.732 105.839 119.046C106.132 119.361 106.279 119.79 106.279 120.333C106.279 120.75 106.181 121.103 105.986 121.391C105.796 121.673 105.522 121.852 105.163 121.928L106.376 124.256H105.204L104.122 122.05H103.479V124.256ZM104.349 121.22C104.637 121.22 104.843 121.163 104.968 121.049C105.093 120.929 105.155 120.742 105.155 120.487V120.178C105.155 119.923 105.093 119.738 104.968 119.624C104.843 119.505 104.637 119.445 104.349 119.445H103.479V121.22H104.349ZM108.213 118.574V122.115C108.213 122.327 108.218 122.517 108.229 122.685C108.245 122.853 108.28 122.997 108.335 123.116C108.394 123.23 108.481 123.32 108.595 123.385C108.714 123.45 108.877 123.483 109.083 123.483C109.29 123.483 109.45 123.45 109.564 123.385C109.683 123.32 109.77 123.23 109.824 123.116C109.884 122.997 109.919 122.853 109.93 122.685C109.946 122.517 109.954 122.327 109.954 122.115V118.574H111.021V121.952C111.021 122.354 110.996 122.704 110.947 123.002C110.899 123.301 110.804 123.55 110.663 123.751C110.521 123.952 110.323 124.104 110.068 124.207C109.819 124.305 109.49 124.353 109.083 124.353C108.677 124.353 108.346 124.305 108.09 124.207C107.841 124.104 107.646 123.952 107.504 123.751C107.363 123.55 107.268 123.301 107.22 123.002C107.171 122.704 107.146 122.354 107.146 121.952V118.574H108.213Z" fill="white"/>
<rect x="122.93" y="110.291" width="34.186" height="13.8372" rx="6.9186" fill="white" fill-opacity="0.2"/>
<path d="M228.935 68.0623V68.1853C228.935 68.6423 228.992 69.0681 229.105 69.4626C229.222 69.8533 229.388 70.1931 229.603 70.4822C229.814 70.7673 230.074 70.9919 230.383 71.156C230.691 71.3162 231.037 71.3962 231.42 71.3962C231.783 71.3962 232.101 71.3279 232.375 71.1912C232.652 71.0544 232.89 70.863 233.09 70.6169L233.166 71.2791H234.537V62.2791H233.019V65.5193C232.82 65.2966 232.592 65.1248 232.334 65.0037C232.076 64.8826 231.775 64.822 231.431 64.822C231.041 64.822 230.691 64.9001 230.383 65.0564C230.074 65.2126 229.812 65.4333 229.597 65.7185C229.383 66.0037 229.219 66.3455 229.105 66.7439C228.992 67.1423 228.935 67.5818 228.935 68.0623ZM230.447 68.1853V68.0623C230.447 67.7849 230.472 67.5251 230.523 67.283C230.574 67.0408 230.654 66.8279 230.763 66.6443C230.873 66.4646 231.013 66.324 231.185 66.2224C231.361 66.1169 231.572 66.0642 231.818 66.0642C232.111 66.0642 232.355 66.1287 232.551 66.2576C232.746 66.3865 232.902 66.5623 233.019 66.7849V69.4275C232.902 69.6541 232.746 69.8318 232.551 69.9607C232.355 70.0896 232.107 70.1541 231.806 70.1541C231.56 70.1541 231.351 70.1033 231.18 70.0017C231.008 69.9001 230.869 69.7595 230.763 69.5798C230.65 69.4001 230.568 69.1912 230.517 68.9529C230.471 68.7146 230.447 68.4587 230.447 68.1853ZM239.336 71.3962C239.949 71.3962 240.476 71.2771 240.918 71.0388C241.363 70.7966 241.689 70.5251 241.896 70.2244L241.117 69.4216C240.926 69.6677 240.68 69.8552 240.379 69.9841C240.078 70.113 239.762 70.1775 239.43 70.1775C239.187 70.1775 238.965 70.1384 238.762 70.0603C238.562 69.9822 238.385 69.8728 238.228 69.7322C238.08 69.5955 237.961 69.4412 237.871 69.2693C237.785 69.0974 237.717 68.8787 237.666 68.613V68.5896H242.019V67.9451C242.019 67.4841 241.957 67.0623 241.832 66.6794C241.707 66.2927 241.523 65.9626 241.281 65.6892C241.035 65.4158 240.734 65.2029 240.379 65.0505C240.027 64.8982 239.623 64.822 239.166 64.822C238.74 64.822 238.342 64.9021 237.971 65.0623C237.603 65.2185 237.283 65.4392 237.01 65.7244C236.736 66.0134 236.521 66.3591 236.365 66.7615C236.213 67.1599 236.137 67.6052 236.137 68.0974V68.3318C236.137 68.7615 236.213 69.1638 236.365 69.5388C236.517 69.9099 236.734 70.2322 237.015 70.5056C237.297 70.783 237.633 71.0017 238.023 71.1619C238.418 71.3181 238.855 71.3962 239.336 71.3962ZM239.154 66.0525C239.377 66.0525 239.57 66.0896 239.734 66.1638C239.902 66.2341 240.045 66.3298 240.162 66.4509C240.275 66.572 240.363 66.7166 240.426 66.8845C240.492 67.0525 240.525 67.2244 240.525 67.4001V67.5173H237.701C237.74 67.2908 237.801 67.0876 237.883 66.908C237.969 66.7283 238.074 66.574 238.199 66.4451C238.32 66.3162 238.461 66.2185 238.621 66.1521C238.785 66.0857 238.963 66.0525 239.154 66.0525ZM249.168 68.1736V68.0505C249.168 67.6794 249.135 67.3298 249.068 67.0017C249.002 66.6736 248.902 66.3767 248.769 66.1111C248.676 65.9314 248.568 65.7673 248.447 65.6189C248.33 65.4705 248.197 65.3416 248.049 65.2322C247.865 65.0994 247.658 64.9978 247.428 64.9275C247.201 64.8572 246.951 64.822 246.678 64.822C246.474 64.822 246.285 64.8435 246.109 64.8865C245.937 64.9255 245.777 64.9861 245.629 65.0681C245.523 65.1267 245.424 65.197 245.33 65.2791C245.236 65.3572 245.148 65.4431 245.066 65.5369V62.2791H243.555V71.2791H244.92L244.99 70.5935C245.056 70.6833 245.127 70.7654 245.201 70.8396C245.279 70.9099 245.361 70.9744 245.447 71.033C245.611 71.1501 245.795 71.24 245.998 71.3025C246.205 71.365 246.435 71.3962 246.689 71.3962C246.951 71.3962 247.191 71.363 247.41 71.2966C247.633 71.2302 247.834 71.1345 248.013 71.0095C248.221 70.8689 248.398 70.6931 248.547 70.4822C248.699 70.2712 248.822 70.0349 248.916 69.7732C248.998 69.5427 249.06 69.2947 249.103 69.0291C249.146 68.7595 249.168 68.4744 249.168 68.1736ZM247.65 68.0505V68.1736C247.65 68.3416 247.642 68.5056 247.627 68.6658C247.611 68.822 247.586 68.9685 247.551 69.1052C247.508 69.2888 247.445 69.4529 247.363 69.5974C247.281 69.7419 247.176 69.8591 247.047 69.949C246.953 70.0154 246.844 70.0681 246.719 70.1072C246.597 70.1423 246.461 70.1599 246.308 70.1599C246.137 70.1599 245.982 70.1404 245.846 70.1013C245.709 70.0583 245.59 69.9978 245.488 69.9197C245.394 69.8572 245.314 69.783 245.248 69.697C245.181 69.6072 245.121 69.5076 245.066 69.3982V66.8201C245.109 66.7341 245.158 66.6541 245.213 66.5798C245.267 66.5017 245.328 66.4333 245.394 66.3748C245.504 66.2732 245.633 66.197 245.781 66.1462C245.93 66.0916 246.101 66.0642 246.297 66.0642C246.445 66.0642 246.578 66.0818 246.695 66.1169C246.816 66.1482 246.926 66.197 247.023 66.2634C247.164 66.3689 247.273 66.49 247.351 66.6267C247.43 66.7634 247.492 66.9158 247.539 67.0837C247.578 67.2283 247.605 67.3826 247.621 67.5466C247.64 67.7107 247.65 67.8787 247.65 68.0505ZM251.107 64.9392V66.1873H252.988V70.0369H251.107V71.2791H256.31V70.0369H254.517V64.9392H251.107ZM252.865 63.3103C252.865 63.4431 252.894 63.5642 252.953 63.6736C253.012 63.783 253.096 63.8669 253.205 63.9255C253.314 63.988 253.426 64.0251 253.539 64.0369C253.656 64.0447 253.769 64.0291 253.879 63.99C254.109 63.9705 254.287 63.8884 254.412 63.7439C254.541 63.5994 254.599 63.4216 254.588 63.2107C254.576 62.9958 254.494 62.822 254.342 62.6892C254.193 62.5564 253.994 62.49 253.744 62.49C253.611 62.49 253.49 62.5095 253.381 62.5486C253.275 62.5876 253.185 62.6423 253.111 62.7126C253.033 62.7869 252.972 62.8748 252.93 62.9763C252.887 63.0779 252.865 63.1892 252.865 63.3103ZM260.84 63.3923H259.322V64.9392H257.828V66.0642H259.322V69.0642C259.322 69.4783 259.375 69.8318 259.48 70.1248C259.59 70.4177 259.744 70.658 259.943 70.8455C260.138 71.0369 260.373 71.1775 260.646 71.2673C260.924 71.3572 261.228 71.4021 261.56 71.4021C261.74 71.4021 261.92 71.3923 262.099 71.3728C262.283 71.3572 262.459 71.3337 262.627 71.3025C262.795 71.2712 262.951 71.2322 263.096 71.1853C263.244 71.1384 263.373 71.0837 263.482 71.0212L263.324 69.9724C263.254 69.9919 263.166 70.0115 263.06 70.031C262.959 70.0505 262.849 70.0681 262.732 70.0837C262.611 70.1033 262.484 70.1208 262.351 70.1365C262.222 70.1482 262.097 70.1541 261.976 70.1541C261.808 70.1541 261.654 70.1345 261.513 70.0955C261.373 70.0564 261.252 69.988 261.15 69.8904C261.053 69.8005 260.976 69.6794 260.922 69.5271C260.867 69.3708 260.84 69.1755 260.84 68.9412V66.0642H263.213V64.9392H260.84V63.3923Z" fill="white"/>
<path d="M21.7599 66.074H23.2656L23.2727 64.4476C26.3196 64.2274 28.0668 62.5513 28.0739 60.172C28.0668 57.6507 25.9858 56.5001 23.7983 55.9817L23.3295 55.8609L23.358 51.8055C24.4943 52.0044 25.2259 52.6862 25.3395 53.7089H27.875C27.8324 51.4504 26.0568 49.8027 23.3722 49.547L23.3793 47.8922H21.8736L21.8665 49.547C19.2031 49.8169 17.2855 51.4504 17.2926 53.8013C17.2926 55.8893 18.777 57.0896 21.1705 57.7075L21.8097 57.8709L21.7812 62.1677C20.5099 61.9689 19.5938 61.2444 19.5014 59.9589H16.9091C17.0085 62.6223 18.8409 64.2061 21.767 64.4476L21.7599 66.074ZM23.2869 62.1677L23.3153 58.2686C24.608 58.645 25.4318 59.1422 25.4389 60.1507C25.4318 61.2018 24.5866 61.9547 23.2869 62.1677ZM21.8239 55.4774C20.8438 55.1649 19.9489 54.6464 19.9631 53.6379C19.9702 52.7217 20.6591 52.0115 21.8523 51.8055L21.8239 55.4774Z" fill="white"/>
<rect x="34" y="48.2558" width="101" height="18" rx="9" fill="white" fill-opacity="0.2"/>
</g>
<defs>
<linearGradient id="paint0_linear" x1="109.841" y1="-1.89433e-05" x2="109.841" y2="178.256" gradientUnits="userSpaceOnUse">
<stop stop-color="#1E326F"/>
<stop offset="1" stop-color="#090C38"/>
</linearGradient>
<clipPath id="clip0">
<rect width="280" height="178.256" rx="8.13953" fill="white"/>
</clipPath>
</defs>
</svg>
