<svg width="42" height="42" viewBox="0 0 42 42" fill="none" xmlns="http://www.w3.org/2000/svg">
<g clip-path="url(#clip0)">
<path d="M10.4577 16.8983V14.6314C10.4577 13.5268 11.3532 12.6314 12.4577 12.6314H14.7246" stroke="#374151" stroke-linecap="round" stroke-linejoin="round"/>
<path d="M31.5423 25.1771L31.5423 27.444C31.5423 28.5485 30.6468 29.444 29.5423 29.444L27.2754 29.444" stroke="#374151" stroke-linecap="round" stroke-linejoin="round"/>
<path d="M27.2707 12.6267L29.5376 12.6267C30.6422 12.6267 31.5376 13.5221 31.5376 14.6267L31.5376 16.8936" stroke="#374151" stroke-linecap="round" stroke-linejoin="round"/>
<path d="M14.7293 29.4488H12.4624C11.3578 29.4488 10.4624 28.5533 10.4624 27.4488V25.1819" stroke="#374151" stroke-linecap="round" stroke-linejoin="round"/>
<path d="M15.75 16C14.7835 16 14 16.7462 14 17.6667V18.5H28V17.6667C28 16.7462 27.2165 16 26.25 16H15.75Z" fill="#374151"/>
<path fill-rule="evenodd" clip-rule="evenodd" d="M28 20.1667H14V24.3333C14 25.2538 14.7835 26 15.75 26H26.25C27.2165 26 28 25.2538 28 24.3333V20.1667ZM15.75 23.5C15.75 23.0398 16.1418 22.6667 16.625 22.6667H17.5C17.9832 22.6667 18.375 23.0398 18.375 23.5C18.375 23.9602 17.9832 24.3333 17.5 24.3333H16.625C16.1418 24.3333 15.75 23.9602 15.75 23.5ZM20.125 22.6667C19.6418 22.6667 19.25 23.0398 19.25 23.5C19.25 23.9602 19.6418 24.3333 20.125 24.3333H21C21.4832 24.3333 21.875 23.9602 21.875 23.5C21.875 23.0398 21.4832 22.6667 21 22.6667H20.125Z" fill="#374151"/>
</g>
<defs>
<clipPath id="clip0">
<rect width="24" height="24" fill="white" transform="translate(9 9)"/>
</clipPath>
</defs>
</svg>
