<svg width="342" height="241" viewBox="0 0 342 241" fill="none" xmlns="http://www.w3.org/2000/svg">
<g filter="url(#filter0_d)">
<g clip-path="url(#clip0)">
<rect x="31" y="14.7441" width="280" height="178.256" rx="8.13953" fill="url(#paint0_linear)"/>
<rect x="47.2791" y="94.9999" width="45.3779" height="17.093" rx="8.54651" fill="white" fill-opacity="0.2"/>
<rect x="100.797" y="94.9999" width="45.3779" height="17.093" rx="8.54651" fill="white" fill-opacity="0.2"/>
<rect x="154.314" y="94.9999" width="45.3779" height="17.093" rx="8.54651" fill="white" fill-opacity="0.2"/>
<rect x="207.831" y="94.9999" width="45.3779" height="17.093" rx="8.54651" fill="white" fill-opacity="0.2"/>
<path d="M268.697 153.753H280.048V174.066H268.697V153.753Z" fill="#F16022"/>
<path d="M269.37 163.909C269.37 159.828 271.294 156.126 274.372 153.753C272.16 152.044 269.37 151 266.292 151C259.077 151 253.209 156.79 253.209 163.909C253.209 171.028 259.077 176.819 266.292 176.819C269.37 176.819 272.16 175.774 274.372 174.066C271.294 171.693 269.37 167.991 269.37 163.909Z" fill="#E91D25"/>
<path d="M295.535 163.909C295.535 171.028 289.667 176.819 282.453 176.819C279.375 176.819 276.585 175.774 274.373 174.066C277.451 171.693 279.375 168.086 279.375 163.909C279.375 159.828 277.451 156.126 274.373 153.753C276.585 152.044 279.375 151 282.453 151C289.667 151 295.535 156.79 295.535 163.909Z" fill="#F69E1E"/>
<path d="M53.6055 168.857H52.1532C52.1347 169.102 52.0902 169.315 52.0197 169.497C51.9492 169.679 51.8546 169.829 51.7359 169.948C51.6172 170.07 51.4726 170.161 51.3019 170.22C51.1313 170.276 50.9365 170.304 50.7177 170.304C50.5433 170.304 50.3875 170.281 50.2503 170.237C50.1168 170.192 49.9944 170.127 49.8831 170.042C49.7829 169.961 49.6939 169.86 49.616 169.742C49.5418 169.623 49.4787 169.491 49.4268 169.347C49.3563 169.154 49.3044 168.935 49.271 168.69C49.2376 168.445 49.2209 168.174 49.2209 167.878V166.765C49.2209 166.535 49.2321 166.316 49.2543 166.108C49.2766 165.901 49.3137 165.71 49.3656 165.535C49.425 165.316 49.5066 165.123 49.6104 164.957C49.7143 164.786 49.8404 164.652 49.9888 164.556C50.0852 164.485 50.1947 164.432 50.3171 164.395C50.4432 164.357 50.5786 164.339 50.7233 164.339C50.9644 164.339 51.1702 164.372 51.3409 164.439C51.5152 164.506 51.6599 164.604 51.7749 164.734C51.8899 164.864 51.977 165.023 52.0364 165.212C52.0994 165.398 52.1403 165.611 52.1588 165.852H53.611C53.5702 165.437 53.4794 165.062 53.3384 164.728C53.1974 164.395 53.0064 164.113 52.7653 163.883C52.5242 163.649 52.233 163.469 51.8917 163.343C51.5505 163.217 51.161 163.154 50.7233 163.154C50.4154 163.154 50.1297 163.195 49.8664 163.276C49.603 163.354 49.3637 163.467 49.1486 163.616C48.9075 163.782 48.6942 163.985 48.5087 164.222C48.327 164.459 48.1786 164.728 48.0636 165.029C47.9597 165.285 47.8818 165.561 47.8299 165.858C47.778 166.151 47.752 166.457 47.752 166.776V167.878C47.752 168.215 47.7798 168.538 47.8355 168.846C47.8911 169.154 47.9727 169.437 48.0803 169.697C48.1879 169.961 48.3214 170.202 48.4809 170.42C48.6441 170.636 48.8296 170.821 49.0373 170.977C49.2599 171.14 49.5121 171.266 49.794 171.355C50.076 171.444 50.3838 171.489 50.7177 171.489C51.1331 171.489 51.5115 171.428 51.8528 171.305C52.194 171.179 52.4889 171.001 52.7375 170.771C52.986 170.541 53.1845 170.265 53.3328 169.942C53.4812 169.619 53.5721 169.258 53.6055 168.857ZM58.8636 169.597L59.3699 171.372H60.8834L58.2905 163.271H56.9885L54.3399 171.372H55.8589L56.3708 169.597H58.8636ZM56.7325 168.356L57.6339 165.263L58.513 168.356H56.7325ZM64.4834 168.289L66.0191 171.372H67.5715V171.3L65.8354 167.933C66.058 167.833 66.2583 167.714 66.4364 167.577C66.6181 167.44 66.7758 167.279 66.9093 167.093C67.0354 166.915 67.1337 166.711 67.2042 166.481C67.2747 166.251 67.3099 165.995 67.3099 165.713C67.3099 165.309 67.2395 164.955 67.0985 164.65C66.9613 164.346 66.7647 164.094 66.5087 163.894C66.249 163.69 65.9412 163.536 65.5851 163.432C65.229 163.324 64.8339 163.271 64.3999 163.271H61.7514V171.372H63.2036V168.289H64.4834ZM63.2036 167.104V164.45H64.3999C64.6225 164.45 64.8209 164.478 64.9953 164.534C65.1696 164.589 65.3198 164.669 65.446 164.773C65.5795 164.884 65.6796 165.027 65.7464 165.201C65.8169 165.372 65.8521 165.569 65.8521 165.791C65.8521 165.984 65.8225 166.158 65.7631 166.314C65.7075 166.466 65.6259 166.596 65.5183 166.704C65.3922 166.833 65.2345 166.934 65.0453 167.004C64.8599 167.071 64.6484 167.104 64.411 167.104H63.2036ZM68.5396 171.372H70.654C71.0212 171.372 71.3643 171.327 71.6833 171.238C72.0061 171.149 72.2991 171.021 72.5625 170.854C72.7925 170.71 73.0039 170.532 73.1968 170.32C73.3897 170.105 73.5566 169.87 73.6976 169.614C73.8422 169.339 73.9535 169.037 74.0314 168.707C74.1093 168.373 74.1483 168.022 74.1483 167.655V166.999C74.1483 166.613 74.1056 166.249 74.0203 165.908C73.9387 165.567 73.82 165.255 73.6642 164.973C73.5232 164.721 73.3526 164.491 73.1523 164.283C72.9557 164.076 72.7313 163.901 72.479 163.76C72.2157 163.604 71.9263 163.484 71.611 163.399C71.2957 163.313 70.9563 163.271 70.5928 163.271H68.5396V171.372ZM70.003 164.45H70.5928C70.7968 164.45 70.9841 164.474 71.1548 164.522C71.3291 164.567 71.4867 164.63 71.6277 164.712C71.8169 164.819 71.9801 164.96 72.1174 165.135C72.2583 165.305 72.3714 165.5 72.4568 165.719C72.5272 165.901 72.5792 166.099 72.6126 166.314C72.6497 166.526 72.6701 166.75 72.6738 166.987V167.655C72.6701 167.904 72.6497 168.135 72.6126 168.351C72.5792 168.566 72.5291 168.762 72.4623 168.94C72.3807 169.152 72.2787 169.337 72.1563 169.497C72.0376 169.656 71.9004 169.788 71.7446 169.892C71.5962 169.992 71.4311 170.07 71.2493 170.126C71.0676 170.178 70.8691 170.203 70.654 170.203H70.003V164.45ZM87.569 171.372V163.271H86.1445V166.626H83.6351V163.271H82.2051V171.372H83.6351V167.811H86.1445V171.372H87.569ZM94.6966 167.889V166.765C94.6929 166.412 94.6595 166.077 94.5965 165.758C94.5334 165.439 94.4407 165.142 94.3183 164.867C94.2033 164.619 94.0642 164.391 93.9009 164.183C93.7377 163.972 93.5485 163.792 93.3334 163.643C93.1183 163.491 92.8734 163.373 92.5989 163.287C92.3281 163.202 92.0351 163.159 91.7198 163.159C91.4045 163.159 91.1152 163.202 90.8518 163.287C90.5884 163.369 90.351 163.486 90.1396 163.638C89.9244 163.794 89.7353 163.979 89.572 164.194C89.4125 164.406 89.2771 164.641 89.1659 164.901C89.0509 165.172 88.9637 165.465 88.9043 165.78C88.8487 166.095 88.819 166.424 88.8153 166.765V167.889C88.819 168.215 88.8469 168.529 88.8988 168.829C88.9507 169.126 89.0286 169.404 89.1325 169.664C89.2438 169.942 89.3829 170.194 89.5498 170.42C89.7167 170.643 89.9059 170.834 90.1173 170.994C90.3362 171.149 90.5792 171.27 90.8462 171.355C91.1133 171.441 91.4064 171.483 91.7254 171.483C92.0295 171.483 92.3115 171.444 92.5711 171.366C92.8308 171.288 93.0682 171.179 93.2833 171.038C93.5133 170.882 93.7173 170.693 93.8954 170.471C94.0734 170.244 94.2218 169.996 94.3405 169.725C94.4555 169.458 94.5427 169.17 94.602 168.863C94.6614 168.551 94.6929 168.226 94.6966 167.889ZM93.2277 166.754V167.889C93.2277 168.089 93.2166 168.286 93.1943 168.479C93.1757 168.668 93.1442 168.844 93.0997 169.007C93.0478 169.211 92.9773 169.395 92.8883 169.558C92.803 169.721 92.6972 169.859 92.5711 169.97C92.4635 170.07 92.3393 170.146 92.1983 170.198C92.0574 170.25 91.8997 170.276 91.7254 170.276C91.5436 170.276 91.3822 170.248 91.2413 170.192C91.104 170.137 90.9835 170.059 90.8796 169.959C90.7646 169.851 90.6663 169.714 90.5847 169.547C90.5031 169.376 90.44 169.193 90.3955 168.996C90.3547 168.829 90.3251 168.653 90.3065 168.467C90.2917 168.278 90.2843 168.085 90.2843 167.889V166.754C90.2843 166.55 90.2935 166.351 90.3121 166.158C90.3306 165.965 90.3603 165.784 90.4011 165.613C90.4493 165.405 90.5161 165.22 90.6014 165.057C90.6904 164.893 90.7999 164.756 90.9297 164.645C91.0298 164.56 91.1448 164.495 91.2747 164.45C91.4045 164.402 91.5529 164.378 91.7198 164.378C91.8904 164.378 92.0425 164.404 92.1761 164.456C92.3133 164.504 92.4357 164.571 92.5433 164.656C92.6731 164.767 92.7825 164.905 92.8716 165.068C92.9643 165.231 93.0385 165.413 93.0941 165.613C93.1424 165.784 93.1757 165.965 93.1943 166.158C93.2166 166.351 93.2277 166.55 93.2277 166.754ZM97.5343 170.192V163.271H96.0765V171.372H101.362V170.192H97.5343ZM102.759 171.372H104.873C105.241 171.372 105.584 171.327 105.903 171.238C106.225 171.149 106.519 171.021 106.782 170.854C107.012 170.71 107.223 170.532 107.416 170.32C107.609 170.105 107.776 169.87 107.917 169.614C108.062 169.339 108.173 169.037 108.251 168.707C108.329 168.373 108.368 168.022 108.368 167.655V166.999C108.368 166.613 108.325 166.249 108.24 165.908C108.158 165.567 108.039 165.255 107.884 164.973C107.743 164.721 107.572 164.491 107.372 164.283C107.175 164.076 106.951 163.901 106.698 163.76C106.435 163.604 106.146 163.484 105.83 163.399C105.515 163.313 105.176 163.271 104.812 163.271H102.759V171.372ZM104.222 164.45H104.812C105.016 164.45 105.204 164.474 105.374 164.522C105.549 164.567 105.706 164.63 105.847 164.712C106.036 164.819 106.2 164.96 106.337 165.135C106.478 165.305 106.591 165.5 106.676 165.719C106.747 165.901 106.799 166.099 106.832 166.314C106.869 166.526 106.889 166.75 106.893 166.987V167.655C106.889 167.904 106.869 168.135 106.832 168.351C106.799 168.566 106.749 168.762 106.682 168.94C106.6 169.152 106.498 169.337 106.376 169.497C106.257 169.656 106.12 169.788 105.964 169.892C105.816 169.992 105.651 170.07 105.469 170.126C105.287 170.178 105.089 170.203 104.873 170.203H104.222V164.45ZM114.527 167.783V166.62H111.189V164.461H115.067V163.271H109.731V171.372H115.089V170.192H111.189V167.783H114.527ZM119.234 168.289L120.77 171.372H122.323V171.3L120.587 167.933C120.809 167.833 121.009 167.714 121.187 167.577C121.369 167.44 121.527 167.279 121.66 167.093C121.787 166.915 121.885 166.711 121.955 166.481C122.026 166.251 122.061 165.995 122.061 165.713C122.061 165.309 121.991 164.955 121.85 164.65C121.712 164.346 121.516 164.094 121.26 163.894C121 163.69 120.692 163.536 120.336 163.432C119.98 163.324 119.585 163.271 119.151 163.271H116.502V171.372H117.955V168.289H119.234ZM117.955 167.104V164.45H119.151C119.374 164.45 119.572 164.478 119.746 164.534C119.921 164.589 120.071 164.669 120.197 164.773C120.331 164.884 120.431 165.027 120.498 165.201C120.568 165.372 120.603 165.569 120.603 165.791C120.603 165.984 120.574 166.158 120.514 166.314C120.459 166.466 120.377 166.596 120.269 166.704C120.143 166.833 119.986 166.934 119.796 167.004C119.611 167.071 119.4 167.104 119.162 167.104H117.955Z" fill="white"/>
<path d="M248.189 36.2297C247.946 34.7104 246.757 33.8225 245.255 33.8225C243.416 33.8225 242.06 35.1995 242.06 37.4714C242.06 39.7433 243.409 41.1203 245.255 41.1203C246.816 41.1203 247.957 40.1422 248.189 38.7374L247.107 38.7339C246.923 39.6427 246.16 40.1422 245.262 40.1422C244.044 40.1422 243.125 39.2091 243.125 37.4714C243.125 35.7475 244.041 34.8006 245.265 34.8006C246.17 34.8006 246.93 35.3105 247.107 36.2297H248.189ZM250.093 33.9196H248.934L251.49 41.0232H252.729L255.285 33.9196H254.126L252.149 39.7051H252.07L250.093 33.9196ZM261.858 36.2297C261.615 34.7104 260.425 33.8225 258.923 33.8225C257.085 33.8225 255.729 35.1995 255.729 37.4714C255.729 39.7433 257.078 41.1203 258.923 41.1203C260.484 41.1203 261.625 40.1422 261.858 38.7374L260.776 38.7339C260.592 39.6427 259.829 40.1422 258.93 40.1422C257.713 40.1422 256.794 39.2091 256.794 37.4714C256.794 35.7475 257.709 34.8006 258.934 34.8006C259.839 34.8006 260.599 35.3105 260.776 36.2297H261.858ZM263.043 41.0232H267.719V40.104H264.521V40.052L265.933 38.5744C267.233 37.2598 267.604 36.632 267.604 35.8377C267.604 34.6966 266.675 33.8225 265.336 33.8225C264.007 33.8225 263.036 34.6827 263.036 35.9799H264.06C264.056 35.2168 264.549 34.7174 265.315 34.7174C266.037 34.7174 266.585 35.1613 266.585 35.8689C266.585 36.4967 266.21 36.9476 265.447 37.7558L263.043 40.2462V41.0232ZM269.731 36.5834C270.109 36.5834 270.424 36.2747 270.424 35.8897C270.424 35.5117 270.109 35.1995 269.731 35.1995C269.349 35.1995 269.037 35.5117 269.037 35.8897C269.037 36.2747 269.349 36.5834 269.731 36.5834ZM269.731 40.1422C270.109 40.1422 270.424 39.8335 270.424 39.4485C270.424 39.0704 270.109 38.7582 269.731 38.7582C269.349 38.7582 269.037 39.0704 269.037 39.4485C269.037 39.8335 269.349 40.1422 269.731 40.1422Z" fill="white"/>
<rect x="274.372" y="31.0232" width="21.1628" height="13.0233" rx="6.51163" fill="white" fill-opacity="0.2"/>
<path d="M124.693 130L123.138 124.318H124.31L125.019 127.192L125.434 128.982H125.491L125.914 127.192L126.63 124.318H127.745L126.191 130H124.693ZM131.535 130L131.136 128.559H129.451L129.061 130H127.986L129.582 124.318H131.063L132.667 130H131.535ZM130.331 125.368H130.265L129.639 127.688H130.957L130.331 125.368ZM133.575 130V124.318H134.641V129.121H137.156V130H133.575ZM138.277 130V129.202H139.554V125.116H138.277V124.318H141.89V125.116H140.613V129.202H141.89V130H138.277ZM143.116 124.318H144.883C145.621 124.318 146.169 124.563 146.527 125.051C146.89 125.539 147.072 126.242 147.072 127.159C147.072 128.082 146.89 128.787 146.527 129.275C146.169 129.758 145.621 130 144.883 130H143.116V124.318ZM144.809 129.145C145.2 129.145 145.488 129.018 145.672 128.763C145.862 128.508 145.957 128.136 145.957 127.648V126.663C145.957 126.18 145.862 125.811 145.672 125.556C145.488 125.301 145.2 125.173 144.809 125.173H144.166V129.145H144.809ZM125.971 134.198V139H124.913V134.198H123.203V133.318H127.68V134.198H125.971ZM131.153 136.558H129.492V139H128.426V133.318H129.492V135.679H131.153V133.318H132.219V139H131.153V136.558ZM134.479 139H133.412V133.318H135.569C136.123 133.318 136.546 133.476 136.839 133.791C137.132 134.105 137.279 134.534 137.279 135.077C137.279 135.494 137.181 135.847 136.986 136.135C136.796 136.417 136.522 136.596 136.163 136.672L137.376 139H136.204L135.122 136.794H134.479V139ZM135.349 135.964C135.637 135.964 135.843 135.907 135.968 135.793C136.093 135.674 136.155 135.486 136.155 135.231V134.922C136.155 134.667 136.093 134.482 135.968 134.368C135.843 134.249 135.637 134.189 135.349 134.189H134.479V135.964H135.349ZM139.213 133.318V136.859C139.213 137.071 139.218 137.261 139.229 137.429C139.245 137.597 139.28 137.741 139.335 137.86C139.394 137.974 139.481 138.064 139.595 138.129C139.714 138.194 139.877 138.227 140.083 138.227C140.29 138.227 140.45 138.194 140.564 138.129C140.683 138.064 140.77 137.974 140.824 137.86C140.884 137.741 140.919 137.597 140.93 137.429C140.946 137.261 140.954 137.071 140.954 136.859V133.318H142.021V136.696C142.021 137.098 141.996 137.448 141.947 137.746C141.899 138.045 141.804 138.294 141.663 138.495C141.521 138.696 141.323 138.848 141.068 138.951C140.819 139.049 140.49 139.098 140.083 139.098C139.677 139.098 139.346 139.049 139.09 138.951C138.841 138.848 138.646 138.696 138.504 138.495C138.363 138.294 138.268 138.045 138.22 137.746C138.171 137.448 138.146 137.098 138.146 136.696V133.318H139.213Z" fill="white"/>
<rect x="153.93" y="125.035" width="34.186" height="13.8372" rx="6.9186" fill="white" fill-opacity="0.2"/>
<path d="M259.935 82.8064V82.9294C259.935 83.3865 259.992 83.8123 260.105 84.2068C260.222 84.5974 260.388 84.9373 260.603 85.2263C260.814 85.5115 261.074 85.7361 261.383 85.9001C261.691 86.0603 262.037 86.1404 262.42 86.1404C262.783 86.1404 263.101 86.072 263.375 85.9353C263.652 85.7986 263.89 85.6072 264.09 85.3611L264.166 86.0232H265.537V77.0232H264.019V80.2634C263.82 80.0408 263.592 79.8689 263.334 79.7478C263.076 79.6267 262.775 79.5662 262.431 79.5662C262.041 79.5662 261.691 79.6443 261.383 79.8005C261.074 79.9568 260.812 80.1775 260.597 80.4626C260.383 80.7478 260.219 81.0896 260.105 81.488C259.992 81.8865 259.935 82.3259 259.935 82.8064ZM261.447 82.9294V82.8064C261.447 82.5291 261.472 82.2693 261.523 82.0271C261.574 81.7849 261.654 81.572 261.763 81.3884C261.873 81.2087 262.013 81.0681 262.185 80.9666C262.361 80.8611 262.572 80.8083 262.818 80.8083C263.111 80.8083 263.355 80.8728 263.551 81.0017C263.746 81.1306 263.902 81.3064 264.019 81.5291V84.1716C263.902 84.3982 263.746 84.5759 263.551 84.7048C263.355 84.8337 263.107 84.8982 262.806 84.8982C262.56 84.8982 262.351 84.8474 262.179 84.7458C262.008 84.6443 261.869 84.5037 261.763 84.324C261.65 84.1443 261.568 83.9353 261.517 83.697C261.47 83.4587 261.447 83.2029 261.447 82.9294ZM270.336 86.1404C270.949 86.1404 271.476 86.0212 271.918 85.783C272.363 85.5408 272.689 85.2693 272.896 84.9685L272.117 84.1658C271.926 84.4119 271.679 84.5994 271.379 84.7283C271.078 84.8572 270.761 84.9216 270.429 84.9216C270.187 84.9216 269.965 84.8826 269.761 84.8044C269.562 84.7263 269.385 84.6169 269.228 84.4763C269.08 84.3396 268.961 84.1853 268.871 84.0134C268.785 83.8416 268.717 83.6228 268.666 83.3572V83.3337H273.019V82.6892C273.019 82.2283 272.957 81.8064 272.832 81.4236C272.707 81.0369 272.523 80.7068 272.281 80.4333C272.035 80.1599 271.734 79.947 271.379 79.7947C271.027 79.6423 270.623 79.5662 270.166 79.5662C269.74 79.5662 269.342 79.6462 268.97 79.8064C268.603 79.9626 268.283 80.1833 268.01 80.4685C267.736 80.7576 267.521 81.1033 267.365 81.5056C267.213 81.9041 267.136 82.3494 267.136 82.8416V83.0759C267.136 83.5056 267.213 83.908 267.365 84.283C267.517 84.6541 267.734 84.9763 268.015 85.2498C268.297 85.5271 268.633 85.7458 269.023 85.906C269.418 86.0623 269.855 86.1404 270.336 86.1404ZM270.154 80.7966C270.377 80.7966 270.57 80.8337 270.734 80.908C270.902 80.9783 271.045 81.074 271.162 81.1951C271.275 81.3162 271.363 81.4607 271.426 81.6287C271.492 81.7966 271.525 81.9685 271.525 82.1443V82.2615H268.701C268.74 82.0349 268.801 81.8318 268.883 81.6521C268.969 81.4724 269.074 81.3181 269.199 81.1892C269.32 81.0603 269.461 80.9626 269.621 80.8962C269.785 80.8298 269.963 80.7966 270.154 80.7966ZM280.168 82.9177V82.7947C280.168 82.4236 280.135 82.074 280.068 81.7458C280.002 81.4177 279.902 81.1208 279.769 80.8552C279.676 80.6755 279.568 80.5115 279.447 80.363C279.33 80.2146 279.197 80.0857 279.049 79.9763C278.865 79.8435 278.658 79.7419 278.427 79.6716C278.201 79.6013 277.951 79.5662 277.677 79.5662C277.474 79.5662 277.285 79.5876 277.109 79.6306C276.937 79.6697 276.777 79.7302 276.629 79.8123C276.523 79.8708 276.424 79.9412 276.33 80.0232C276.236 80.1013 276.148 80.1873 276.066 80.281V77.0232H274.554V86.0232H275.92L275.99 85.3376C276.056 85.4275 276.127 85.5095 276.201 85.5837C276.279 85.6541 276.361 85.7185 276.447 85.7771C276.611 85.8943 276.795 85.9841 276.998 86.0466C277.205 86.1091 277.435 86.1404 277.689 86.1404C277.951 86.1404 278.191 86.1072 278.41 86.0408C278.633 85.9744 278.834 85.8787 279.013 85.7537C279.22 85.613 279.398 85.4373 279.547 85.2263C279.699 85.0154 279.822 84.7791 279.916 84.5173C279.998 84.2869 280.06 84.0388 280.103 83.7732C280.146 83.5037 280.168 83.2185 280.168 82.9177ZM278.65 82.7947V82.9177C278.65 83.0857 278.642 83.2498 278.627 83.4099C278.611 83.5662 278.586 83.7126 278.551 83.8494C278.508 84.033 278.445 84.197 278.363 84.3416C278.281 84.4861 278.176 84.6033 278.047 84.6931C277.953 84.7595 277.844 84.8123 277.719 84.8513C277.597 84.8865 277.461 84.9041 277.308 84.9041C277.136 84.9041 276.982 84.8845 276.845 84.8455C276.709 84.8025 276.59 84.7419 276.488 84.6638C276.394 84.6013 276.314 84.5271 276.248 84.4412C276.181 84.3513 276.121 84.2517 276.066 84.1423V81.5642C276.109 81.4783 276.158 81.3982 276.213 81.324C276.267 81.2458 276.328 81.1775 276.394 81.1189C276.504 81.0173 276.633 80.9412 276.781 80.8904C276.929 80.8357 277.101 80.8083 277.297 80.8083C277.445 80.8083 277.578 80.8259 277.695 80.8611C277.816 80.8923 277.926 80.9412 278.023 81.0076C278.164 81.113 278.273 81.2341 278.351 81.3708C278.429 81.5076 278.492 81.6599 278.539 81.8279C278.578 81.9724 278.605 82.1267 278.621 82.2908C278.64 82.4548 278.65 82.6228 278.65 82.7947ZM282.107 79.6833V80.9314H283.988V84.781H282.107V86.0232H287.31V84.781H285.517V79.6833H282.107ZM283.865 78.0544C283.865 78.1873 283.894 78.3083 283.953 78.4177C284.011 78.5271 284.095 78.6111 284.205 78.6697C284.314 78.7322 284.426 78.7693 284.539 78.781C284.656 78.7888 284.769 78.7732 284.879 78.7341C285.109 78.7146 285.287 78.6326 285.412 78.488C285.541 78.3435 285.599 78.1658 285.588 77.9548C285.576 77.74 285.494 77.5662 285.342 77.4333C285.193 77.3005 284.994 77.2341 284.744 77.2341C284.611 77.2341 284.49 77.2537 284.381 77.2927C284.275 77.3318 284.185 77.3865 284.111 77.4568C284.033 77.531 283.972 77.6189 283.929 77.7205C283.886 77.822 283.865 77.9333 283.865 78.0544ZM291.84 78.1365H290.322V79.6833H288.828V80.8083H290.322V83.8083C290.322 84.2224 290.375 84.5759 290.48 84.8689C290.59 85.1619 290.744 85.4021 290.943 85.5896C291.138 85.781 291.373 85.9216 291.646 86.0115C291.924 86.1013 292.228 86.1462 292.56 86.1462C292.74 86.1462 292.92 86.1365 293.099 86.1169C293.283 86.1013 293.459 86.0779 293.627 86.0466C293.795 86.0154 293.951 85.9763 294.095 85.9294C294.244 85.8826 294.373 85.8279 294.482 85.7654L294.324 84.7166C294.254 84.7361 294.166 84.7556 294.06 84.7751C293.959 84.7947 293.849 84.8123 293.732 84.8279C293.611 84.8474 293.484 84.865 293.351 84.8806C293.222 84.8923 293.097 84.8982 292.976 84.8982C292.808 84.8982 292.654 84.8787 292.513 84.8396C292.373 84.8005 292.252 84.7322 292.15 84.6345C292.052 84.5447 291.976 84.4236 291.922 84.2712C291.867 84.115 291.84 83.9197 291.84 83.6853V80.8083H294.213V79.6833H291.84V78.1365Z" fill="white"/>
</g>
</g>
<defs>
<filter id="filter0_d" x="0.0697641" y="0.0929747" width="341.86" height="240.116" filterUnits="userSpaceOnUse" color-interpolation-filters="sRGB">
<feFlood flood-opacity="0" result="BackgroundImageFix"/>
<feColorMatrix in="SourceAlpha" type="matrix" values="0 0 0 0 0 0 0 0 0 0 0 0 0 0 0 0 0 0 127 0" result="hardAlpha"/>
<feMorphology radius="9.76744" operator="erode" in="SourceAlpha" result="effect1_dropShadow"/>
<feOffset dy="16.2791"/>
<feGaussianBlur stdDeviation="20.3488"/>
<feColorMatrix type="matrix" values="0 0 0 0 0 0 0 0 0 0 0 0 0 0 0 0 0 0 0.25 0"/>
<feBlend mode="normal" in2="BackgroundImageFix" result="effect1_dropShadow"/>
<feBlend mode="normal" in="SourceGraphic" in2="effect1_dropShadow" result="shape"/>
</filter>
<linearGradient id="paint0_linear" x1="140.841" y1="14.7441" x2="140.841" y2="193" gradientUnits="userSpaceOnUse">
<stop stop-color="#1E326F"/>
<stop offset="1" stop-color="#090C38"/>
</linearGradient>
<clipPath id="clip0">
<rect x="31" y="14.7441" width="280" height="178.256" rx="8.13953" fill="white"/>
</clipPath>
</defs>
</svg>
