<svg width="92" height="20" viewBox="0 0 92 20" fill="none" xmlns="http://www.w3.org/2000/svg">
<path d="M0.797908 7.39784L3.95485 9.2315L10.3488 5.51064L0.944639 0.0408782C0.802355 -0.0394282 0.624499 0.00518645 0.540018 0.147953C0.513339 0.192568 0.5 0.246106 0.5 0.299643V6.88031C0.5 7.09446 0.61116 7.29077 0.797908 7.39784Z" fill="white"/>
<path d="M0.797908 12.5179C0.61116 12.625 0.5 12.8213 0.5 13.0355V19.6161C0.5 19.6697 0.513339 19.7232 0.540018 19.7678C0.620053 19.9106 0.802355 19.9552 0.944639 19.8749L11.4337 13.7761C11.5271 13.7225 11.5849 13.6244 11.5893 13.5173V6.24512L0.797908 12.5179Z" fill="white"/>
<path d="M48.5138 7.66084C48.1759 7.25484 47.7357 6.94254 47.2421 6.7507C46.6063 6.51424 45.9304 6.4027 45.2546 6.42055C44.4854 6.41609 43.7117 6.47409 42.9513 6.59008C42.3822 6.67485 41.8175 6.79531 41.2617 6.947V16.4142H43.5071V8.5219C43.6583 8.49513 43.8851 8.4639 44.1963 8.42821C44.4898 8.39252 44.7877 8.37467 45.0901 8.37021C45.4235 8.36129 45.7526 8.41483 46.0638 8.52636C46.3217 8.62451 46.5396 8.80297 46.6952 9.03051C46.8642 9.30266 46.9798 9.6105 47.0287 9.92726C47.1043 10.3689 47.1354 10.8151 47.131 11.2657V16.4009H49.3808V10.9088C49.3853 10.2976 49.3186 9.68634 49.1852 9.08851C49.0696 8.57098 48.8428 8.08021 48.5138 7.66084Z" fill="white"/>
<path d="M15.0762 5.53248H19.0201V16.4095H21.3678V5.53248H25.3118V3.49805H15.0762V5.53248Z" fill="white"/>
<path d="M81.4571 6.52749C81.257 6.49626 81.0569 6.46949 80.8613 6.45165C80.6656 6.4338 80.4922 6.42488 80.3455 6.42488C79.6163 6.42042 78.8915 6.4918 78.1801 6.63903C77.6288 6.75503 77.0863 6.90672 76.5527 7.09856V16.4186H78.7982V8.57977C78.9894 8.52177 79.185 8.48162 79.3851 8.45039C79.6474 8.40131 79.9098 8.37454 80.1765 8.37454C80.5589 8.37008 80.9413 8.40577 81.3193 8.47715C81.5816 8.52623 81.8395 8.59315 82.0929 8.67346L82.4798 6.75949C82.3686 6.71934 82.2219 6.67918 82.0351 6.63903C81.8439 6.59442 81.6572 6.55872 81.4571 6.52749Z" fill="white"/>
<path d="M30.3272 6.52749C30.1271 6.49626 29.927 6.46949 29.7314 6.45165C29.5358 6.4338 29.3624 6.42488 29.2156 6.42488C28.4864 6.42042 27.7617 6.4918 27.0502 6.63903C26.4989 6.75503 25.9564 6.90672 25.4229 7.09856V16.4186H27.6683V8.57977C27.8595 8.52177 28.0551 8.48162 28.2552 8.45039C28.5175 8.40131 28.7799 8.37454 29.0467 8.37454C29.4291 8.37008 29.8114 8.40577 30.1894 8.47715C30.4517 8.52623 30.7096 8.59315 30.9631 8.67346L31.3499 6.75949C31.2387 6.71934 31.092 6.67918 30.9053 6.63903C30.7141 6.59442 30.5229 6.55872 30.3272 6.52749Z" fill="white"/>
<path d="M38.758 7.47381C38.429 7.12135 38.011 6.85367 37.5575 6.69751C36.9661 6.50121 36.348 6.40752 35.73 6.42536C35.1653 6.4209 34.5962 6.47444 34.0404 6.57259C33.6357 6.63951 33.2311 6.73767 32.8309 6.86259L32.7776 6.88043L33.0666 8.78102L33.1422 8.75425C33.4712 8.64271 33.8136 8.55795 34.1515 8.50887C34.6006 8.43302 35.063 8.39733 35.521 8.40179C35.8278 8.39287 36.1302 8.43749 36.4192 8.5401C36.8505 8.69625 37.1706 9.05763 37.2818 9.50378C37.3396 9.73131 37.3707 9.97223 37.3707 10.2087V10.4853C37.1173 10.4273 36.8594 10.3827 36.6015 10.3515C36.348 10.3202 36.0946 10.3068 35.8412 10.3068C35.8323 10.3068 35.8278 10.3068 35.8189 10.3068C35.3254 10.3068 34.8318 10.3604 34.3516 10.4585C33.9025 10.5478 33.4757 10.7218 33.0844 10.9671C32.7242 11.2036 32.4219 11.5248 32.2129 11.904C31.9861 12.3368 31.875 12.8186 31.8928 13.3049C31.875 13.8002 31.9684 14.2999 32.1684 14.7594C32.3463 15.1386 32.622 15.4732 32.9599 15.7231C33.3289 15.9818 33.7336 16.1603 34.1738 16.2584C34.6851 16.37 35.2053 16.428 35.7256 16.4235C35.7656 16.4235 35.8011 16.4235 35.8412 16.4235C36.5659 16.4235 37.2996 16.37 38.0199 16.2674C38.7091 16.1648 39.2071 16.08 39.5361 16.0041L39.5895 15.9908V10.2221C39.5939 9.70454 39.5317 9.18701 39.3983 8.68287C39.2827 8.23672 39.0648 7.81734 38.758 7.47381ZM37.3663 12.145V14.456C36.8861 14.5319 36.397 14.5675 35.9123 14.5542H35.8456C35.3432 14.5452 34.943 14.4471 34.6451 14.2686C34.3472 14.0857 34.1915 13.7422 34.1915 13.2514C34.1827 13.0328 34.2405 12.8186 34.3605 12.6313C34.4761 12.4662 34.6317 12.3323 34.8096 12.2476C35.0141 12.1494 35.2276 12.087 35.4543 12.0557C35.9345 11.9844 36.4236 11.9844 36.9083 12.0557C37.055 12.0736 37.2106 12.1048 37.3663 12.145Z" fill="white"/>
<path d="M74.0566 7.47381C73.7276 7.12135 73.3096 6.85367 72.8561 6.69751C72.2647 6.50121 71.6467 6.40752 71.0286 6.42536C70.464 6.4209 69.8948 6.46998 69.3346 6.56813C68.9299 6.63505 68.5253 6.73321 68.1296 6.85813L68.0762 6.87597L68.3608 8.77656L68.4364 8.74979C68.7654 8.63825 69.1034 8.55348 69.4457 8.50441C69.8948 8.42856 70.3572 8.39287 70.8152 8.39733C71.122 8.38841 71.4244 8.43302 71.7134 8.53564C72.1447 8.69179 72.4648 9.05317 72.576 9.49932C72.6338 9.72685 72.6649 9.96777 72.6649 10.2042V10.4808C72.4115 10.4228 72.1536 10.3782 71.8957 10.347C71.6378 10.3158 71.3844 10.3024 71.1354 10.3024C71.1309 10.3024 71.1309 10.3024 71.1265 10.3024C70.6285 10.3024 70.126 10.3559 69.6414 10.4585C69.1923 10.5478 68.7654 10.7218 68.3741 10.9671C68.014 11.2036 67.7116 11.5248 67.5027 11.904C67.2759 12.3368 67.1647 12.8186 67.1825 13.3049C67.1692 13.8002 67.2625 14.3043 67.4671 14.7594C67.6449 15.1386 67.9206 15.4732 68.2585 15.7231C68.6276 15.9818 69.0367 16.1603 69.4724 16.2584C69.9793 16.37 70.504 16.428 71.0242 16.4235C71.0642 16.4235 71.0998 16.4235 71.1398 16.4235C71.8646 16.4235 72.5982 16.37 73.3185 16.2674C74.0077 16.1648 74.5057 16.08 74.8348 16.0041L74.8881 15.9908V10.2221C74.8926 9.70454 74.8303 9.18255 74.6969 8.68287C74.5769 8.23672 74.359 7.81734 74.0566 7.47381ZM72.6605 12.145V14.456C72.1803 14.5319 71.6912 14.5675 71.2065 14.5542H71.1398C70.6374 14.5452 70.2372 14.4471 69.9393 14.2686C69.6414 14.0857 69.4857 13.7422 69.4857 13.2514C69.4769 13.0328 69.5347 12.8186 69.6547 12.6313C69.7703 12.4662 69.9259 12.3323 70.1038 12.2476C70.3083 12.1494 70.5218 12.087 70.7485 12.0557C71.2287 11.9844 71.7178 11.9844 72.2025 12.0557C72.3537 12.0736 72.5093 12.1048 72.6605 12.145Z" fill="white"/>
<path d="M57.6328 12.5148C57.5217 12.207 57.3394 11.9215 57.1081 11.6939C56.8414 11.4352 56.539 11.221 56.21 11.0604C55.7831 10.8462 55.3429 10.6544 54.8983 10.4893C54.636 10.4001 54.3781 10.2975 54.1202 10.177C53.9423 10.0967 53.7689 9.9941 53.6133 9.8781C53.5066 9.7978 53.4176 9.69072 53.3598 9.57473C53.3065 9.45427 53.2843 9.32042 53.2843 9.18658C53.2754 8.91889 53.4221 8.67351 53.6578 8.55751C53.9779 8.40136 54.338 8.32551 54.7027 8.3389C55.1295 8.33444 55.5564 8.37905 55.9743 8.47274C56.2811 8.54413 56.5835 8.64228 56.8725 8.7672L56.9436 8.79843L57.366 6.90231L57.3127 6.88446C56.9436 6.75508 56.5612 6.65693 56.1788 6.58554C55.6586 6.48293 55.1251 6.42939 54.5959 6.43385C53.5021 6.43385 52.6262 6.69262 51.9859 7.19676C51.3412 7.70537 51.0166 8.40582 51.0166 9.28473C51.0033 9.6818 51.0744 10.0699 51.2256 10.4358C51.359 10.7436 51.5546 11.0158 51.8036 11.2389C52.0615 11.4708 52.355 11.6627 52.6662 11.8144C53.0175 11.9884 53.3865 12.1401 53.7511 12.2739C54.387 12.5104 54.8449 12.7334 55.1206 12.9342C55.3652 13.0904 55.5074 13.358 55.5074 13.6525V13.657C55.5297 13.9247 55.3874 14.179 55.1517 14.3039C54.9027 14.4377 54.4892 14.5046 53.9334 14.5046C53.9201 14.5046 53.9112 14.5046 53.8979 14.5046C53.3999 14.5046 52.9019 14.4422 52.4217 14.3173C52.0304 14.2147 51.648 14.0897 51.2789 13.947L51.2078 13.9157L50.8076 15.8609L50.861 15.8788C51.2078 16.0082 51.5635 16.1242 51.9237 16.2134C52.5106 16.3517 53.1153 16.4231 53.72 16.4231C53.7867 16.4231 53.8534 16.4231 53.9201 16.4186H53.9245C55.1562 16.4186 56.1166 16.1822 56.788 15.7137C57.4639 15.2408 57.8062 14.5359 57.8062 13.6213C57.8062 13.2421 57.7529 12.8717 57.6328 12.5148Z" fill="white"/>
<path d="M65.7435 14.027C65.4856 14.134 65.1744 14.2233 64.8231 14.2946C64.4718 14.366 64.1072 14.4017 63.7426 14.4017C62.7778 14.4017 62.0841 14.134 61.684 13.612C61.2793 13.0811 61.0704 12.3494 61.0704 11.4348C61.0704 10.4845 61.2882 9.73949 61.7195 9.22196C62.1464 8.70889 62.7778 8.44566 63.6004 8.44566C63.9516 8.44566 64.2851 8.48135 64.5963 8.55274C64.9076 8.62412 65.1922 8.71335 65.4367 8.82042L65.5079 8.85165L66.0059 6.94215L65.9525 6.91984C65.161 6.59415 64.3073 6.42908 63.4225 6.42908C62.7022 6.42908 62.0397 6.55846 61.4616 6.81276C60.8836 7.06707 60.3856 7.42398 59.981 7.87013C59.5764 8.31628 59.2607 8.85165 59.0472 9.46287C58.8294 10.0741 58.7227 10.7344 58.7227 11.4348C58.7227 12.1442 58.8205 12.8134 59.0117 13.4202C59.2029 14.0314 59.5008 14.5668 59.8921 15.0085C60.2833 15.4502 60.7858 15.8026 61.386 16.048C61.9819 16.2978 62.6933 16.4228 63.4981 16.4228C64.0139 16.4228 64.5208 16.3737 65.0054 16.28C65.4901 16.1818 65.8636 16.0748 66.1037 15.9498L66.1481 15.9275L65.8236 14.0002L65.7435 14.027Z" fill="white"/>
<path d="M91.4964 15.7581V15.0888L91.5009 2.04797L89.2021 2.43166V6.90651C88.9397 6.78159 88.6685 6.67452 88.3928 6.58975C87.9971 6.47375 87.5836 6.41575 87.1745 6.42467C86.552 6.41129 85.9473 6.53175 85.3737 6.78159C84.8624 7.01359 84.4 7.36604 84.0443 7.80327C83.6619 8.27172 83.3862 8.80264 83.2172 9.38263C83.0216 10.0474 82.9282 10.7389 82.9371 11.4304C82.9282 12.1354 83.0394 12.8313 83.2706 13.5006C83.4796 14.0895 83.8041 14.6204 84.2354 15.0755C84.6579 15.5127 85.1825 15.8562 85.7517 16.0748C86.3697 16.3068 87.0144 16.4228 87.6725 16.4228C87.7036 16.4228 87.7348 16.4228 87.7659 16.4228C88.4551 16.4228 89.1487 16.3693 89.8246 16.2622C90.3715 16.1774 90.9184 16.057 91.4475 15.9008L91.4964 15.8875V15.7581ZM89.1976 14.259C89.0198 14.2947 88.8375 14.3259 88.6552 14.3438C88.3661 14.375 88.0682 14.3929 87.7748 14.3884C87.0011 14.3884 86.3831 14.1207 85.9473 13.5943C85.516 13.0767 85.2937 12.3495 85.2848 11.4394H85.2892V11.3724C85.2892 10.4668 85.4671 9.73955 85.8184 9.21309C86.1696 8.69556 86.7299 8.43234 87.4947 8.43234C87.4991 8.43234 87.508 8.43234 87.5124 8.43234C87.8459 8.43234 88.1705 8.49033 88.4862 8.60187C88.7397 8.68664 88.9798 8.80264 89.2021 8.9454V14.259H89.1976Z" fill="white"/>
</svg>
