<svg width="65" height="18" viewBox="0 0 65 18" fill="none" xmlns="http://www.w3.org/2000/svg">
<path d="M28.6177 7.10251C28.3386 6.76717 27.975 6.50922 27.5673 6.35076C27.0422 6.15545 26.4839 6.06332 25.9257 6.07806C25.2903 6.07438 24.6513 6.12228 24.0233 6.2181C23.5532 6.28811 23.0868 6.38761 22.6277 6.5129V14.3326H24.4824V7.81373C24.6072 7.79162 24.7945 7.76582 25.0516 7.73634C25.294 7.70686 25.5401 7.69212 25.7898 7.68844C26.0652 7.68107 26.337 7.72529 26.5941 7.81741C26.8071 7.89848 26.9871 8.04589 27.1156 8.23382C27.2552 8.45861 27.3507 8.71288 27.3911 8.97452C27.4535 9.33934 27.4792 9.70785 27.4755 10.08V14.3215H29.3339V9.78523C29.3375 9.28038 29.2825 8.77553 29.1723 8.28173C29.0768 7.85426 28.8895 7.44891 28.6177 7.10251Z" fill="white"/>
<path d="M1.00006 5.34475H4.25767V14.3289H6.1968V5.34475H9.45441V3.66437H1.00006V5.34475Z" fill="white"/>
<path d="M55.8289 6.1664C55.6636 6.14061 55.4984 6.1185 55.3368 6.10376C55.1752 6.08901 55.0319 6.08164 54.9107 6.08164C54.3084 6.07796 53.7098 6.13692 53.1222 6.25853C52.6668 6.35434 52.2187 6.47963 51.778 6.63809V14.3362H53.6327V7.86153C53.7906 7.81362 53.9522 7.78046 54.1174 7.75466C54.3341 7.71413 54.5508 7.69202 54.7712 7.69202C55.087 7.68833 55.4029 7.71781 55.715 7.77677C55.9317 7.81731 56.1447 7.87258 56.3541 7.93891L56.6736 6.35802C56.5818 6.32486 56.4606 6.29169 56.3063 6.25853C56.1484 6.22168 55.9941 6.1922 55.8289 6.1664Z" fill="white"/>
<path d="M13.598 6.1664C13.4328 6.14061 13.2675 6.1185 13.1059 6.10376C12.9443 6.08901 12.8011 6.08164 12.6799 6.08164C12.0776 6.07796 11.4789 6.13692 10.8913 6.25853C10.4359 6.35434 9.98785 6.47963 9.54713 6.63809V14.3362H11.4018V7.86153C11.5597 7.81362 11.7213 7.78046 11.8866 7.75466C12.1033 7.71413 12.32 7.69202 12.5403 7.69202C12.8562 7.68833 13.172 7.71781 13.4842 7.77677C13.7009 7.81731 13.9139 7.87258 14.1232 7.93891L14.4427 6.35802C14.3509 6.32486 14.2297 6.29169 14.0755 6.25853C13.9175 6.22168 13.7596 6.1922 13.598 6.1664Z" fill="white"/>
<path d="M20.5607 6.94784C20.2889 6.65672 19.9437 6.43562 19.5691 6.30664C19.0807 6.1445 18.5702 6.06711 18.0597 6.08185C17.5932 6.07817 17.1232 6.12239 16.6641 6.20346C16.3299 6.25873 15.9957 6.33981 15.6651 6.44299L15.6211 6.45773L15.8598 8.02756L15.9222 8.00545C16.194 7.91333 16.4768 7.84331 16.7559 7.80277C17.1268 7.74013 17.5088 7.71065 17.8871 7.71433C18.1405 7.70696 18.3902 7.74381 18.6289 7.82857C18.9852 7.95755 19.2496 8.25604 19.3414 8.62454C19.3892 8.81248 19.4149 9.01147 19.4149 9.20678V9.43526C19.2055 9.38735 18.9925 9.3505 18.7795 9.3247C18.5702 9.29891 18.3608 9.28785 18.1515 9.28785C18.1441 9.28785 18.1405 9.28785 18.1331 9.28785C17.7255 9.28785 17.3178 9.33207 16.9212 9.41314C16.5502 9.48685 16.1977 9.63056 15.8745 9.83324C15.577 10.0286 15.3272 10.2939 15.1546 10.6071C14.9673 10.9646 14.8755 11.3625 14.8902 11.7642C14.8755 12.1733 14.9526 12.586 15.1179 12.9655C15.2648 13.2788 15.4925 13.5552 15.7716 13.7615C16.0765 13.9752 16.4107 14.1227 16.7743 14.2037C17.1966 14.2958 17.6263 14.3438 18.056 14.3401C18.0891 14.3401 18.1184 14.3401 18.1515 14.3401C18.7501 14.3401 19.3561 14.2958 19.9511 14.2111C20.5203 14.1263 20.9317 14.0563 21.2034 13.9937L21.2475 13.9826V9.21784C21.2512 8.79037 21.1997 8.3629 21.0896 7.94649C20.9941 7.57799 20.8141 7.23159 20.5607 6.94784ZM19.4112 10.8061V12.715C19.0145 12.7776 18.6106 12.8071 18.2102 12.796H18.1552C17.7402 12.7887 17.4096 12.7076 17.1636 12.5602C16.9175 12.4091 16.7889 12.1253 16.7889 11.72C16.7816 11.5394 16.8293 11.3625 16.9285 11.2078C17.024 11.0714 17.1525 10.9609 17.2994 10.8909C17.4684 10.8098 17.6447 10.7582 17.832 10.7324C18.2286 10.6734 18.6326 10.6734 19.0329 10.7324C19.1541 10.7471 19.2826 10.7729 19.4112 10.8061Z" fill="white"/>
<path d="M49.7158 6.94784C49.4441 6.65672 49.0988 6.43562 48.7242 6.30664C48.2358 6.1445 47.7253 6.06711 47.2148 6.08185C46.7484 6.07817 46.2783 6.1187 45.8155 6.19977C45.4813 6.25505 45.1471 6.33612 44.8202 6.4393L44.7762 6.45404L45.0112 8.02388L45.0737 8.00177C45.3454 7.90964 45.6245 7.83962 45.9073 7.79909C46.2783 7.73644 46.6602 7.70696 47.0385 7.71065C47.2919 7.70328 47.5416 7.74013 47.7804 7.82488C48.1366 7.95386 48.401 8.25235 48.4929 8.62086C48.5406 8.80879 48.5663 9.00779 48.5663 9.2031V9.43157C48.357 9.38366 48.144 9.34681 47.9309 9.32102C47.7179 9.29522 47.5086 9.28417 47.3029 9.28417C47.2993 9.28417 47.2993 9.28417 47.2956 9.28417C46.8843 9.28417 46.4692 9.32839 46.0689 9.41314C45.698 9.48685 45.3454 9.63056 45.0222 9.83324C44.7248 10.0286 44.475 10.2939 44.3024 10.6071C44.1151 10.9646 44.0233 11.3625 44.038 11.7642C44.027 12.1733 44.1041 12.5897 44.273 12.9655C44.4199 13.2788 44.6476 13.5552 44.9268 13.7615C45.2316 13.9752 45.5695 14.1227 45.9294 14.2037C46.348 14.2958 46.7814 14.3438 47.2111 14.3401C47.2442 14.3401 47.2735 14.3401 47.3066 14.3401C47.9052 14.3401 48.5112 14.2958 49.1062 14.2111C49.6754 14.1263 50.0868 14.0563 50.3585 13.9937L50.4026 13.9826V9.21784C50.4063 8.79037 50.3549 8.35922 50.2447 7.94649C50.1455 7.57799 49.9656 7.23159 49.7158 6.94784ZM48.5626 10.8061V12.715C48.166 12.7776 47.762 12.8071 47.3617 12.796H47.3066C46.8916 12.7887 46.5611 12.7076 46.315 12.5602C46.0689 12.4091 45.9404 12.1253 45.9404 11.72C45.933 11.5394 45.9808 11.3625 46.08 11.2078C46.1754 11.0714 46.304 10.9609 46.4509 10.8909C46.6198 10.8098 46.7961 10.7582 46.9834 10.7324C47.3801 10.6734 47.784 10.6734 48.1844 10.7324C48.3092 10.7471 48.4378 10.7729 48.5626 10.8061Z" fill="white"/>
<path d="M36.1505 11.1115C36.0587 10.8572 35.9081 10.6214 35.7172 10.4335C35.4968 10.2197 35.2471 10.0428 34.9753 9.91018C34.6227 9.7333 34.2591 9.57484 33.8919 9.43849C33.6752 9.36479 33.4622 9.28004 33.2492 9.18054C33.1023 9.11421 32.959 9.02945 32.8305 8.93364C32.7423 8.86731 32.6689 8.77887 32.6212 8.68306C32.5771 8.58356 32.5587 8.47301 32.5587 8.36246C32.5514 8.14135 32.6726 7.93867 32.8672 7.84286C33.1316 7.71389 33.4291 7.65124 33.7303 7.6623C34.0828 7.65861 34.4354 7.69546 34.7806 7.77285C35.034 7.83181 35.2838 7.91288 35.5225 8.01606L35.5813 8.04186L35.9302 6.47571L35.8861 6.46097C35.5813 6.3541 35.2654 6.27303 34.9496 6.21407C34.5199 6.12931 34.0792 6.08509 33.6421 6.08878C32.7387 6.08878 32.0152 6.30251 31.4863 6.71892C30.9538 7.13902 30.6857 7.71757 30.6857 8.44353C30.6747 8.7715 30.7334 9.0921 30.8583 9.39427C30.9685 9.64854 31.1301 9.87333 31.3357 10.0576C31.5488 10.2492 31.7911 10.4077 32.0482 10.533C32.3384 10.6767 32.6432 10.802 32.9443 10.9125C33.4695 11.1078 33.8478 11.2921 34.0755 11.4579C34.2775 11.5869 34.395 11.808 34.395 12.0512V12.0549C34.4134 12.276 34.2959 12.486 34.1012 12.5892C33.8955 12.6998 33.554 12.755 33.0949 12.755C33.0839 12.755 33.0766 12.755 33.0655 12.755C32.6542 12.755 32.2429 12.7035 31.8462 12.6003C31.523 12.5155 31.2072 12.4123 30.9024 12.2944L30.8436 12.2686L30.5131 13.8753L30.5571 13.89C30.8436 13.9969 31.1374 14.0927 31.4349 14.1664C31.9197 14.2807 32.4192 14.3396 32.9186 14.3396C32.9737 14.3396 33.0288 14.3396 33.0839 14.3359H33.0876C34.1049 14.3359 34.8982 14.1406 35.4527 13.7537C36.011 13.3631 36.2938 12.7808 36.2938 12.0254C36.2938 11.7122 36.2497 11.4063 36.1505 11.1115Z" fill="white"/>
<path d="M42.8495 12.361C42.6365 12.4494 42.3794 12.5231 42.0893 12.5821C41.7992 12.641 41.498 12.6705 41.1969 12.6705C40.3999 12.6705 39.827 12.4494 39.4964 12.0183C39.1622 11.5798 38.9896 10.9754 38.9896 10.22C38.9896 9.43505 39.1696 8.81964 39.5258 8.39217C39.8784 7.96839 40.3999 7.75097 41.0793 7.75097C41.3695 7.75097 41.6449 7.78045 41.902 7.83941C42.1591 7.89838 42.3941 7.97208 42.5961 8.06052L42.6549 8.08631L43.0662 6.50911L43.0221 6.49068C42.3684 6.22167 41.6633 6.08533 40.9324 6.08533C40.3375 6.08533 39.7902 6.19219 39.3128 6.40224C38.8354 6.61229 38.424 6.90709 38.0898 7.2756C37.7556 7.64411 37.4949 8.08631 37.3186 8.59117C37.1386 9.09602 37.0505 9.64141 37.0505 10.22C37.0505 10.8059 37.1313 11.3586 37.2892 11.8598C37.4471 12.3647 37.6932 12.8069 38.0164 13.1717C38.3396 13.5365 38.7546 13.8276 39.2504 14.0303C39.7425 14.2367 40.3301 14.3399 40.9949 14.3399C41.4209 14.3399 41.8396 14.2993 42.2399 14.2219C42.6402 14.1409 42.9487 14.0524 43.147 13.9492L43.1837 13.9308L42.9156 12.3389L42.8495 12.361Z" fill="white"/>
<path d="M64.1198 13.7907V13.238L64.1235 2.46655L62.2248 2.78347V6.47958C62.0081 6.3764 61.784 6.28796 61.5563 6.21794C61.2295 6.12213 60.8879 6.07423 60.5501 6.0816C60.0359 6.07054 59.5364 6.17004 59.0626 6.3764C58.6403 6.56802 58.2583 6.85914 57.9645 7.22028C57.6487 7.60721 57.421 8.04573 57.2814 8.52479C57.1198 9.07386 57.0427 9.64505 57.0501 10.2162C57.0427 10.7985 57.1345 11.3733 57.3255 11.9261C57.4981 12.4125 57.7662 12.8511 58.1225 13.2269C58.4714 13.5881 58.9047 13.8718 59.3748 14.0524C59.8853 14.244 60.4178 14.3398 60.9614 14.3398C60.9871 14.3398 61.0128 14.3398 61.0385 14.3398C61.6078 14.3398 62.1807 14.2956 62.7389 14.2072C63.1907 14.1371 63.6424 14.0376 64.0794 13.9087L64.1198 13.8976V13.7907ZM62.2211 12.5526C62.0742 12.582 61.9236 12.6078 61.773 12.6226C61.5343 12.6484 61.2882 12.6631 61.0459 12.6594C60.4068 12.6594 59.8963 12.4383 59.5364 12.0035C59.1802 11.576 58.9965 10.9754 58.9892 10.2236H58.9929V10.1683C58.9929 9.42026 59.1398 8.8196 59.4299 8.38476C59.72 7.95729 60.1828 7.73987 60.8145 7.73987C60.8182 7.73987 60.8255 7.73987 60.8292 7.73987C61.1046 7.73987 61.3727 7.78778 61.6335 7.87991C61.8428 7.94992 62.0411 8.04573 62.2248 8.16366V12.5526H62.2211Z" fill="white"/>
</svg>
