<svg width="19" height="18" viewBox="0 0 19 18" fill="none" xmlns="http://www.w3.org/2000/svg">
<path fill-rule="evenodd" clip-rule="evenodd" d="M9.83192 1.125C7.29019 3.2985 3.16846 3.43023 3.16846 3.43023V9.22623C3.16846 12.7829 9.83192 16.875 9.83192 16.875C9.83192 16.875 16.4954 12.7829 16.4954 9.22623V3.43023C16.4954 3.43023 12.3737 3.2985 9.83192 1.125ZM8.19725 7.981L9.38429 8.67117L11.7885 7.27068L8.25242 5.21192C8.19892 5.18169 8.13205 5.19849 8.10028 5.25222C8.09025 5.26901 8.08524 5.28917 8.08524 5.30932V7.78621C8.08524 7.86681 8.12703 7.9407 8.19725 7.981ZM8.08532 10.1036C8.08532 10.023 8.12712 9.94911 8.19734 9.90881L12.255 7.54778V10.285C12.2533 10.3253 12.2316 10.3622 12.1965 10.3824L8.25251 12.6779C8.19901 12.7081 8.13047 12.6913 8.10037 12.6376C8.09034 12.6208 8.08532 12.6006 8.08532 12.5805L8.08532 10.1036Z" fill="#0089CF"/>
</svg>
