<svg width="144" height="72" viewBox="0 0 144 72" fill="none" xmlns="http://www.w3.org/2000/svg">
<rect x="0.5" y="0.5" width="143" height="71" rx="9.5" fill="white"/>
<path d="M24.5114 18.4545H26.5284L30.5625 25.2443H30.733L34.767 18.4545H36.7841L31.5284 27.0057V33H29.767V27.0057L24.5114 18.4545ZM41.7237 33.2273C40.7389 33.2273 39.8748 32.9929 39.1314 32.5241C38.3928 32.0554 37.8151 31.3996 37.3984 30.5568C36.9865 29.714 36.7805 28.7292 36.7805 27.6023C36.7805 26.4659 36.9865 25.474 37.3984 24.6264C37.8151 23.7789 38.3928 23.1207 39.1314 22.652C39.8748 22.1832 40.7389 21.9489 41.7237 21.9489C42.7086 21.9489 43.5703 22.1832 44.3089 22.652C45.0523 23.1207 45.63 23.7789 46.0419 24.6264C46.4586 25.474 46.6669 26.4659 46.6669 27.6023C46.6669 28.7292 46.4586 29.714 46.0419 30.5568C45.63 31.3996 45.0523 32.0554 44.3089 32.5241C43.5703 32.9929 42.7086 33.2273 41.7237 33.2273ZM41.7237 31.7216C42.4718 31.7216 43.0874 31.5298 43.5703 31.1463C44.0533 30.7628 44.4107 30.2585 44.6428 29.6335C44.8748 29.0085 44.9908 28.3314 44.9908 27.6023C44.9908 26.8731 44.8748 26.1937 44.6428 25.5639C44.4107 24.9342 44.0533 24.4252 43.5703 24.0369C43.0874 23.6487 42.4718 23.4545 41.7237 23.4545C40.9756 23.4545 40.3601 23.6487 39.8771 24.0369C39.3942 24.4252 39.0367 24.9342 38.8047 25.5639C38.5727 26.1937 38.4567 26.8731 38.4567 27.6023C38.4567 28.3314 38.5727 29.0085 38.8047 29.6335C39.0367 30.2585 39.3942 30.7628 39.8771 31.1463C40.3601 31.5298 40.9756 31.7216 41.7237 31.7216ZM56.1005 28.5398V22.0909H57.7766V33H56.1005V31.1534H55.9869C55.7312 31.7074 55.3335 32.1785 54.7937 32.5668C54.2539 32.9503 53.5721 33.142 52.7482 33.142C52.0664 33.142 51.4603 32.9929 50.93 32.6946C50.3997 32.3916 49.9831 31.937 49.68 31.331C49.377 30.7202 49.2255 29.9508 49.2255 29.0227V22.0909H50.9016V28.9091C50.9016 29.7045 51.1242 30.339 51.5692 30.8125C52.0191 31.286 52.592 31.5227 53.288 31.5227C53.7047 31.5227 54.1284 31.4162 54.5593 31.2031C54.9949 30.9901 55.3595 30.6634 55.6531 30.223C55.9513 29.7827 56.1005 29.2216 56.1005 28.5398ZM60.8466 33V22.0909H62.4659V23.7386H62.5795C62.7784 23.1989 63.1383 22.7609 63.6591 22.4247C64.1799 22.0885 64.767 21.9205 65.4205 21.9205C65.5436 21.9205 65.6974 21.9228 65.8821 21.9276C66.0668 21.9323 66.2064 21.9394 66.3011 21.9489V23.6534C66.2443 23.6392 66.1141 23.6179 65.9105 23.5895C65.7116 23.5563 65.5009 23.5398 65.2784 23.5398C64.7481 23.5398 64.2746 23.651 63.858 23.8736C63.446 24.0914 63.1193 24.3944 62.8778 24.7827C62.6411 25.1662 62.5227 25.6042 62.5227 26.0966V33H60.8466ZM74.1403 33V18.4545H75.9016V31.4375H82.663V33H74.1403ZM89.5948 33.2273C88.61 33.2273 87.7459 32.9929 87.0025 32.5241C86.2638 32.0554 85.6862 31.3996 85.2695 30.5568C84.8576 29.714 84.6516 28.7292 84.6516 27.6023C84.6516 26.4659 84.8576 25.474 85.2695 24.6264C85.6862 23.7789 86.2638 23.1207 87.0025 22.652C87.7459 22.1832 88.61 21.9489 89.5948 21.9489C90.5797 21.9489 91.4414 22.1832 92.18 22.652C92.9234 23.1207 93.5011 23.7789 93.913 24.6264C94.3297 25.474 94.538 26.4659 94.538 27.6023C94.538 28.7292 94.3297 29.714 93.913 30.5568C93.5011 31.3996 92.9234 32.0554 92.18 32.5241C91.4414 32.9929 90.5797 33.2273 89.5948 33.2273ZM89.5948 31.7216C90.3429 31.7216 90.9585 31.5298 91.4414 31.1463C91.9244 30.7628 92.2818 30.2585 92.5138 29.6335C92.7459 29.0085 92.8619 28.3314 92.8619 27.6023C92.8619 26.8731 92.7459 26.1937 92.5138 25.5639C92.2818 24.9342 91.9244 24.4252 91.4414 24.0369C90.9585 23.6487 90.3429 23.4545 89.5948 23.4545C88.8467 23.4545 88.2312 23.6487 87.7482 24.0369C87.2653 24.4252 86.9078 24.9342 86.6758 25.5639C86.4438 26.1937 86.3278 26.8731 86.3278 27.6023C86.3278 28.3314 86.4438 29.0085 86.6758 29.6335C86.9078 30.2585 87.2653 30.7628 87.7482 31.1463C88.2312 31.5298 88.8467 31.7216 89.5948 31.7216ZM101.5 37.3182C100.69 37.3182 99.9943 37.214 99.4119 37.0057C98.8295 36.8021 98.3442 36.5322 97.956 36.196C97.5724 35.8646 97.267 35.5095 97.0398 35.1307L98.375 34.1932C98.5265 34.392 98.7183 34.6193 98.9503 34.875C99.1823 35.1354 99.4995 35.3603 99.902 35.5497C100.309 35.7438 100.842 35.8409 101.5 35.8409C102.381 35.8409 103.107 35.6278 103.68 35.2017C104.253 34.7756 104.54 34.108 104.54 33.1989V30.983H104.398C104.275 31.1818 104.099 31.428 103.872 31.7216C103.65 32.0104 103.328 32.2685 102.906 32.4957C102.49 32.7183 101.926 32.8295 101.216 32.8295C100.335 32.8295 99.5445 32.6212 98.8438 32.2045C98.1477 31.7879 97.5961 31.1818 97.1889 30.3864C96.7865 29.5909 96.5852 28.625 96.5852 27.4886C96.5852 26.3712 96.7817 25.3982 97.1747 24.5696C97.5677 23.7363 98.1146 23.0923 98.8153 22.6378C99.5161 22.1785 100.326 21.9489 101.244 21.9489C101.955 21.9489 102.518 22.0672 102.935 22.304C103.356 22.536 103.678 22.8011 103.901 23.0994C104.128 23.393 104.303 23.6345 104.426 23.8239H104.597V22.0909H106.216V33.3125C106.216 34.25 106.003 35.0123 105.577 35.5994C105.155 36.1913 104.587 36.6245 103.872 36.8991C103.162 37.1785 102.371 37.3182 101.5 37.3182ZM101.443 31.3239C102.116 31.3239 102.684 31.17 103.148 30.8622C103.612 30.5545 103.964 30.1117 104.206 29.5341C104.447 28.9564 104.568 28.2652 104.568 27.4602C104.568 26.6742 104.45 25.9806 104.213 25.3793C103.976 24.7779 103.626 24.3068 103.162 23.9659C102.698 23.625 102.125 23.4545 101.443 23.4545C100.733 23.4545 100.141 23.6345 99.6676 23.9943C99.1989 24.3542 98.8461 24.8371 98.6094 25.4432C98.3774 26.0492 98.2614 26.7216 98.2614 27.4602C98.2614 28.2178 98.3797 28.8878 98.6165 29.4702C98.858 30.0478 99.2131 30.5024 99.6818 30.8338C100.155 31.1605 100.742 31.3239 101.443 31.3239ZM113.716 33.2273C112.731 33.2273 111.867 32.9929 111.124 32.5241C110.385 32.0554 109.807 31.3996 109.391 30.5568C108.979 29.714 108.773 28.7292 108.773 27.6023C108.773 26.4659 108.979 25.474 109.391 24.6264C109.807 23.7789 110.385 23.1207 111.124 22.652C111.867 22.1832 112.731 21.9489 113.716 21.9489C114.701 21.9489 115.563 22.1832 116.301 22.652C117.045 23.1207 117.622 23.7789 118.034 24.6264C118.451 25.474 118.659 26.4659 118.659 27.6023C118.659 28.7292 118.451 29.714 118.034 30.5568C117.622 31.3996 117.045 32.0554 116.301 32.5241C115.563 32.9929 114.701 33.2273 113.716 33.2273ZM113.716 31.7216C114.464 31.7216 115.08 31.5298 115.562 31.1463C116.045 30.7628 116.403 30.2585 116.635 29.6335C116.867 29.0085 116.983 28.3314 116.983 27.6023C116.983 26.8731 116.867 26.1937 116.635 25.5639C116.403 24.9342 116.045 24.4252 115.562 24.0369C115.08 23.6487 114.464 23.4545 113.716 23.4545C112.968 23.4545 112.352 23.6487 111.869 24.0369C111.386 24.4252 111.029 24.9342 110.797 25.5639C110.565 26.1937 110.449 26.8731 110.449 27.6023C110.449 28.3314 110.565 29.0085 110.797 29.6335C111.029 30.2585 111.386 30.7628 111.869 31.1463C112.352 31.5298 112.968 31.7216 113.716 31.7216Z" fill="#101010"/>
<path d="M31.3807 50V42.7273H33.8381C34.4086 42.7273 34.875 42.8303 35.2372 43.0362C35.6018 43.2398 35.8717 43.5156 36.0469 43.8636C36.2221 44.2116 36.3097 44.5999 36.3097 45.0284C36.3097 45.4569 36.2221 45.8464 36.0469 46.1967C35.8741 46.5471 35.6065 46.8265 35.2443 47.0348C34.8821 47.2408 34.4181 47.3438 33.8523 47.3438H32.0909V46.5625H33.8239C34.2145 46.5625 34.5282 46.495 34.7649 46.3601C35.0017 46.2251 35.1733 46.0429 35.2798 45.8132C35.3887 45.5812 35.4432 45.3196 35.4432 45.0284C35.4432 44.7372 35.3887 44.4768 35.2798 44.2472C35.1733 44.0175 35.0005 43.8376 34.7614 43.7074C34.5223 43.5748 34.205 43.5085 33.8097 43.5085H32.2614V50H31.3807ZM38.7283 50V42.7273H39.609V49.2188H42.9897V50H38.7283ZM46.1106 50H45.1873L47.8578 42.7273H48.7669L51.4373 50H50.514L48.3407 43.8778H48.2839L46.1106 50ZM46.4515 47.1591H50.1731V47.9403H46.4515V47.1591ZM59.0806 45H58.1999C58.1478 44.7467 58.0567 44.5241 57.9265 44.3324C57.7987 44.1406 57.6424 43.9796 57.4577 43.8494C57.2754 43.7169 57.073 43.6174 56.8505 43.5511C56.628 43.4848 56.396 43.4517 56.1545 43.4517C55.7141 43.4517 55.3152 43.563 54.9577 43.7855C54.6026 44.008 54.3197 44.3359 54.109 44.7692C53.9007 45.2024 53.7965 45.7339 53.7965 46.3636C53.7965 46.9934 53.9007 47.5249 54.109 47.9581C54.3197 48.3913 54.6026 48.7192 54.9577 48.9418C55.3152 49.1643 55.7141 49.2756 56.1545 49.2756C56.396 49.2756 56.628 49.2424 56.8505 49.1761C57.073 49.1098 57.2754 49.0116 57.4577 48.8814C57.6424 48.7488 57.7987 48.5866 57.9265 48.3949C58.0567 48.2008 58.1478 47.9782 58.1999 47.7273H59.0806C59.0143 48.099 58.8936 48.4316 58.7184 48.7251C58.5432 49.0187 58.3254 49.2685 58.065 49.4744C57.8046 49.678 57.5122 49.8331 57.1879 49.9396C56.8659 50.0462 56.5214 50.0994 56.1545 50.0994C55.5342 50.0994 54.9826 49.9479 54.4996 49.6449C54.0167 49.3419 53.6367 48.911 53.3597 48.3523C53.0827 47.7936 52.9442 47.1307 52.9442 46.3636C52.9442 45.5966 53.0827 44.9337 53.3597 44.375C53.6367 43.8163 54.0167 43.3854 54.4996 43.0824C54.9826 42.7794 55.5342 42.6278 56.1545 42.6278C56.5214 42.6278 56.8659 42.6811 57.1879 42.7876C57.5122 42.8942 57.8046 43.0504 58.065 43.2564C58.3254 43.46 58.5432 43.7086 58.7184 44.0021C58.8936 44.2933 59.0143 44.6259 59.0806 45ZM61.5037 50V42.7273H65.8929V43.5085H62.3844V45.9659H65.6657V46.7472H62.3844V49.2188H65.9498V50H61.5037ZM68.4803 50V42.7273H69.361V45.9659H73.2388V42.7273H74.1195V50H73.2388V46.7472H69.361V50H68.4803ZM83.019 46.3636C83.019 47.1307 82.8805 47.7936 82.6035 48.3523C82.3265 48.911 81.9466 49.3419 81.4636 49.6449C80.9806 49.9479 80.429 50.0994 79.8088 50.0994C79.1885 50.0994 78.6369 49.9479 78.1539 49.6449C77.671 49.3419 77.291 48.911 77.014 48.3523C76.737 47.7936 76.5985 47.1307 76.5985 46.3636C76.5985 45.5966 76.737 44.9337 77.014 44.375C77.291 43.8163 77.671 43.3854 78.1539 43.0824C78.6369 42.7794 79.1885 42.6278 79.8088 42.6278C80.429 42.6278 80.9806 42.7794 81.4636 43.0824C81.9466 43.3854 82.3265 43.8163 82.6035 44.375C82.8805 44.9337 83.019 45.5966 83.019 46.3636ZM82.1667 46.3636C82.1667 45.7339 82.0614 45.2024 81.8507 44.7692C81.6423 44.3359 81.3594 44.008 81.002 43.7855C80.6468 43.563 80.2491 43.4517 79.8088 43.4517C79.3684 43.4517 78.9695 43.563 78.612 43.7855C78.2569 44.008 77.974 44.3359 77.7633 44.7692C77.555 45.2024 77.4508 45.7339 77.4508 46.3636C77.4508 46.9934 77.555 47.5249 77.7633 47.9581C77.974 48.3913 78.2569 48.7192 78.612 48.9418C78.9695 49.1643 79.3684 49.2756 79.8088 49.2756C80.2491 49.2756 80.6468 49.1643 81.002 48.9418C81.3594 48.7192 81.6423 48.3913 81.8507 47.9581C82.0614 47.5249 82.1667 46.9934 82.1667 46.3636ZM85.4998 50V42.7273H86.3805V49.2188H89.7612V50H85.4998ZM94.3691 50H92.1248V42.7273H94.4686C95.1741 42.7273 95.7778 42.8729 96.2797 43.1641C96.7815 43.4529 97.1663 43.8684 97.4338 44.4105C97.7013 44.9503 97.835 45.5966 97.835 46.3494C97.835 47.107 97.7001 47.7592 97.4302 48.3061C97.1603 48.8506 96.7673 49.2696 96.2512 49.5632C95.7351 49.8544 95.1078 50 94.3691 50ZM93.0055 49.2188H94.3123C94.9136 49.2188 95.412 49.1027 95.8074 48.8707C96.2027 48.6387 96.4975 48.3085 96.6916 47.88C96.8857 47.4515 96.9828 46.9413 96.9828 46.3494C96.9828 45.7623 96.8869 45.2569 96.6951 44.8331C96.5034 44.407 96.2169 44.0803 95.8358 43.853C95.4546 43.6233 94.9799 43.5085 94.4118 43.5085H93.0055V49.2188ZM100.312 50V42.7273H104.702V43.5085H101.193V45.9659H104.474V46.7472H101.193V49.2188H104.758V50H100.312ZM107.289 50V42.7273H109.746C110.314 42.7273 110.781 42.8243 111.145 43.0185C111.51 43.2102 111.78 43.4742 111.955 43.8104C112.13 44.1465 112.218 44.5289 112.218 44.9574C112.218 45.3859 112.13 45.7659 111.955 46.0973C111.78 46.4287 111.511 46.6892 111.149 46.8786C110.787 47.0656 110.324 47.1591 109.76 47.1591H107.772V46.3636H109.732C110.12 46.3636 110.433 46.3068 110.67 46.1932C110.909 46.0795 111.081 45.9186 111.188 45.7102C111.297 45.4995 111.351 45.2486 111.351 44.9574C111.351 44.6662 111.297 44.4117 111.188 44.1939C111.079 43.9761 110.905 43.808 110.666 43.6896C110.427 43.5689 110.111 43.5085 109.718 43.5085H108.17V50H107.289ZM110.712 46.733L112.502 50H111.479L109.718 46.733H110.712Z" fill="#868686"/>
<rect x="0.5" y="0.5" width="143" height="71" rx="9.5" stroke="black"/>
</svg>
