<svg width="65" height="18" viewBox="0 0 65 18" fill="none" xmlns="http://www.w3.org/2000/svg">
<path d="M28.6177 7.10263C28.3386 6.76729 27.975 6.50934 27.5673 6.35088C27.0422 6.15557 26.4839 6.06345 25.9257 6.07819C25.2903 6.0745 24.6513 6.12241 24.0233 6.21822C23.5532 6.28823 23.0868 6.38773 22.6277 6.51302V14.3327H24.4824V7.81385C24.6072 7.79174 24.7945 7.76594 25.0516 7.73646C25.294 7.70698 25.5401 7.69224 25.7898 7.68856C26.0652 7.68119 26.337 7.72541 26.5941 7.81753C26.8071 7.89861 26.9871 8.04601 27.1156 8.23395C27.2552 8.45873 27.3507 8.713 27.3911 8.97464C27.4535 9.33946 27.4792 9.70797 27.4755 10.0802V14.3217H29.3339V9.78536C29.3375 9.2805 29.2825 8.77565 29.1723 8.28185C29.0768 7.85439 28.8895 7.44903 28.6177 7.10263Z" fill="#090C38"/>
<path d="M1 5.34469H4.2576V14.3289H6.19674V5.34469H9.45435V3.66431H1V5.34469Z" fill="#090C38"/>
<path d="M55.8288 6.16646C55.6636 6.14067 55.4983 6.11856 55.3367 6.10382C55.1751 6.08908 55.0319 6.08171 54.9107 6.08171C54.3084 6.07802 53.7097 6.13698 53.1221 6.25859C52.6667 6.3544 52.2187 6.47969 51.778 6.63815V14.3362H53.6326V7.86159C53.7905 7.81368 53.9521 7.78052 54.1174 7.75472C54.3341 7.71419 54.5508 7.69208 54.7711 7.69208C55.087 7.68839 55.4028 7.71787 55.715 7.77683C55.9317 7.81737 56.1447 7.87264 56.354 7.93898L56.6735 6.35808C56.5817 6.32492 56.4605 6.29175 56.3063 6.25859C56.1484 6.22174 55.9941 6.19226 55.8288 6.16646Z" fill="#090C38"/>
<path d="M13.598 6.16646C13.4327 6.14067 13.2675 6.11856 13.1059 6.10382C12.9443 6.08908 12.801 6.08171 12.6799 6.08171C12.0775 6.07802 11.4789 6.13698 10.8913 6.25859C10.4359 6.3544 9.98783 6.47969 9.54712 6.63815V14.3362H11.4018V7.86159C11.5597 7.81368 11.7213 7.78052 11.8866 7.75472C12.1033 7.71419 12.3199 7.69208 12.5403 7.69208C12.8561 7.68839 13.172 7.71787 13.4842 7.77683C13.7008 7.81737 13.9138 7.87264 14.1232 7.93898L14.4427 6.35808C14.3509 6.32492 14.2297 6.29175 14.0754 6.25859C13.9175 6.22174 13.7596 6.19226 13.598 6.16646Z" fill="#090C38"/>
<path d="M20.5607 6.94784C20.2889 6.65672 19.9437 6.43562 19.5691 6.30664C19.0806 6.1445 18.5701 6.06711 18.0597 6.08185C17.5932 6.07817 17.1231 6.12239 16.6641 6.20346C16.3299 6.25873 15.9956 6.33981 15.6651 6.44299L15.621 6.45773L15.8598 8.02756L15.9222 8.00545C16.194 7.91333 16.4768 7.84331 16.7559 7.80277C17.1268 7.74013 17.5088 7.71065 17.887 7.71433C18.1405 7.70696 18.3902 7.74381 18.6289 7.82857C18.9852 7.95755 19.2496 8.25604 19.3414 8.62454C19.3891 8.81248 19.4148 9.01147 19.4148 9.20678V9.43526C19.2055 9.38735 18.9925 9.3505 18.7795 9.3247C18.5701 9.29891 18.3608 9.28785 18.1515 9.28785C18.1441 9.28785 18.1405 9.28785 18.1331 9.28785C17.7254 9.28785 17.3178 9.33207 16.9211 9.41314C16.5502 9.48685 16.1976 9.63056 15.8745 9.83324C15.577 10.0286 15.3272 10.2939 15.1546 10.6071C14.9673 10.9646 14.8755 11.3625 14.8902 11.7642C14.8755 12.1733 14.9526 12.586 15.1179 12.9655C15.2648 13.2788 15.4925 13.5552 15.7716 13.7615C16.0764 13.9752 16.4107 14.1227 16.7742 14.2037C17.1966 14.2958 17.6263 14.3438 18.056 14.3401C18.089 14.3401 18.1184 14.3401 18.1515 14.3401C18.7501 14.3401 19.3561 14.2958 19.951 14.2111C20.5203 14.1263 20.9316 14.0563 21.2034 13.9937L21.2475 13.9826V9.21784C21.2511 8.79037 21.1997 8.3629 21.0896 7.94649C20.9941 7.57799 20.8141 7.23159 20.5607 6.94784ZM19.4112 10.8061V12.715C19.0145 12.7776 18.6105 12.8071 18.2102 12.796H18.1551C17.7401 12.7887 17.4096 12.7076 17.1635 12.5602C16.9175 12.4091 16.7889 12.1253 16.7889 11.72C16.7816 11.5394 16.8293 11.3625 16.9285 11.2078C17.024 11.0714 17.1525 10.9609 17.2994 10.8909C17.4684 10.8098 17.6446 10.7582 17.832 10.7324C18.2286 10.6734 18.6326 10.6734 19.0329 10.7324C19.1541 10.7471 19.2826 10.7729 19.4112 10.8061Z" fill="#090C38"/>
<path d="M49.7158 6.94784C49.444 6.65672 49.0988 6.43562 48.7242 6.30664C48.2357 6.1445 47.7252 6.06711 47.2147 6.08185C46.7483 6.07817 46.2782 6.1187 45.8154 6.19977C45.4812 6.25505 45.147 6.33612 44.8202 6.4393L44.7761 6.45404L45.0111 8.02388L45.0736 8.00177C45.3454 7.90964 45.6245 7.83962 45.9073 7.79909C46.2782 7.73644 46.6601 7.70696 47.0384 7.71065C47.2918 7.70328 47.5416 7.74013 47.7803 7.82488C48.1365 7.95386 48.401 8.25235 48.4928 8.62086C48.5405 8.80879 48.5662 9.00779 48.5662 9.2031V9.43157C48.3569 9.38366 48.1439 9.34681 47.9309 9.32102C47.7179 9.29522 47.5085 9.28417 47.3029 9.28417C47.2992 9.28417 47.2992 9.28417 47.2955 9.28417C46.8842 9.28417 46.4692 9.32839 46.0689 9.41314C45.6979 9.48685 45.3454 9.63056 45.0222 9.83324C44.7247 10.0286 44.4749 10.2939 44.3023 10.6071C44.115 10.9646 44.0232 11.3625 44.0379 11.7642C44.0269 12.1733 44.104 12.5897 44.2729 12.9655C44.4199 13.2788 44.6476 13.5552 44.9267 13.7615C45.2315 13.9752 45.5694 14.1227 45.9293 14.2037C46.348 14.2958 46.7813 14.3438 47.211 14.3401C47.2441 14.3401 47.2735 14.3401 47.3065 14.3401C47.9052 14.3401 48.5111 14.2958 49.1061 14.2111C49.6754 14.1263 50.0867 14.0563 50.3585 13.9937L50.4025 13.9826V9.21784C50.4062 8.79037 50.3548 8.35922 50.2446 7.94649C50.1455 7.57799 49.9655 7.23159 49.7158 6.94784ZM48.5626 10.8061V12.715C48.1659 12.7776 47.7619 12.8071 47.3616 12.796H47.3065C46.8915 12.7887 46.561 12.7076 46.3149 12.5602C46.0689 12.4091 45.9403 12.1253 45.9403 11.72C45.933 11.5394 45.9807 11.3625 46.0799 11.2078C46.1754 11.0714 46.3039 10.9609 46.4508 10.8909C46.6197 10.8098 46.796 10.7582 46.9833 10.7324C47.38 10.6734 47.784 10.6734 48.1843 10.7324C48.3091 10.7471 48.4377 10.7729 48.5626 10.8061Z" fill="#090C38"/>
<path d="M36.1505 11.1116C36.0587 10.8573 35.9081 10.6215 35.7171 10.4335C35.4968 10.2198 35.247 10.0429 34.9753 9.91024C34.6227 9.73336 34.2591 9.5749 33.8919 9.43856C33.6752 9.36485 33.4622 9.2801 33.2492 9.1806C33.1022 9.11427 32.959 9.02951 32.8305 8.9337C32.7423 8.86737 32.6689 8.77893 32.6211 8.68312C32.5771 8.58362 32.5587 8.47307 32.5587 8.36252C32.5514 8.14141 32.6726 7.93874 32.8672 7.84292C33.1316 7.71395 33.4291 7.6513 33.7303 7.66236C34.0828 7.65867 34.4354 7.69552 34.7806 7.77291C35.034 7.83187 35.2838 7.91294 35.5225 8.01612L35.5813 8.04192L35.9302 6.47577L35.8861 6.46103C35.5813 6.35416 35.2654 6.27309 34.9496 6.21413C34.5199 6.12937 34.0792 6.08515 33.6421 6.08884C32.7387 6.08884 32.0152 6.30257 31.4863 6.71898C30.9538 7.13908 30.6857 7.71763 30.6857 8.44359C30.6747 8.77156 30.7334 9.09216 30.8583 9.39433C30.9685 9.6486 31.1301 9.87339 31.3357 10.0576C31.5487 10.2493 31.7911 10.4077 32.0482 10.533C32.3383 10.6767 32.6432 10.802 32.9443 10.9126C33.4695 11.1079 33.8478 11.2921 34.0755 11.458C34.2775 11.5869 34.395 11.808 34.395 12.0513V12.0549C34.4134 12.2761 34.2958 12.4861 34.1012 12.5893C33.8955 12.6998 33.554 12.7551 33.0949 12.7551C33.0839 12.7551 33.0765 12.7551 33.0655 12.7551C32.6542 12.7551 32.2429 12.7035 31.8462 12.6003C31.523 12.5156 31.2072 12.4124 30.9024 12.2945L30.8436 12.2687L30.5131 13.8754L30.5571 13.8901C30.8436 13.997 31.1374 14.0928 31.4349 14.1665C31.9197 14.2807 32.4191 14.3397 32.9186 14.3397C32.9737 14.3397 33.0288 14.3397 33.0839 14.336H33.0876C34.1049 14.336 34.8981 14.1407 35.4527 13.7538C36.0109 13.3631 36.2937 12.7809 36.2937 12.0255C36.2937 11.7122 36.2497 11.4064 36.1505 11.1116Z" fill="#090C38"/>
<path d="M42.8495 12.3611C42.6365 12.4495 42.3794 12.5232 42.0892 12.5822C41.7991 12.6412 41.4979 12.6706 41.1968 12.6706C40.3998 12.6706 39.8269 12.4495 39.4964 12.0184C39.1622 11.5799 38.9896 10.9755 38.9896 10.2201C38.9896 9.43517 39.1695 8.81976 39.5258 8.3923C39.8783 7.96851 40.3998 7.7511 41.0793 7.7511C41.3694 7.7511 41.6449 7.78058 41.9019 7.83954C42.159 7.8985 42.3941 7.9722 42.5961 8.06064L42.6548 8.08644L43.0662 6.50923L43.0221 6.49081C42.3684 6.2218 41.6632 6.08545 40.9324 6.08545C40.3374 6.08545 39.7902 6.19232 39.3127 6.40236C38.8353 6.61241 38.424 6.90722 38.0898 7.27572C37.7556 7.64423 37.4948 8.08644 37.3185 8.59129C37.1386 9.09614 37.0504 9.64153 37.0504 10.2201C37.0504 10.806 37.1312 11.3588 37.2891 11.8599C37.4471 12.3648 37.6931 12.807 38.0163 13.1718C38.3395 13.5366 38.7545 13.8278 39.2503 14.0304C39.7424 14.2368 40.3301 14.34 40.9948 14.34C41.4208 14.34 41.8395 14.2994 42.2398 14.2221C42.6401 14.141 42.9486 14.0525 43.147 13.9494L43.1837 13.9309L42.9156 12.339L42.8495 12.3611Z" fill="#090C38"/>
<path d="M64.1198 13.7907V13.238L64.1235 2.46655L62.2247 2.78347V6.47958C62.0081 6.3764 61.784 6.28796 61.5563 6.21794C61.2295 6.12213 60.8879 6.07423 60.55 6.0816C60.0359 6.07054 59.5364 6.17004 59.0626 6.3764C58.6403 6.56802 58.2583 6.85914 57.9645 7.22028C57.6487 7.60721 57.421 8.04573 57.2814 8.52479C57.1198 9.07386 57.0427 9.64505 57.05 10.2162C57.0427 10.7985 57.1345 11.3733 57.3255 11.9261C57.4981 12.4125 57.7662 12.8511 58.1224 13.2269C58.4713 13.5881 58.9047 13.8718 59.3748 14.0524C59.8853 14.244 60.4178 14.3398 60.9614 14.3398C60.9871 14.3398 61.0128 14.3398 61.0385 14.3398C61.6077 14.3398 62.1807 14.2956 62.7389 14.2072C63.1906 14.1371 63.6424 14.0376 64.0794 13.9087L64.1198 13.8976V13.7907ZM62.2211 12.5526C62.0742 12.582 61.9236 12.6078 61.773 12.6226C61.5343 12.6484 61.2882 12.6631 61.0458 12.6594C60.4068 12.6594 59.8963 12.4383 59.5364 12.0035C59.1802 11.576 58.9965 10.9754 58.9892 10.2236H58.9929V10.1683C58.9929 9.42026 59.1398 8.8196 59.4299 8.38476C59.72 7.95729 60.1828 7.73987 60.8145 7.73987C60.8181 7.73987 60.8255 7.73987 60.8292 7.73987C61.1046 7.73987 61.3727 7.78778 61.6335 7.87991C61.8428 7.94992 62.0411 8.04573 62.2247 8.16366V12.5526H62.2211Z" fill="#090C38"/>
</svg>
