<svg width="86" height="86" viewBox="0 0 86 86" fill="none" xmlns="http://www.w3.org/2000/svg">
<g clip-path="url(#clip0)">
<path d="M86 34.9003V76.8759C86 77.7514 85.7699 78.5734 85.3632 79.2828C84.9306 80.0476 84.2938 80.6844 83.5273 81.117C82.8178 81.5202 81.9994 81.7503 81.1255 81.7503H4.87449C4.00065 81.7503 3.18218 81.5202 2.47272 81.117C1.70616 80.6844 1.06938 80.0476 0.636788 79.2828C0.230148 78.5734 7.62939e-06 77.7514 7.62939e-06 76.8759V34.9003C7.62939e-06 33.535 0.560651 32.3012 1.46564 31.417H84.5344C85.4394 32.3012 86 33.535 86 34.9003Z" fill="#0593FC"/>
<path d="M85.3632 79.2823C84.9306 80.0472 84.2938 80.684 83.5273 81.1165L58.5406 56.1644C58.0336 55.6574 58.0336 54.8372 58.5388 54.3285C59.0458 53.8215 59.8678 53.8215 60.3748 54.3285L85.3632 79.2823Z" fill="#0181FA"/>
<path d="M27.4595 56.1644L2.47273 81.1165C1.70617 80.684 1.06939 80.0472 0.636795 79.2823L25.6252 54.3285C26.1322 53.8215 26.9542 53.8215 27.4612 54.3285C27.9665 54.8372 27.9665 55.6574 27.4595 56.1644Z" fill="#0181FA"/>
<path d="M84.5344 31.417H80.625C81.5299 32.3012 82.0906 33.535 82.0906 34.9003V76.8759C82.0906 79.5683 79.9086 81.7504 77.2161 81.7504H81.1256C83.818 81.7504 86 79.5683 86 76.8759V34.9003C86 33.535 85.4394 32.3012 84.5344 31.417Z" fill="#0181FA"/>
<path d="M84.5344 31.4176L49.617 64.5959C45.9088 68.119 40.0913 68.119 36.383 64.5959L1.46566 31.4176C2.34469 30.5559 3.54731 30.0264 4.87451 30.0264H81.1255C82.4527 30.0264 83.6554 30.5559 84.5344 31.4176Z" fill="#EAF6FF"/>
<path d="M59.7397 30.0264C57.6321 39.4898 49.1878 46.5636 39.0911 46.5636C28.9926 46.5636 20.5483 39.4898 18.4407 30.0264H59.7397Z" fill="#C8EFFE"/>
<path d="M81.1255 30.0264H77.216C77.8115 30.0264 78.3816 30.133 78.909 30.3281C79.8594 30.6801 80.095 31.921 79.3603 32.6192L45.7075 64.5959C44.3637 65.8726 42.7423 66.6842 41.0453 67.0356C44.0313 67.6539 47.2527 66.8422 49.6171 64.5959L84.5345 31.4176C83.6553 30.5559 82.4527 30.0264 81.1255 30.0264Z" fill="#C8EFFE"/>
<path d="M44.517 74.3201H41.4831C39.7832 74.3201 38.4053 72.942 38.4053 71.2423V61.3161C38.4053 59.6162 39.7834 58.2383 41.4831 58.2383H44.517C46.2169 58.2383 47.5948 59.6164 47.5948 61.3161V71.2423C47.5948 72.942 46.2168 74.3201 44.517 74.3201Z" fill="#99E6FC"/>
<path d="M47.5942 61.3166V71.2421C47.5942 72.9413 46.2168 74.3205 44.5176 74.3205H42.3113C43.1384 73.7719 43.6852 72.8306 43.6852 71.7612V60.9706C43.6852 59.7783 43.0087 58.747 42.0172 58.2383H44.5176C46.2168 58.2383 47.5942 59.6157 47.5942 61.3166Z" fill="#62DBFB"/>
<path d="M43 46.5631C54.6847 46.5631 64.1571 37.0908 64.1571 25.4061C64.1571 13.7214 54.6847 4.24902 43 4.24902C31.3153 4.24902 21.843 13.7214 21.843 25.4061C21.843 37.0908 31.3153 46.5631 43 46.5631Z" fill="#4FC123"/>
<path d="M43 4.24902C42.3407 4.24902 41.6891 4.28069 41.0452 4.3397C51.8134 5.32636 60.2474 14.3806 60.2474 25.4061C60.2474 36.4315 51.8132 45.4858 41.0452 46.4724C41.6891 46.5314 42.3407 46.5631 43 46.5631C54.6848 46.5631 64.157 37.0908 64.157 25.4061C64.157 13.7213 54.6848 4.24902 43 4.24902Z" fill="#47A920"/>
<path d="M39.9424 24.8967L36.9163 21.8706C36.1444 21.0987 34.8926 21.0987 34.1207 21.8706L31.4973 24.494C30.7254 25.2659 30.7254 26.5177 31.4973 27.2896L38.2186 34.0109C39.6116 35.4039 41.8701 35.4039 43.263 34.0109L56.4061 20.8678C57.1781 20.0959 57.1781 18.8441 56.4061 18.0722L53.9763 15.6424C53.2044 14.8705 51.9527 14.8705 51.1807 15.6424L41.9263 24.8968C41.3785 25.4445 40.4903 25.4445 39.9424 24.8967Z" fill="#D1F19E"/>
<path d="M56.4061 18.0722L53.9763 15.6424C53.2044 14.8705 51.9527 14.8705 51.1807 15.6424L50.373 16.4502C50.7473 16.5223 51.1049 16.7033 51.3948 16.9932L52.4969 18.0722C53.2688 18.8441 53.2688 20.0959 52.4969 20.8678L41.0455 31.9433C39.8601 33.1288 38.0494 33.3015 36.6772 32.4693L38.2188 34.0109C39.6117 35.4039 41.8702 35.4039 43.2632 34.0109L56.4063 20.8678C57.1782 20.0957 57.1782 18.8441 56.4061 18.0722Z" fill="#BBEC6C"/>
</g>
<defs>
<clipPath id="clip0">
<rect width="86" height="86" fill="white"/>
</clipPath>
</defs>
</svg>
