<svg width="589" height="180" viewBox="0 0 589 180" fill="none" xmlns="http://www.w3.org/2000/svg">
<g filter="url(#filter0_d)">
<rect x="2" y="1" width="393" height="150" rx="8" fill="#F9FAFB"/>
<rect x="18" y="40" width="257" height="1" fill="#D1D5DB"/>
<path d="M294.456 30.0909H295.359L295.364 29.1151C297.192 28.983 298.24 27.9773 298.244 26.5497C298.24 25.0369 296.991 24.3466 295.679 24.0355L295.398 23.9631L295.415 21.5298C296.097 21.6491 296.536 22.0582 296.604 22.6719H298.125C298.099 21.3168 297.034 20.3281 295.423 20.1747L295.428 19.1818H294.524L294.52 20.1747C292.922 20.3366 291.771 21.3168 291.776 22.7273C291.776 23.9801 292.666 24.7003 294.102 25.071L294.486 25.169L294.469 27.7472C293.706 27.6278 293.156 27.1932 293.101 26.4219H291.545C291.605 28.0199 292.705 28.9702 294.46 29.1151L294.456 30.0909ZM295.372 27.7472L295.389 25.4077C296.165 25.6335 296.659 25.9318 296.663 26.5369C296.659 27.1676 296.152 27.6193 295.372 27.7472ZM294.494 23.733C293.906 23.5455 293.369 23.2344 293.378 22.6293C293.382 22.0795 293.795 21.6534 294.511 21.5298L294.494 23.733Z" fill="#D1D5DB"/>
<rect x="306.5" y="17.5" width="72" height="23" rx="2.5" stroke="#D1D5DB"/>
<rect x="18" y="65" width="361" height="1" fill="#D1D5DB"/>
<rect x="18" y="102" width="193" height="1" fill="#D1D5DB"/>
<rect x="235" y="102" width="144" height="1" fill="#D1D5DB"/>
<path d="M22.0014 131.166C24.1065 131.17 25.3636 129.509 25.3636 126.645C25.3636 123.798 24.098 122.153 22.0014 122.153C19.9048 122.153 18.6435 123.794 18.6392 126.645C18.6392 129.504 19.8963 131.166 22.0014 131.166ZM22.0014 129.832C20.9148 129.832 20.233 128.741 20.2372 126.645C20.2415 124.565 20.919 123.47 22.0014 123.47C23.0881 123.47 23.7656 124.565 23.7699 126.645C23.7699 128.741 23.0923 129.832 22.0014 129.832ZM30.9292 122.273H29.4249L27.2559 123.666V125.115L29.2971 123.811H29.3482V131H30.9292V122.273ZM33.7451 131H39.7281V129.679H35.9269V129.619L37.4312 128.089C39.1272 126.462 39.596 125.669 39.596 124.685C39.596 123.223 38.407 122.153 36.6513 122.153C34.9212 122.153 33.694 123.227 33.694 124.885H35.1982C35.1982 123.994 35.7607 123.436 36.63 123.436C37.461 123.436 38.0789 123.943 38.0789 124.766C38.0789 125.494 37.6357 126.014 36.7749 126.888L33.7451 129.858V131ZM44.9303 131.119C46.7968 131.119 48.1562 130.05 48.1519 128.575C48.1562 127.484 47.4744 126.7 46.2513 126.526V126.457C47.1974 126.253 47.8323 125.55 47.8281 124.57C47.8323 123.24 46.6988 122.153 44.9559 122.153C43.2599 122.153 41.9474 123.163 41.9133 124.625H43.4346C43.4602 123.892 44.142 123.436 44.9474 123.436C45.7613 123.436 46.3025 123.93 46.2982 124.663C46.3025 125.426 45.6718 125.933 44.7684 125.933H43.9971V127.152H44.7684C45.8721 127.152 46.5283 127.706 46.5241 128.494C46.5283 129.266 45.8593 129.794 44.9261 129.794C44.0482 129.794 43.3707 129.338 43.3323 128.626H41.73C41.7727 130.101 43.0894 131.119 44.9303 131.119ZM50.057 129.381H54.2203V131H55.7288V129.381H56.8453V128.081H55.7288V122.273H53.7601L50.057 128.124V129.381ZM54.2374 128.081H51.6763V128.013L54.1692 124.062H54.2374V128.081ZM61.8409 131.119C63.6861 131.119 64.973 129.866 64.973 128.132C64.973 126.453 63.8054 125.243 62.2202 125.243C61.5128 125.243 60.8864 125.524 60.5625 125.908H60.5114L60.7628 123.594H64.517V122.273H59.4545L58.9986 126.773L60.4261 127.007C60.7202 126.683 61.2741 126.466 61.7983 126.47C62.7571 126.474 63.4474 127.182 63.4432 128.17C63.4474 129.146 62.7741 129.841 61.8409 129.841C61.0526 129.841 60.4176 129.342 60.3622 128.626H58.8281C58.8707 130.075 60.1364 131.119 61.8409 131.119ZM70.1966 131.119C72.0801 131.132 73.3457 129.837 73.3415 128.111C73.3457 126.462 72.1696 125.268 70.6398 125.268C69.7023 125.268 68.8756 125.724 68.458 126.474H68.3983C68.4026 124.638 69.0759 123.521 70.2861 123.521C71.0361 123.521 71.5432 123.956 71.7051 124.625H73.2605C73.073 123.214 71.9352 122.153 70.2861 122.153C68.1895 122.153 66.8642 123.901 66.8642 126.884C66.8599 130.084 68.5219 131.111 70.1966 131.119ZM70.1881 129.841C69.2548 129.841 68.573 129.07 68.5687 128.158C68.5773 127.241 69.2847 126.474 70.2094 126.474C71.1341 126.474 71.8116 127.207 71.8074 128.145C71.8116 129.099 71.1128 129.841 70.1881 129.841ZM75.7014 131H77.342L81.0494 123.624V122.273H75.1048V123.594H79.4131V123.653L75.7014 131ZM85.9513 131.119C87.8391 131.119 89.1899 130.08 89.1942 128.661C89.1899 127.57 88.3845 126.658 87.3703 126.487V126.428C88.2524 126.232 88.8661 125.439 88.8703 124.493C88.8661 123.151 87.6303 122.153 85.9513 122.153C84.2595 122.153 83.0237 123.146 83.028 124.493C83.0237 125.439 83.6288 126.232 84.528 126.428V126.487C83.4967 126.658 82.6999 127.57 82.7041 128.661C82.6999 130.08 84.0465 131.119 85.9513 131.119ZM85.9513 129.901C84.9626 129.901 84.3234 129.355 84.332 128.55C84.3234 127.714 85.0095 127.122 85.9513 127.122C86.8803 127.122 87.5621 127.719 87.5706 128.55C87.5621 129.355 86.9271 129.901 85.9513 129.901ZM85.9513 125.925C85.1416 125.925 84.5621 125.401 84.5706 124.642C84.5621 123.892 85.1246 123.389 85.9513 123.389C86.7652 123.389 87.3234 123.892 87.332 124.642C87.3234 125.405 86.7482 125.925 85.9513 125.925Z" fill="#374151"/>
<path d="M130.001 131.166C132.107 131.17 133.364 129.509 133.364 126.645C133.364 123.798 132.098 122.153 130.001 122.153C127.905 122.153 126.643 123.794 126.639 126.645C126.639 129.504 127.896 131.166 130.001 131.166ZM130.001 129.832C128.915 129.832 128.233 128.741 128.237 126.645C128.241 124.565 128.919 123.47 130.001 123.47C131.088 123.47 131.766 124.565 131.77 126.645C131.77 128.741 131.092 129.832 130.001 129.832ZM138.409 122.153C136.517 122.141 135.26 123.44 135.26 125.145C135.264 126.79 136.436 127.979 137.966 127.979C138.908 127.979 139.726 127.523 140.148 126.773H140.208C140.203 128.639 139.526 129.751 138.32 129.751C137.566 129.751 137.058 129.317 136.901 128.622H135.345C135.524 130.067 136.666 131.119 138.32 131.119C140.412 131.119 141.746 129.372 141.742 126.368C141.737 123.189 140.084 122.162 138.409 122.153ZM138.414 123.432C139.347 123.432 140.033 124.207 140.033 125.098C140.037 126.001 139.317 126.777 138.397 126.777C137.468 126.777 136.799 126.044 136.794 125.111C136.794 124.173 137.489 123.432 138.414 123.432ZM146.863 131.119C148.751 131.119 150.102 130.08 150.106 128.661C150.102 127.57 149.296 126.658 148.282 126.487V126.428C149.164 126.232 149.778 125.439 149.782 124.493C149.778 123.151 148.542 122.153 146.863 122.153C145.171 122.153 143.935 123.146 143.94 124.493C143.935 125.439 144.541 126.232 145.44 126.428V126.487C144.408 126.658 143.612 127.57 143.616 128.661C143.612 130.08 144.958 131.119 146.863 131.119ZM146.863 129.901C145.874 129.901 145.235 129.355 145.244 128.55C145.235 127.714 145.921 127.122 146.863 127.122C147.792 127.122 148.474 127.719 148.482 128.55C148.474 129.355 147.839 129.901 146.863 129.901ZM146.863 125.925C146.053 125.925 145.474 125.401 145.482 124.642C145.474 123.892 146.036 123.389 146.863 123.389C147.677 123.389 148.235 123.892 148.244 124.642C148.235 125.405 147.66 125.925 146.863 125.925ZM152.426 131H154.067L157.774 123.624V122.273H151.83V123.594H156.138V123.653L152.426 131ZM162.758 131.119C164.642 131.132 165.907 129.837 165.903 128.111C165.907 126.462 164.731 125.268 163.201 125.268C162.264 125.268 161.437 125.724 161.02 126.474H160.96C160.964 124.638 161.638 123.521 162.848 123.521C163.598 123.521 164.105 123.956 164.267 124.625H165.822C165.635 123.214 164.497 122.153 162.848 122.153C160.751 122.153 159.426 123.901 159.426 126.884C159.422 130.084 161.084 131.111 162.758 131.119ZM162.75 129.841C161.817 129.841 161.135 129.07 161.13 128.158C161.139 127.241 161.846 126.474 162.771 126.474C163.696 126.474 164.373 127.207 164.369 128.145C164.373 129.099 163.675 129.841 162.75 129.841ZM170.978 131.119C172.823 131.119 174.11 129.866 174.11 128.132C174.11 126.453 172.942 125.243 171.357 125.243C170.65 125.243 170.023 125.524 169.699 125.908H169.648L169.9 123.594H173.654V122.273H168.591L168.135 126.773L169.563 127.007C169.857 126.683 170.411 126.466 170.935 126.47C171.894 126.474 172.584 127.182 172.58 128.17C172.584 129.146 171.911 129.841 170.978 129.841C170.189 129.841 169.554 129.342 169.499 128.626H167.965C168.007 130.075 169.273 131.119 170.978 131.119ZM175.98 129.381H180.143V131H181.651V129.381H182.768V128.081H181.651V122.273H179.683L175.98 128.124V129.381ZM180.16 128.081H177.599V128.013L180.092 124.062H180.16V128.081ZM187.862 131.119C189.728 131.119 191.087 130.05 191.083 128.575C191.087 127.484 190.406 126.7 189.183 126.526V126.457C190.129 126.253 190.764 125.55 190.759 124.57C190.764 123.24 189.63 122.153 187.887 122.153C186.191 122.153 184.879 123.163 184.845 124.625H186.366C186.391 123.892 187.073 123.436 187.879 123.436C188.693 123.436 189.234 123.93 189.229 124.663C189.234 125.426 188.603 125.933 187.7 125.933H186.928V127.152H187.7C188.803 127.152 189.46 127.706 189.455 128.494C189.46 129.266 188.791 129.794 187.857 129.794C186.979 129.794 186.302 129.338 186.264 128.626H184.661C184.704 130.101 186.021 131.119 187.862 131.119ZM193.146 131H199.129V129.679H195.328V129.619L196.832 128.089C198.528 126.462 198.997 125.669 198.997 124.685C198.997 123.223 197.808 122.153 196.052 122.153C194.322 122.153 193.095 123.227 193.095 124.885H194.599C194.599 123.994 195.162 123.436 196.031 123.436C196.862 123.436 197.48 123.943 197.48 124.766C197.48 125.494 197.037 126.014 196.176 126.888L193.146 129.858V131ZM204.749 122.273H203.244L201.075 123.666V125.115L203.117 123.811H203.168V131H204.749V122.273Z" fill="#374151"/>
<rect x="2.5" y="1.5" width="392" height="149" rx="7.5" stroke="#D1D5DB"/>
</g>
<rect x="10.5" y="116.5" width="86" height="21" rx="3.5" stroke="#2563EB"/>
<g filter="url(#filter1_d)">
<mask id="path-12-inside-1" fill="white">
<path fill-rule="evenodd" clip-rule="evenodd" d="M54.9866 143.652C54.1921 142.769 52.8079 142.769 52.0134 143.652L49.0497 146.945H16C13.7909 146.945 12 148.736 12 150.945V172.945C12 175.154 13.7909 176.945 16 176.945H91C93.2091 176.945 95 175.154 95 172.945V150.945C95 148.736 93.2091 146.945 91 146.945H57.9503L54.9866 143.652Z"/>
</mask>
<path fill-rule="evenodd" clip-rule="evenodd" d="M54.9866 143.652C54.1921 142.769 52.8079 142.769 52.0134 143.652L49.0497 146.945H16C13.7909 146.945 12 148.736 12 150.945V172.945C12 175.154 13.7909 176.945 16 176.945H91C93.2091 176.945 95 175.154 95 172.945V150.945C95 148.736 93.2091 146.945 91 146.945H57.9503L54.9866 143.652Z" fill="#1F2937"/>
<path d="M52.0134 143.652L51.2701 142.983V142.983L52.0134 143.652ZM54.9866 143.652L54.2433 144.321V144.321L54.9866 143.652ZM49.0497 146.945V147.945H49.495L49.7929 147.614L49.0497 146.945ZM57.9503 146.945L57.2071 147.614L57.505 147.945H57.9503V146.945ZM52.7567 144.321C53.1539 143.88 53.8461 143.88 54.2433 144.321L55.7299 142.983C54.5382 141.659 52.4618 141.659 51.2701 142.983L52.7567 144.321ZM49.7929 147.614L52.7567 144.321L51.2701 142.983L48.3064 146.276L49.7929 147.614ZM16 147.945H49.0497V145.945H16V147.945ZM13 150.945C13 149.288 14.3431 147.945 16 147.945V145.945C13.2386 145.945 11 148.184 11 150.945H13ZM13 172.945V150.945H11V172.945H13ZM16 175.945C14.3431 175.945 13 174.602 13 172.945H11C11 175.706 13.2386 177.945 16 177.945V175.945ZM91 175.945H16V177.945H91V175.945ZM94 172.945C94 174.602 92.6569 175.945 91 175.945V177.945C93.7614 177.945 96 175.706 96 172.945H94ZM94 150.945V172.945H96V150.945H94ZM91 147.945C92.6569 147.945 94 149.288 94 150.945H96C96 148.184 93.7614 145.945 91 145.945V147.945ZM57.9503 147.945H91V145.945H57.9503V147.945ZM54.2433 144.321L57.2071 147.614L58.6936 146.276L55.7299 142.983L54.2433 144.321Z" fill="#1F2937" mask="url(#path-12-inside-1)"/>
<path d="M29.0568 166V157.272H32.0057C32.6875 157.272 33.2472 157.389 33.6847 157.622C34.1222 157.852 34.446 158.169 34.6562 158.572C34.8665 158.975 34.9716 159.434 34.9716 159.948C34.9716 160.463 34.8665 160.919 34.6562 161.316C34.446 161.714 34.1236 162.027 33.6889 162.254C33.2543 162.478 32.6989 162.591 32.0227 162.591H29.6364V161.636H31.9886C32.4545 161.636 32.8295 161.568 33.1136 161.431C33.4006 161.295 33.608 161.102 33.7358 160.852C33.8665 160.599 33.9318 160.298 33.9318 159.948C33.9318 159.599 33.8665 159.294 33.7358 159.032C33.6051 158.771 33.3963 158.569 33.1094 158.427C32.8224 158.282 32.4432 158.21 31.9716 158.21H30.1136V166H29.0568ZM33.1648 162.079L35.3125 166H34.0852L31.9716 162.079H33.1648ZM39.185 166.136C38.5941 166.136 38.0756 165.995 37.6296 165.714C37.1864 165.433 36.8398 165.039 36.5898 164.534C36.3427 164.028 36.2191 163.437 36.2191 162.761C36.2191 162.079 36.3427 161.484 36.5898 160.975C36.8398 160.467 37.1864 160.072 37.6296 159.791C38.0756 159.51 38.5941 159.369 39.185 159.369C39.7759 159.369 40.293 159.51 40.7362 159.791C41.1822 160.072 41.5288 160.467 41.7759 160.975C42.0259 161.484 42.1509 162.079 42.1509 162.761C42.1509 163.437 42.0259 164.028 41.7759 164.534C41.5288 165.039 41.1822 165.433 40.7362 165.714C40.293 165.995 39.7759 166.136 39.185 166.136ZM39.185 165.233C39.6339 165.233 40.0032 165.118 40.293 164.887C40.5827 164.657 40.7972 164.355 40.9364 163.98C41.0756 163.605 41.1452 163.198 41.1452 162.761C41.1452 162.323 41.0756 161.916 40.9364 161.538C40.7972 161.16 40.5827 160.855 40.293 160.622C40.0032 160.389 39.6339 160.272 39.185 160.272C38.7362 160.272 38.3668 160.389 38.0771 160.622C37.7873 160.855 37.5728 161.16 37.4336 161.538C37.2944 161.916 37.2248 162.323 37.2248 162.761C37.2248 163.198 37.2944 163.605 37.4336 163.98C37.5728 164.355 37.7873 164.657 38.0771 164.887C38.3668 165.118 38.7362 165.233 39.185 165.233ZM47.8111 163.323V159.454H48.8168V166H47.8111V164.892H47.7429C47.5895 165.224 47.3509 165.507 47.027 165.74C46.7031 165.97 46.294 166.085 45.7997 166.085C45.3906 166.085 45.027 165.995 44.7088 165.816C44.3906 165.635 44.1406 165.362 43.9588 164.998C43.777 164.632 43.6861 164.17 43.6861 163.613V159.454H44.6918V163.545C44.6918 164.022 44.8253 164.403 45.0923 164.687C45.3622 164.971 45.706 165.113 46.1236 165.113C46.3736 165.113 46.6278 165.049 46.8864 164.922C47.1477 164.794 47.3665 164.598 47.5426 164.333C47.7216 164.069 47.8111 163.733 47.8111 163.323ZM53.5053 159.454V160.306H50.1133V159.454H53.5053ZM51.1019 157.886H52.1076V164.125C52.1076 164.409 52.1488 164.622 52.2312 164.764C52.3164 164.903 52.4244 164.997 52.555 165.045C52.6886 165.091 52.8292 165.113 52.9769 165.113C53.0877 165.113 53.1786 165.108 53.2496 165.096C53.3207 165.082 53.3775 165.071 53.4201 165.062L53.6246 165.966C53.5565 165.991 53.4613 166.017 53.3391 166.042C53.217 166.071 53.0621 166.085 52.8746 166.085C52.5906 166.085 52.3121 166.024 52.0394 165.902C51.7695 165.779 51.5451 165.593 51.3661 165.343C51.19 165.093 51.1019 164.778 51.1019 164.397V157.886ZM55.0181 166V159.454H56.0238V166H55.0181ZM55.5295 158.363C55.3335 158.363 55.1644 158.297 55.0224 158.163C54.8832 158.029 54.8136 157.869 54.8136 157.681C54.8136 157.494 54.8832 157.333 55.0224 157.2C55.1644 157.066 55.3335 157 55.5295 157C55.7255 157 55.8931 157.066 56.0323 157.2C56.1744 157.333 56.2454 157.494 56.2454 157.681C56.2454 157.869 56.1744 158.029 56.0323 158.163C55.8931 158.297 55.7255 158.363 55.5295 158.363ZM58.8714 162.062V166H57.8658V159.454H58.8374V160.477H58.9226C59.076 160.145 59.3089 159.877 59.6214 159.676C59.9339 159.471 60.3374 159.369 60.8317 159.369C61.2749 159.369 61.6626 159.46 61.995 159.642C62.3274 159.821 62.5859 160.093 62.7706 160.46C62.9553 160.823 63.0476 161.284 63.0476 161.841V166H62.0419V161.909C62.0419 161.395 61.9084 160.994 61.6413 160.707C61.3743 160.417 61.0078 160.272 60.5419 160.272C60.2209 160.272 59.9339 160.342 59.6811 160.481C59.4311 160.62 59.2337 160.823 59.0888 161.091C58.9439 161.358 58.8714 161.681 58.8714 162.062ZM67.5273 168.591C67.0415 168.591 66.6239 168.528 66.2745 168.403C65.9251 168.281 65.6339 168.119 65.4009 167.917C65.1708 167.718 64.9876 167.505 64.8512 167.278L65.6523 166.716C65.7433 166.835 65.8583 166.971 65.9975 167.125C66.1367 167.281 66.3271 167.416 66.5685 167.529C66.8129 167.646 67.1325 167.704 67.5273 167.704C68.0558 167.704 68.4918 167.576 68.8356 167.321C69.1793 167.065 69.3512 166.664 69.3512 166.119V164.789H69.266C69.1921 164.909 69.087 165.056 68.9506 165.233C68.8171 165.406 68.6239 165.561 68.3711 165.697C68.1211 165.831 67.783 165.897 67.3569 165.897C66.8285 165.897 66.354 165.772 65.9336 165.522C65.516 165.272 65.185 164.909 64.9407 164.431C64.6992 163.954 64.5785 163.375 64.5785 162.693C64.5785 162.022 64.6964 161.439 64.9322 160.941C65.168 160.441 65.4961 160.055 65.9165 159.782C66.337 159.507 66.8228 159.369 67.3739 159.369C67.8001 159.369 68.1381 159.44 68.3881 159.582C68.641 159.721 68.8342 159.88 68.9677 160.059C69.104 160.235 69.2092 160.38 69.283 160.494H69.3853V159.454H70.3569V166.187C70.3569 166.75 70.229 167.207 69.9734 167.559C69.7205 167.914 69.3796 168.174 68.9506 168.339C68.5245 168.507 68.0501 168.591 67.5273 168.591ZM67.4933 164.994C67.8967 164.994 68.2376 164.902 68.516 164.717C68.7944 164.532 69.006 164.267 69.1509 163.92C69.2958 163.573 69.3683 163.159 69.3683 162.676C69.3683 162.204 69.2972 161.788 69.1552 161.427C69.0131 161.066 68.8029 160.784 68.5245 160.579C68.2461 160.375 67.9023 160.272 67.4933 160.272C67.0671 160.272 66.712 160.38 66.4279 160.596C66.1467 160.812 65.935 161.102 65.793 161.466C65.6538 161.829 65.5842 162.233 65.5842 162.676C65.5842 163.13 65.6552 163.532 65.7972 163.882C65.9421 164.228 66.1552 164.501 66.4364 164.7C66.7205 164.896 67.0728 164.994 67.4933 164.994ZM75.4535 166L76.8853 157.272H77.7376L76.3058 166H75.4535ZM71.4819 163.579L71.6183 162.727H78.1296L77.9933 163.579H71.4819ZM72.3853 166L73.8171 157.272H74.6694L73.2376 166H72.3853ZM71.9933 160.545L72.1296 159.693H78.641L78.5046 160.545H71.9933Z" fill="white"/>
</g>
<rect x="120.5" y="116.5" width="92" height="21" rx="3.5" stroke="#2563EB"/>
<g filter="url(#filter2_d)">
<mask id="path-16-inside-2" fill="white">
<path fill-rule="evenodd" clip-rule="evenodd" d="M167.987 143.652C167.192 142.769 165.808 142.769 165.013 143.652L162.05 146.945H129C126.791 146.945 125 148.736 125 150.945V172.945C125 175.154 126.791 176.945 129 176.945H204C206.209 176.945 208 175.154 208 172.945V150.945C208 148.736 206.209 146.945 204 146.945H170.95L167.987 143.652Z"/>
</mask>
<path fill-rule="evenodd" clip-rule="evenodd" d="M167.987 143.652C167.192 142.769 165.808 142.769 165.013 143.652L162.05 146.945H129C126.791 146.945 125 148.736 125 150.945V172.945C125 175.154 126.791 176.945 129 176.945H204C206.209 176.945 208 175.154 208 172.945V150.945C208 148.736 206.209 146.945 204 146.945H170.95L167.987 143.652Z" fill="#1F2937"/>
<path d="M165.013 143.652L164.27 142.983V142.983L165.013 143.652ZM167.987 143.652L167.243 144.321V144.321L167.987 143.652ZM162.05 146.945V147.945H162.495L162.793 147.614L162.05 146.945ZM170.95 146.945L170.207 147.614L170.505 147.945H170.95V146.945ZM165.757 144.321C166.154 143.88 166.846 143.88 167.243 144.321L168.73 142.983C167.538 141.659 165.462 141.659 164.27 142.983L165.757 144.321ZM162.793 147.614L165.757 144.321L164.27 142.983L161.306 146.276L162.793 147.614ZM129 147.945H162.05V145.945H129V147.945ZM126 150.945C126 149.288 127.343 147.945 129 147.945V145.945C126.239 145.945 124 148.184 124 150.945H126ZM126 172.945V150.945H124V172.945H126ZM129 175.945C127.343 175.945 126 174.602 126 172.945H124C124 175.706 126.239 177.945 129 177.945V175.945ZM204 175.945H129V177.945H204V175.945ZM207 172.945C207 174.602 205.657 175.945 204 175.945V177.945C206.761 177.945 209 175.706 209 172.945H207ZM207 150.945V172.945H209V150.945H207ZM204 147.945C205.657 147.945 207 149.288 207 150.945H209C209 148.184 206.761 145.945 204 145.945V147.945ZM170.95 147.945H204V145.945H170.95V147.945ZM167.243 144.321L170.207 147.614L171.694 146.276L168.73 142.983L167.243 144.321Z" fill="#1F2937" mask="url(#path-16-inside-2)"/>
<path d="M140.415 166H139.307L142.511 157.272H143.602L146.807 166H145.699L143.091 158.653H143.023L140.415 166ZM140.824 162.591H145.29V163.528H140.824V162.591ZM150.689 166.136C150.075 166.136 149.547 165.991 149.104 165.701C148.661 165.412 148.32 165.012 148.081 164.504C147.842 163.995 147.723 163.414 147.723 162.761C147.723 162.096 147.845 161.51 148.089 161.001C148.337 160.49 148.68 160.091 149.121 159.804C149.564 159.514 150.081 159.369 150.672 159.369C151.132 159.369 151.547 159.454 151.916 159.625C152.286 159.795 152.588 160.034 152.824 160.341C153.06 160.647 153.206 161.005 153.263 161.414H152.257C152.18 161.116 152.01 160.852 151.746 160.622C151.484 160.389 151.132 160.272 150.689 160.272C150.297 160.272 149.953 160.375 149.658 160.579C149.365 160.781 149.136 161.066 148.972 161.436C148.81 161.802 148.729 162.233 148.729 162.727C148.729 163.233 148.808 163.673 148.967 164.048C149.129 164.423 149.357 164.714 149.649 164.922C149.945 165.129 150.291 165.233 150.689 165.233C150.95 165.233 151.188 165.187 151.401 165.096C151.614 165.005 151.794 164.875 151.942 164.704C152.089 164.534 152.195 164.329 152.257 164.091H153.263C153.206 164.477 153.065 164.825 152.841 165.135C152.619 165.441 152.325 165.686 151.959 165.868C151.595 166.047 151.172 166.136 150.689 166.136ZM157.392 166.136C156.778 166.136 156.25 165.991 155.807 165.701C155.364 165.412 155.023 165.012 154.784 164.504C154.545 163.995 154.426 163.414 154.426 162.761C154.426 162.096 154.548 161.51 154.793 161.001C155.04 160.49 155.384 160.091 155.824 159.804C156.267 159.514 156.784 159.369 157.375 159.369C157.835 159.369 158.25 159.454 158.619 159.625C158.989 159.795 159.291 160.034 159.527 160.341C159.763 160.647 159.909 161.005 159.966 161.414H158.96C158.884 161.116 158.713 160.852 158.449 160.622C158.188 160.389 157.835 160.272 157.392 160.272C157 160.272 156.656 160.375 156.361 160.579C156.068 160.781 155.839 161.066 155.675 161.436C155.513 161.802 155.432 162.233 155.432 162.727C155.432 163.233 155.511 163.673 155.67 164.048C155.832 164.423 156.06 164.714 156.352 164.922C156.648 165.129 156.994 165.233 157.392 165.233C157.653 165.233 157.891 165.187 158.104 165.096C158.317 165.005 158.497 164.875 158.645 164.704C158.793 164.534 158.898 164.329 158.96 164.091H159.966C159.909 164.477 159.768 164.825 159.544 165.135C159.322 165.441 159.028 165.686 158.662 165.868C158.298 166.047 157.875 166.136 157.392 166.136ZM164.095 166.136C163.504 166.136 162.986 165.995 162.54 165.714C162.097 165.433 161.75 165.039 161.5 164.534C161.253 164.028 161.129 163.437 161.129 162.761C161.129 162.079 161.253 161.484 161.5 160.975C161.75 160.467 162.097 160.072 162.54 159.791C162.986 159.51 163.504 159.369 164.095 159.369C164.686 159.369 165.203 159.51 165.646 159.791C166.092 160.072 166.439 160.467 166.686 160.975C166.936 161.484 167.061 162.079 167.061 162.761C167.061 163.437 166.936 164.028 166.686 164.534C166.439 165.039 166.092 165.433 165.646 165.714C165.203 165.995 164.686 166.136 164.095 166.136ZM164.095 165.233C164.544 165.233 164.913 165.118 165.203 164.887C165.493 164.657 165.707 164.355 165.847 163.98C165.986 163.605 166.055 163.198 166.055 162.761C166.055 162.323 165.986 161.916 165.847 161.538C165.707 161.16 165.493 160.855 165.203 160.622C164.913 160.389 164.544 160.272 164.095 160.272C163.646 160.272 163.277 160.389 162.987 160.622C162.697 160.855 162.483 161.16 162.344 161.538C162.205 161.916 162.135 162.323 162.135 162.761C162.135 163.198 162.205 163.605 162.344 163.98C162.483 164.355 162.697 164.657 162.987 164.887C163.277 165.118 163.646 165.233 164.095 165.233ZM172.721 163.323V159.454H173.727V166H172.721V164.892H172.653C172.5 165.224 172.261 165.507 171.937 165.74C171.613 165.97 171.204 166.085 170.71 166.085C170.301 166.085 169.937 165.995 169.619 165.816C169.301 165.635 169.051 165.362 168.869 164.998C168.687 164.632 168.596 164.17 168.596 163.613V159.454H169.602V163.545C169.602 164.022 169.735 164.403 170.002 164.687C170.272 164.971 170.616 165.113 171.034 165.113C171.284 165.113 171.538 165.049 171.797 164.922C172.058 164.794 172.277 164.598 172.453 164.333C172.632 164.069 172.721 163.733 172.721 163.323ZM176.575 162.062V166H175.569V159.454H176.54V160.477H176.626C176.779 160.145 177.012 159.877 177.325 159.676C177.637 159.471 178.04 159.369 178.535 159.369C178.978 159.369 179.366 159.46 179.698 159.642C180.031 159.821 180.289 160.093 180.474 160.46C180.658 160.823 180.751 161.284 180.751 161.841V166H179.745V161.909C179.745 161.395 179.612 160.994 179.344 160.707C179.077 160.417 178.711 160.272 178.245 160.272C177.924 160.272 177.637 160.342 177.384 160.481C177.134 160.62 176.937 160.823 176.792 161.091C176.647 161.358 176.575 161.681 176.575 162.062ZM185.435 159.454V160.306H182.043V159.454H185.435ZM183.032 157.886H184.037V164.125C184.037 164.409 184.078 164.622 184.161 164.764C184.246 164.903 184.354 164.997 184.485 165.045C184.618 165.091 184.759 165.113 184.907 165.113C185.017 165.113 185.108 165.108 185.179 165.096C185.25 165.082 185.307 165.071 185.35 165.062L185.554 165.966C185.486 165.991 185.391 166.017 185.269 166.042C185.147 166.071 184.992 166.085 184.804 166.085C184.52 166.085 184.242 166.024 183.969 165.902C183.699 165.779 183.475 165.593 183.296 165.343C183.12 165.093 183.032 164.778 183.032 164.397V157.886ZM190.203 166L191.635 157.272H192.488L191.056 166H190.203ZM186.232 163.579L186.368 162.727H192.88L192.743 163.579H186.232ZM187.135 166L188.567 157.272H189.419L187.988 166H187.135ZM186.743 160.545L186.88 159.693H193.391L193.255 160.545H186.743Z" fill="white"/>
</g>
<defs>
<filter id="filter0_d" x="0" y="0" width="397" height="154" filterUnits="userSpaceOnUse" color-interpolation-filters="sRGB">
<feFlood flood-opacity="0" result="BackgroundImageFix"/>
<feColorMatrix in="SourceAlpha" type="matrix" values="0 0 0 0 0 0 0 0 0 0 0 0 0 0 0 0 0 0 127 0"/>
<feOffset dy="1"/>
<feGaussianBlur stdDeviation="1"/>
<feColorMatrix type="matrix" values="0 0 0 0 0 0 0 0 0 0 0 0 0 0 0 0 0 0 0.05 0"/>
<feBlend mode="normal" in2="BackgroundImageFix" result="effect1_dropShadow"/>
<feBlend mode="normal" in="SourceGraphic" in2="effect1_dropShadow" result="shape"/>
</filter>
<filter id="filter1_d" x="10" y="141.99" width="87" height="37.9551" filterUnits="userSpaceOnUse" color-interpolation-filters="sRGB">
<feFlood flood-opacity="0" result="BackgroundImageFix"/>
<feColorMatrix in="SourceAlpha" type="matrix" values="0 0 0 0 0 0 0 0 0 0 0 0 0 0 0 0 0 0 127 0"/>
<feOffset dy="1"/>
<feGaussianBlur stdDeviation="1"/>
<feColorMatrix type="matrix" values="0 0 0 0 0 0 0 0 0 0 0 0 0 0 0 0 0 0 0.05 0"/>
<feBlend mode="normal" in2="BackgroundImageFix" result="effect1_dropShadow"/>
<feBlend mode="normal" in="SourceGraphic" in2="effect1_dropShadow" result="shape"/>
</filter>
<filter id="filter2_d" x="123" y="141.99" width="87" height="37.9551" filterUnits="userSpaceOnUse" color-interpolation-filters="sRGB">
<feFlood flood-opacity="0" result="BackgroundImageFix"/>
<feColorMatrix in="SourceAlpha" type="matrix" values="0 0 0 0 0 0 0 0 0 0 0 0 0 0 0 0 0 0 127 0"/>
<feOffset dy="1"/>
<feGaussianBlur stdDeviation="1"/>
<feColorMatrix type="matrix" values="0 0 0 0 0 0 0 0 0 0 0 0 0 0 0 0 0 0 0.05 0"/>
<feBlend mode="normal" in2="BackgroundImageFix" result="effect1_dropShadow"/>
<feBlend mode="normal" in="SourceGraphic" in2="effect1_dropShadow" result="shape"/>
</filter>
</defs>
</svg>
