<svg width="304" height="589" viewBox="0 0 304 589" fill="none" xmlns="http://www.w3.org/2000/svg">
<g filter="url(#filter0_d)">
<mask id="path-1-inside-1" fill="white">
<path fill-rule="evenodd" clip-rule="evenodd" d="M2 2C2 1.44772 2.44771 1 3 1H301C301.552 1 302 1.44772 302 2V585C302 585.552 301.552 586 301 586H291.303C290.75 586 290.31 585.55 290.232 585.003C290.025 583.539 289.358 582.127 288.231 581C285.47 578.239 280.992 578.239 278.231 581C277.104 582.127 276.437 583.539 276.23 585.003C276.152 585.55 275.712 586 275.159 586H271.098C270.545 586 270.105 585.55 270.027 585.003C269.82 583.539 269.153 582.127 268.027 581C265.265 578.239 260.787 578.239 258.026 581C256.899 582.127 256.232 583.539 256.025 585.003C255.947 585.55 255.507 586 254.955 586H250.893C250.341 586 249.9 585.55 249.823 585.003C249.615 583.539 248.948 582.127 247.822 581C245.06 578.239 240.582 578.239 237.821 581C236.694 582.127 236.027 583.539 235.82 585.003C235.742 585.55 235.302 586 234.75 586H230.688C230.136 586 229.695 585.55 229.618 585.003C229.41 583.539 228.743 582.127 227.617 581C224.855 578.239 220.378 578.239 217.616 581C216.489 582.127 215.822 583.539 215.615 585.003C215.537 585.55 215.097 586 214.545 586H210.483C209.931 586 209.49 585.55 209.413 585.003C209.205 583.539 208.538 582.127 207.412 581C204.65 578.239 200.173 578.239 197.411 581C196.285 582.127 195.618 583.539 195.41 585.003C195.333 585.55 194.892 586 194.34 586H190.278C189.726 586 189.286 585.55 189.208 585.003C189.001 583.539 188.334 582.127 187.207 581C184.445 578.239 179.968 578.239 177.206 581C176.08 582.127 175.413 583.539 175.205 585.003C175.128 585.55 174.687 586 174.135 586H170.073C169.521 586 169.081 585.55 169.003 585.003C168.796 583.539 168.129 582.127 167.002 581C164.241 578.239 159.763 578.239 157.001 581C155.875 582.127 155.208 583.539 155 585.003C154.923 585.55 154.482 586 153.93 586H149.869C149.316 586 148.876 585.55 148.798 585.003C148.591 583.539 147.924 582.127 146.797 581C144.036 578.239 139.558 578.239 136.797 581C135.67 582.127 135.003 583.539 134.796 585.003C134.718 585.55 134.278 586 133.725 586H129.664C129.111 586 128.671 585.55 128.593 585.003C128.386 583.539 127.719 582.127 126.593 581C123.831 578.239 119.353 578.239 116.592 581C115.465 582.127 114.798 583.539 114.591 585.003C114.513 585.55 114.073 586 113.521 586H109.459C108.907 586 108.466 585.55 108.389 585.003C108.181 583.539 107.514 582.127 106.388 581C103.626 578.239 99.1485 578.239 96.3868 581C95.2603 582.127 94.5933 583.539 94.3858 585.003C94.3083 585.55 93.8679 586 93.3157 586H89.2539C88.7017 586 88.2613 585.55 88.1838 585.003C87.9763 583.539 87.3093 582.127 86.1828 581C83.4211 578.239 78.9436 578.239 76.1819 581C75.0555 582.127 74.3885 583.539 74.181 585.003C74.1035 585.55 73.663 586 73.1108 586H69.0491C68.4968 586 68.0564 585.55 67.9789 585.003C67.7714 583.539 67.1044 582.127 65.978 581C63.2163 578.239 58.7387 578.239 55.9771 581C54.8506 582.127 54.1836 583.539 53.9761 585.003C53.8986 585.55 53.4582 586 52.9059 586H48.8442C48.292 586 47.8515 585.55 47.7741 585.003C47.5666 583.539 46.8996 582.127 45.7731 581C43.0114 578.239 38.5339 578.239 35.7722 581C34.6457 582.127 33.9787 583.539 33.7712 585.003C33.6938 585.55 33.2533 586 32.7011 586H28.6394C28.0871 586 27.6467 585.55 27.5692 585.003C27.3617 583.539 26.6947 582.127 25.5682 581C22.8066 578.239 18.329 578.239 15.5673 581C14.4409 582.127 13.7739 583.539 13.5664 585.003C13.4889 585.55 13.0485 586 12.4962 586H3C2.44772 586 2 585.552 2 585V2Z"/>
</mask>
<path fill-rule="evenodd" clip-rule="evenodd" d="M2 2C2 1.44772 2.44771 1 3 1H301C301.552 1 302 1.44772 302 2V585C302 585.552 301.552 586 301 586H291.303C290.75 586 290.31 585.55 290.232 585.003C290.025 583.539 289.358 582.127 288.231 581C285.47 578.239 280.992 578.239 278.231 581C277.104 582.127 276.437 583.539 276.23 585.003C276.152 585.55 275.712 586 275.159 586H271.098C270.545 586 270.105 585.55 270.027 585.003C269.82 583.539 269.153 582.127 268.027 581C265.265 578.239 260.787 578.239 258.026 581C256.899 582.127 256.232 583.539 256.025 585.003C255.947 585.55 255.507 586 254.955 586H250.893C250.341 586 249.9 585.55 249.823 585.003C249.615 583.539 248.948 582.127 247.822 581C245.06 578.239 240.582 578.239 237.821 581C236.694 582.127 236.027 583.539 235.82 585.003C235.742 585.55 235.302 586 234.75 586H230.688C230.136 586 229.695 585.55 229.618 585.003C229.41 583.539 228.743 582.127 227.617 581C224.855 578.239 220.378 578.239 217.616 581C216.489 582.127 215.822 583.539 215.615 585.003C215.537 585.55 215.097 586 214.545 586H210.483C209.931 586 209.49 585.55 209.413 585.003C209.205 583.539 208.538 582.127 207.412 581C204.65 578.239 200.173 578.239 197.411 581C196.285 582.127 195.618 583.539 195.41 585.003C195.333 585.55 194.892 586 194.34 586H190.278C189.726 586 189.286 585.55 189.208 585.003C189.001 583.539 188.334 582.127 187.207 581C184.445 578.239 179.968 578.239 177.206 581C176.08 582.127 175.413 583.539 175.205 585.003C175.128 585.55 174.687 586 174.135 586H170.073C169.521 586 169.081 585.55 169.003 585.003C168.796 583.539 168.129 582.127 167.002 581C164.241 578.239 159.763 578.239 157.001 581C155.875 582.127 155.208 583.539 155 585.003C154.923 585.55 154.482 586 153.93 586H149.869C149.316 586 148.876 585.55 148.798 585.003C148.591 583.539 147.924 582.127 146.797 581C144.036 578.239 139.558 578.239 136.797 581C135.67 582.127 135.003 583.539 134.796 585.003C134.718 585.55 134.278 586 133.725 586H129.664C129.111 586 128.671 585.55 128.593 585.003C128.386 583.539 127.719 582.127 126.593 581C123.831 578.239 119.353 578.239 116.592 581C115.465 582.127 114.798 583.539 114.591 585.003C114.513 585.55 114.073 586 113.521 586H109.459C108.907 586 108.466 585.55 108.389 585.003C108.181 583.539 107.514 582.127 106.388 581C103.626 578.239 99.1485 578.239 96.3868 581C95.2603 582.127 94.5933 583.539 94.3858 585.003C94.3083 585.55 93.8679 586 93.3157 586H89.2539C88.7017 586 88.2613 585.55 88.1838 585.003C87.9763 583.539 87.3093 582.127 86.1828 581C83.4211 578.239 78.9436 578.239 76.1819 581C75.0555 582.127 74.3885 583.539 74.181 585.003C74.1035 585.55 73.663 586 73.1108 586H69.0491C68.4968 586 68.0564 585.55 67.9789 585.003C67.7714 583.539 67.1044 582.127 65.978 581C63.2163 578.239 58.7387 578.239 55.9771 581C54.8506 582.127 54.1836 583.539 53.9761 585.003C53.8986 585.55 53.4582 586 52.9059 586H48.8442C48.292 586 47.8515 585.55 47.7741 585.003C47.5666 583.539 46.8996 582.127 45.7731 581C43.0114 578.239 38.5339 578.239 35.7722 581C34.6457 582.127 33.9787 583.539 33.7712 585.003C33.6938 585.55 33.2533 586 32.7011 586H28.6394C28.0871 586 27.6467 585.55 27.5692 585.003C27.3617 583.539 26.6947 582.127 25.5682 581C22.8066 578.239 18.329 578.239 15.5673 581C14.4409 582.127 13.7739 583.539 13.5664 585.003C13.4889 585.55 13.0485 586 12.4962 586H3C2.44772 586 2 585.552 2 585V2Z" fill="white"/>
<path d="M288.231 581L288.939 580.293H288.939L288.231 581ZM268.027 581L268.734 580.293H268.734L268.027 581ZM247.822 581L248.529 580.293L247.822 581ZM237.821 581L237.114 580.293L237.821 581ZM227.617 581L228.324 580.293L227.617 581ZM217.616 581L216.909 580.293L217.616 581ZM207.412 581L208.119 580.293L207.412 581ZM197.411 581L196.704 580.293L197.411 581ZM187.207 581L187.914 580.293L187.207 581ZM177.206 581L176.499 580.293L177.206 581ZM167.002 581L167.709 580.293L167.002 581ZM157.001 581L156.294 580.293L157.001 581ZM146.797 581L147.505 580.293L146.797 581ZM136.797 581L136.089 580.293L136.797 581ZM126.593 581L127.3 580.293L126.593 581ZM116.592 581L115.885 580.293L116.592 581ZM106.388 581L107.095 580.293L106.388 581ZM96.3868 581L95.6797 580.293L96.3868 581ZM86.1828 581L86.8899 580.293L86.1828 581ZM76.1819 581L75.4748 580.293L76.1819 581ZM65.978 581L66.6851 580.293H66.6851L65.978 581ZM55.9771 581L55.27 580.293H55.2699L55.9771 581ZM45.7731 581L46.4802 580.293H46.4802L45.7731 581ZM35.7722 581L35.0651 580.293H35.0651L35.7722 581ZM25.5682 581L26.2753 580.293H26.2753L25.5682 581ZM15.5673 581L14.8602 580.293H14.8602L15.5673 581ZM27.5692 585.003L28.5593 584.863L27.5692 585.003ZM47.7741 585.003L48.7642 584.863L47.7741 585.003ZM74.181 585.003L75.1711 585.144L74.181 585.003ZM88.1838 585.003L89.1739 584.863L88.1838 585.003ZM108.389 585.003L109.379 584.863L108.389 585.003ZM128.593 585.003L129.584 584.863L128.593 585.003ZM148.798 585.003L147.808 585.144L148.798 585.003ZM169.003 585.003L168.013 585.144L169.003 585.003ZM195.41 585.003L196.4 585.144L195.41 585.003ZM94.3858 585.003L95.3759 585.144L94.3858 585.003ZM209.413 585.003L208.423 585.144L209.413 585.003ZM114.591 585.003L115.581 585.144L114.591 585.003ZM229.618 585.003L228.628 585.144L229.618 585.003ZM256.025 585.003L255.035 584.863L256.025 585.003ZM215.615 585.003L216.605 585.144L215.615 585.003ZM155 585.003L155.99 585.144L155 585.003ZM33.7712 585.003L34.7613 585.144L33.7712 585.003ZM270.027 585.003L269.037 585.144L270.027 585.003ZM235.82 585.003L236.81 585.144L235.82 585.003ZM175.205 585.003L176.195 585.144L175.205 585.003ZM53.9761 585.003L54.9662 585.144L53.9761 585.003ZM290.232 585.003L289.242 585.144L290.232 585.003ZM276.23 585.003L275.239 584.863L276.23 585.003ZM134.796 585.003L135.786 585.144L134.796 585.003ZM13.5664 585.003L12.5763 584.863L13.5664 585.003ZM249.823 585.003L248.833 585.144L249.823 585.003ZM189.208 585.003L188.218 585.144L189.208 585.003ZM67.9789 585.003L66.9888 585.144L67.9789 585.003ZM301 0H3V2H301V0ZM303 585V2H301V585H303ZM291.303 587H301V585H291.303V587ZM287.524 581.708C288.492 582.676 289.064 583.886 289.242 585.144L291.222 584.863C290.986 583.191 290.223 581.578 288.939 580.293L287.524 581.708ZM278.938 581.708C281.309 579.336 285.153 579.336 287.524 581.708L288.939 580.293C285.786 577.141 280.676 577.141 277.523 580.293L278.938 581.708ZM277.22 585.144C277.398 583.886 277.97 582.676 278.938 581.708L277.523 580.293C276.238 581.578 275.476 583.191 275.239 584.863L277.22 585.144ZM271.098 587H275.159V585H271.098V587ZM267.319 581.708C268.287 582.676 268.859 583.886 269.037 585.144L271.018 584.863C270.781 583.191 270.019 581.578 268.734 580.293L267.319 581.708ZM258.733 581.708C261.104 579.336 264.948 579.336 267.319 581.708L268.734 580.293C265.581 577.141 260.471 577.141 257.319 580.293L258.733 581.708ZM257.015 585.144C257.193 583.886 257.765 582.676 258.733 581.708L257.319 580.293C256.034 581.578 255.271 583.191 255.035 584.863L257.015 585.144ZM250.893 587H254.955V585H250.893V587ZM247.115 581.708C248.083 582.676 248.654 583.886 248.833 585.144L250.813 584.863C250.576 583.191 249.814 581.578 248.529 580.293L247.115 581.708ZM238.528 581.708C240.899 579.336 244.743 579.336 247.115 581.708L248.529 580.293C245.377 577.141 240.266 577.141 237.114 580.293L238.528 581.708ZM236.81 585.144C236.988 583.886 237.56 582.676 238.528 581.708L237.114 580.293C235.829 581.578 235.067 583.191 234.83 584.863L236.81 585.144ZM230.688 587H234.75V585H230.688V587ZM226.91 581.708C227.878 582.676 228.45 583.886 228.628 585.144L230.608 584.863C230.371 583.191 229.609 581.578 228.324 580.293L226.91 581.708ZM218.323 581.708C220.694 579.336 224.539 579.336 226.91 581.708L228.324 580.293C225.172 577.141 220.061 577.141 216.909 580.293L218.323 581.708ZM216.605 585.144C216.783 583.886 217.355 582.676 218.323 581.708L216.909 580.293C215.624 581.578 214.862 583.191 214.625 584.863L216.605 585.144ZM210.483 587H214.545V585H210.483V587ZM206.705 581.708C207.673 582.676 208.245 583.886 208.423 585.144L210.403 584.863C210.166 583.191 209.404 581.578 208.119 580.293L206.705 581.708ZM198.118 581.708C200.489 579.336 204.334 579.336 206.705 581.708L208.119 580.293C204.967 577.141 199.856 577.141 196.704 580.293L198.118 581.708ZM196.4 585.144C196.578 583.886 197.15 582.676 198.118 581.708L196.704 580.293C195.419 581.578 194.657 583.191 194.42 584.863L196.4 585.144ZM190.278 587H194.34V585H190.278V587ZM186.5 581.708C187.468 582.676 188.04 583.886 188.218 585.144L190.198 584.863C189.961 583.191 189.199 581.578 187.914 580.293L186.5 581.708ZM177.913 581.708C180.284 579.336 184.129 579.336 186.5 581.708L187.914 580.293C184.762 577.141 179.651 577.141 176.499 580.293L177.913 581.708ZM176.195 585.144C176.374 583.886 176.945 582.676 177.913 581.708L176.499 580.293C175.214 581.578 174.452 583.191 174.215 584.863L176.195 585.144ZM170.073 587H174.135V585H170.073V587ZM166.295 581.708C167.263 582.676 167.835 583.886 168.013 585.144L169.993 584.863C169.756 583.191 168.994 581.578 167.709 580.293L166.295 581.708ZM157.708 581.708C160.08 579.336 163.924 579.336 166.295 581.708L167.709 580.293C164.557 577.141 159.446 577.141 156.294 580.293L157.708 581.708ZM155.99 585.144C156.169 583.886 156.74 582.676 157.708 581.708L156.294 580.293C155.009 581.578 154.247 583.191 154.01 584.863L155.99 585.144ZM149.869 587H153.93V585H149.869V587ZM146.09 581.708C147.058 582.676 147.63 583.886 147.808 585.144L149.788 584.863C149.552 583.191 148.789 581.578 147.505 580.293L146.09 581.708ZM137.504 581.708C139.875 579.336 143.719 579.336 146.09 581.708L147.505 580.293C144.352 577.141 139.242 577.141 136.089 580.293L137.504 581.708ZM135.786 585.144C135.964 583.886 136.536 582.676 137.504 581.708L136.089 580.293C134.804 581.578 134.042 583.191 133.805 584.863L135.786 585.144ZM129.664 587H133.725V585H129.664V587ZM125.885 581.708C126.853 582.676 127.425 583.886 127.603 585.144L129.584 584.863C129.347 583.191 128.585 581.578 127.3 580.293L125.885 581.708ZM117.299 581.708C119.67 579.336 123.514 579.336 125.885 581.708L127.3 580.293C124.147 577.141 119.037 577.141 115.885 580.293L117.299 581.708ZM115.581 585.144C115.759 583.886 116.331 582.676 117.299 581.708L115.885 580.293C114.6 581.578 113.837 583.191 113.601 584.863L115.581 585.144ZM109.459 587H113.521V585H109.459V587ZM105.681 581.708C106.649 582.676 107.22 583.886 107.399 585.144L109.379 584.863C109.142 583.191 108.38 581.578 107.095 580.293L105.681 581.708ZM97.0939 581.708C99.465 579.336 103.309 579.336 105.681 581.708L107.095 580.293C103.943 577.141 98.8319 577.141 95.6797 580.293L97.0939 581.708ZM95.3759 585.144C95.5541 583.886 96.1259 582.676 97.0939 581.708L95.6797 580.293C94.3947 581.578 93.6326 583.191 93.3957 584.863L95.3759 585.144ZM89.2539 587H93.3157V585H89.2539V587ZM85.4757 581.708C86.4437 582.676 87.0155 583.886 87.1937 585.144L89.1739 584.863C88.937 583.191 88.1749 581.578 86.8899 580.293L85.4757 581.708ZM76.889 581.708C79.2602 579.336 83.1046 579.336 85.4757 581.708L86.8899 580.293C83.7377 577.141 78.627 577.141 75.4748 580.293L76.889 581.708ZM75.1711 585.144C75.3492 583.886 75.921 582.676 76.889 581.708L75.4748 580.293C74.1899 581.578 73.4277 583.191 73.1908 584.863L75.1711 585.144ZM69.0491 587H73.1108V585H69.0491V587ZM65.2708 581.708C66.2388 582.676 66.8107 583.886 66.9888 585.144L68.969 584.863C68.7322 583.191 67.97 581.578 66.6851 580.293L65.2708 581.708ZM56.6842 581.708C59.0553 579.336 62.8997 579.336 65.2709 581.708L66.6851 580.293C63.5329 577.141 58.4221 577.141 55.27 580.293L56.6842 581.708ZM54.9662 585.144C55.1444 583.886 55.7162 582.676 56.6842 581.708L55.2699 580.293C53.985 581.578 53.2229 583.191 52.986 584.863L54.9662 585.144ZM48.8442 587H52.9059V585H48.8442V587ZM45.066 581.708C46.034 582.676 46.6058 583.886 46.784 585.144L48.7642 584.863C48.5273 583.191 47.7652 581.578 46.4802 580.293L45.066 581.708ZM36.4793 581.708C38.8505 579.336 42.6948 579.336 45.066 581.708L46.4802 580.293C43.328 577.141 38.2173 577.141 35.0651 580.293L36.4793 581.708ZM34.7613 585.144C34.9395 583.886 35.5113 582.676 36.4793 581.708L35.0651 580.293C33.7801 581.578 33.018 583.191 32.7811 584.863L34.7613 585.144ZM28.6394 587H32.7011V585H28.6394V587ZM24.8611 581.708C25.8291 582.676 26.4009 583.886 26.5791 585.144L28.5593 584.863C28.3224 583.191 27.5603 581.578 26.2753 580.293L24.8611 581.708ZM16.2744 581.708C18.6456 579.336 22.49 579.336 24.8611 581.708L26.2753 580.293C23.1231 577.141 18.0124 577.141 14.8602 580.293L16.2744 581.708ZM14.5565 585.144C14.7346 583.886 15.3065 582.676 16.2745 581.708L14.8602 580.293C13.5753 581.578 12.8131 583.191 12.5763 584.863L14.5565 585.144ZM3 587H12.4962V585H3V587ZM1 2V585H3V2H1ZM3 585H1C1 586.105 1.89543 587 3 587V585ZM28.6394 585C28.6389 585 28.6398 585 28.6389 585C28.637 584.999 28.6292 584.995 28.6178 584.984C28.5927 584.96 28.5669 584.917 28.5593 584.863L26.5791 585.144C26.7141 586.096 27.5055 587 28.6394 587V585ZM48.8442 585C48.8438 585 48.8447 585 48.8438 585C48.8419 584.999 48.834 584.995 48.8227 584.984C48.7975 584.96 48.7718 584.917 48.7642 584.863L46.784 585.144C46.9189 586.096 47.7104 587 48.8442 587V585ZM73.1908 584.863C73.1832 584.917 73.1575 584.96 73.1323 584.984C73.121 584.995 73.1132 584.999 73.1113 585C73.1104 585 73.1112 585 73.1108 585V587C74.2446 587 75.0361 586.096 75.1711 585.144L73.1908 584.863ZM89.2539 585C89.2535 585 89.2544 585 89.2535 585C89.2516 584.999 89.2438 584.995 89.2324 584.984C89.2072 584.96 89.1815 584.917 89.1739 584.863L87.1937 585.144C87.3286 586.096 88.1201 587 89.2539 587V585ZM109.459 585C109.458 585 109.459 585 109.458 585C109.456 584.999 109.449 584.995 109.437 584.984C109.412 584.96 109.386 584.917 109.379 584.863L107.399 585.144C107.533 586.096 108.325 587 109.459 587V585ZM129.664 585C129.663 585 129.664 585 129.663 585C129.661 584.999 129.653 584.995 129.642 584.984C129.617 584.96 129.591 584.917 129.584 584.863L127.603 585.144C127.738 586.096 128.53 587 129.664 587V585ZM149.869 585C149.868 585 149.869 585 149.868 585C149.866 584.999 149.858 584.995 149.847 584.984C149.822 584.96 149.796 584.917 149.788 584.863L147.808 585.144C147.943 586.096 148.735 587 149.869 587V585ZM170.073 585C170.073 585 170.074 585 170.073 585C170.071 584.999 170.063 584.995 170.052 584.984C170.027 584.96 170.001 584.917 169.993 584.863L168.013 585.144C168.148 586.096 168.94 587 170.073 587V585ZM194.42 584.863C194.412 584.917 194.387 584.96 194.361 584.984C194.35 584.995 194.342 584.999 194.34 585C194.339 585 194.34 585 194.34 585V587C195.474 587 196.265 586.096 196.4 585.144L194.42 584.863ZM93.3957 584.863C93.3881 584.917 93.3624 584.96 93.3372 584.984C93.3259 584.995 93.318 584.999 93.3161 585C93.3152 585 93.3161 585 93.3157 585V587C94.4495 587 95.241 586.096 95.3759 585.144L93.3957 584.863ZM210.483 585C210.483 585 210.484 585 210.483 585C210.481 584.999 210.473 584.995 210.462 584.984C210.436 584.96 210.411 584.917 210.403 584.863L208.423 585.144C208.558 586.096 209.349 587 210.483 587V585ZM113.601 584.863C113.593 584.917 113.567 584.96 113.542 584.984C113.531 584.995 113.523 584.999 113.521 585C113.52 585 113.521 585 113.521 585V587C114.654 587 115.446 586.096 115.581 585.144L113.601 584.863ZM230.688 585C230.688 585 230.688 585 230.688 585C230.686 584.999 230.678 584.995 230.666 584.984C230.641 584.96 230.616 584.917 230.608 584.863L228.628 585.144C228.763 586.096 229.554 587 230.688 587V585ZM255.035 584.863C255.027 584.917 255.001 584.96 254.976 584.984C254.965 584.995 254.957 584.999 254.955 585C254.954 585 254.955 585 254.955 585V587C256.088 587 256.88 586.096 257.015 585.144L255.035 584.863ZM214.625 584.863C214.617 584.917 214.592 584.96 214.566 584.984C214.555 584.995 214.547 584.999 214.545 585C214.544 585 214.545 585 214.545 585V587C215.679 587 216.47 586.096 216.605 585.144L214.625 584.863ZM154.01 584.863C154.003 584.917 153.977 584.96 153.952 584.984C153.94 584.995 153.933 584.999 153.931 585C153.93 585 153.931 585 153.93 585V587C155.064 587 155.856 586.096 155.99 585.144L154.01 584.863ZM32.7811 584.863C32.7735 584.917 32.7478 584.96 32.7226 584.984C32.7113 584.995 32.7034 584.999 32.7015 585C32.7006 585 32.7015 585 32.7011 585V587C33.8349 587 34.6264 586.096 34.7613 585.144L32.7811 584.863ZM271.098 585C271.097 585 271.098 585 271.097 585C271.095 584.999 271.087 584.995 271.076 584.984C271.051 584.96 271.025 584.917 271.018 584.863L269.037 585.144C269.172 586.096 269.964 587 271.098 587V585ZM234.83 584.863C234.822 584.917 234.796 584.96 234.771 584.984C234.76 584.995 234.752 584.999 234.75 585C234.749 585 234.75 585 234.75 585V587C235.883 587 236.675 586.096 236.81 585.144L234.83 584.863ZM174.215 584.863C174.208 584.917 174.182 584.96 174.157 584.984C174.145 584.995 174.137 584.999 174.136 585C174.135 585 174.136 585 174.135 585V587C175.269 587 176.06 586.096 176.195 585.144L174.215 584.863ZM52.986 584.863C52.9784 584.917 52.9526 584.96 52.9275 584.984C52.9161 584.995 52.9083 584.999 52.9064 585C52.9055 585 52.9064 585 52.9059 585V587C54.0398 587 54.8312 586.096 54.9662 585.144L52.986 584.863ZM291.303 585C291.302 585 291.303 585 291.302 585C291.3 584.999 291.292 584.995 291.281 584.984C291.256 584.96 291.23 584.917 291.222 584.863L289.242 585.144C289.377 586.096 290.169 587 291.303 587V585ZM301 585V587C302.105 587 303 586.105 303 585H301ZM275.239 584.863C275.232 584.917 275.206 584.96 275.181 584.984C275.17 584.995 275.162 584.999 275.16 585C275.159 585 275.16 585 275.159 585V587C276.293 587 277.085 586.096 277.22 585.144L275.239 584.863ZM3 0C1.89543 0 1 0.895432 1 2H3H3V0ZM133.805 584.863C133.798 584.917 133.772 584.96 133.747 584.984C133.736 584.995 133.728 584.999 133.726 585C133.725 585 133.726 585 133.725 585V587C134.859 587 135.651 586.096 135.786 585.144L133.805 584.863ZM12.5763 584.863C12.5686 584.917 12.5429 584.96 12.5177 584.984C12.5064 584.995 12.4986 584.999 12.4967 585C12.4958 585 12.4967 585 12.4962 585V587C13.63 587 14.4215 586.096 14.5565 585.144L12.5763 584.863ZM250.893 585C250.892 585 250.893 585 250.892 585C250.89 584.999 250.883 584.995 250.871 584.984C250.846 584.96 250.82 584.917 250.813 584.863L248.833 585.144C248.967 586.096 249.759 587 250.893 587V585ZM190.278 585C190.278 585 190.279 585 190.278 585C190.276 584.999 190.268 584.995 190.257 584.984C190.232 584.96 190.206 584.917 190.198 584.863L188.218 585.144C188.353 586.096 189.144 587 190.278 587V585ZM69.0491 585C69.0487 585 69.0495 585 69.0486 585C69.0467 584.999 69.0389 584.995 69.0276 584.984C69.0024 584.96 68.9767 584.917 68.969 584.863L66.9888 585.144C67.1238 586.096 67.9153 587 69.0491 587V585ZM301 2V2H303C303 0.89543 302.105 0 301 0V2Z" fill="#D1D5DB" mask="url(#path-1-inside-1)"/>
</g>
<defs>
<filter id="filter0_d" x="0" y="0" width="304" height="589" filterUnits="userSpaceOnUse" color-interpolation-filters="sRGB">
<feFlood flood-opacity="0" result="BackgroundImageFix"/>
<feColorMatrix in="SourceAlpha" type="matrix" values="0 0 0 0 0 0 0 0 0 0 0 0 0 0 0 0 0 0 127 0"/>
<feOffset dy="1"/>
<feGaussianBlur stdDeviation="1"/>
<feColorMatrix type="matrix" values="0 0 0 0 0 0 0 0 0 0 0 0 0 0 0 0 0 0 0.05 0"/>
<feBlend mode="normal" in2="BackgroundImageFix" result="effect1_dropShadow"/>
<feBlend mode="normal" in="SourceGraphic" in2="effect1_dropShadow" result="shape"/>
</filter>
</defs>
</svg>
