<svg width="20" height="16" viewBox="0 0 20 16" fill="none" xmlns="http://www.w3.org/2000/svg">
<mask id="mask0_12095_2997" style="mask-type:alpha" maskUnits="userSpaceOnUse" x="0" y="0" width="20" height="16">
<rect y="0.5" width="20" height="15" fill="white"/>
</mask>
<g mask="url(#mask0_12095_2997)">
<path fill-rule="evenodd" clip-rule="evenodd" d="M0 0.5H20V15.5H0V0.5Z" fill="#2E42A5"/>
<rect y="0.5" width="11" height="9" fill="#2E42A5"/>
<mask id="mask1_12095_2997" style="mask-type:alpha" maskUnits="userSpaceOnUse" x="0" y="0" width="11" height="10">
<rect y="0.5" width="11" height="9" fill="white"/>
</mask>
<g mask="url(#mask1_12095_2997)">
<path d="M-1.25195 8.62488L1.22364 9.71063L11.3069 1.68046L12.6127 0.0670013L9.96542 -0.295888L5.8527 3.16454L2.54239 5.49607L-1.25195 8.62488Z" fill="#F7FCFF"/>
<path d="M-0.913086 9.38555L0.348115 10.0156L12.1438 -0.0829468H10.3729L-0.913086 9.38555Z" fill="#F50100"/>
<path d="M12.5029 8.62487L10.3058 10.0206L-0.055912 1.68044L-1.36173 0.0669851L1.28556 -0.295905L5.39828 3.16453L8.70859 5.49605L12.5029 8.62487Z" fill="#F7FCFF"/>
<path d="M12.4189 9.17082L11.1577 9.8009L6.13504 5.47718L4.64592 4.9941L-1.48689 0.0725183H0.283978L6.41334 4.87728L8.04144 5.45655L12.4189 9.17082Z" fill="#F50100"/>
<mask id="path-9-outside-1_12095_2997" maskUnits="userSpaceOnUse" x="-1" y="-0.5" width="13" height="11" fill="black">
<rect fill="white" x="-1" y="-0.5" width="13" height="11"/>
<path fill-rule="evenodd" clip-rule="evenodd" d="M6 0.5H5V4.5H0V5.5H5V9.5H6V5.5H11V4.5H6V0.5Z"/>
</mask>
<path fill-rule="evenodd" clip-rule="evenodd" d="M6 0.5H5V4.5H0V5.5H5V9.5H6V5.5H11V4.5H6V0.5Z" fill="#F50100"/>
<path d="M5 0.5V-0.4375H4.0625V0.5H5ZM6 0.5H6.9375V-0.4375H6V0.5ZM5 4.5V5.4375H5.9375V4.5H5ZM0 4.5V3.5625H-0.9375V4.5H0ZM0 5.5H-0.9375V6.4375H0V5.5ZM5 5.5H5.9375V4.5625H5V5.5ZM5 9.5H4.0625V10.4375H5V9.5ZM6 9.5V10.4375H6.9375V9.5H6ZM6 5.5V4.5625H5.0625V5.5H6ZM11 5.5V6.4375H11.9375V5.5H11ZM11 4.5H11.9375V3.5625H11V4.5ZM6 4.5H5.0625V5.4375H6V4.5ZM5 1.4375H6V-0.4375H5V1.4375ZM5.9375 4.5V0.5H4.0625V4.5H5.9375ZM0 5.4375H5V3.5625H0V5.4375ZM0.9375 5.5V4.5H-0.9375V5.5H0.9375ZM5 4.5625H0V6.4375H5V4.5625ZM5.9375 9.5V5.5H4.0625V9.5H5.9375ZM6 8.5625H5V10.4375H6V8.5625ZM5.0625 5.5V9.5H6.9375V5.5H5.0625ZM11 4.5625H6V6.4375H11V4.5625ZM10.0625 4.5V5.5H11.9375V4.5H10.0625ZM6 5.4375H11V3.5625H6V5.4375ZM5.0625 0.5V4.5H6.9375V0.5H5.0625Z" fill="#F7FCFF" mask="url(#path-9-outside-1_12095_2997)"/>
</g>
</g>
<g clip-path="url(#clip0_12095_2997)">
<path d="M5.92027 12.7784L5.10023 13.5362L5.18144 12.4226L4.07766 12.2539L4.99897 11.6231L4.44261 10.655L5.51025 10.9819L5.92027 9.94336L6.33029 10.9819L7.39793 10.655L6.84158 11.6231L7.76289 12.2539L6.6591 12.4226L6.74031 13.5362L5.92027 12.7784Z" fill="#F7FCFF"/>
<path d="M13.2405 8.79668L12.6938 9.3019L12.7479 8.55948L12.0121 8.44705L12.6263 8.02649L12.2554 7.38108L12.9671 7.59907L13.2405 6.90668L13.5138 7.59907L14.2256 7.38108L13.8547 8.02649L14.4689 8.44705L13.733 8.55948L13.7872 9.3019L13.2405 8.79668Z" fill="#F7FCFF"/>
<path d="M14.5198 3.4633L13.9731 3.96852L14.0272 3.2261L13.2914 3.11368L13.9056 2.69311L13.5347 2.04771L14.2464 2.26569L14.5198 1.5733L14.7931 2.26569L15.5049 2.04771L15.134 2.69311L15.7482 3.11368L15.0123 3.2261L15.0665 3.96852L14.5198 3.4633Z" fill="#F7FCFF"/>
<path d="M17.72 6.12999L17.1733 6.63521L17.2274 5.89279L16.4916 5.78037L17.1058 5.3598L16.7349 4.71439L17.4466 4.93238L17.72 4.23999L17.9933 4.93238L18.7051 4.71439L18.3342 5.3598L18.9484 5.78037L18.2125 5.89279L18.2667 6.63521L17.72 6.12999Z" fill="#F7FCFF"/>
<path d="M15.1604 13.7967L14.6137 14.3019L14.6678 13.5595L13.932 13.4471L14.5462 13.0265L14.1753 12.3811L14.887 12.5991L15.1604 11.9067L15.4337 12.5991L16.1455 12.3811L15.7746 13.0265L16.3888 13.4471L15.6529 13.5595L15.7071 14.3019L15.1604 13.7967Z" fill="#F7FCFF"/>
<path d="M17.4001 9.63918L16.8446 9.9312L16.9507 9.31269L16.5013 8.87466L17.1223 8.78442L17.4001 8.22168L17.6778 8.78442L18.2988 8.87466L17.8495 9.31269L17.9555 9.9312L17.4001 9.63918Z" fill="#F7FCFF"/>
</g>
<defs>
<clipPath id="clip0_12095_2997">
<rect width="15" height="13" fill="white" transform="translate(4 1.5)"/>
</clipPath>
</defs>
</svg>
