<svg width="20" height="16" viewBox="0 0 20 16" fill="none" xmlns="http://www.w3.org/2000/svg">
<mask id="mask0_12095_57987" style="mask-type:alpha" maskUnits="userSpaceOnUse" x="0" y="0" width="20" height="16">
<rect y="0.5" width="20" height="15" fill="white"/>
</mask>
<g mask="url(#mask0_12095_57987)">
<path fill-rule="evenodd" clip-rule="evenodd" d="M0 0.5H20V15.5H0V0.5Z" fill="#E31D1C"/>
<path fill-rule="evenodd" clip-rule="evenodd" d="M0 1.75V3H20V1.75H0ZM0 4.25V5.5H20V4.25H0ZM0 8V6.75H20V8H0ZM0 9.25V10.5H20V9.25H0ZM0 13V11.75H20V13H0ZM0 15.5V14.25H20V15.5H0Z" fill="#F7FCFF"/>
<rect y="0.5" width="11.25" height="8.75" fill="#2E42A5"/>
<path fill-rule="evenodd" clip-rule="evenodd" d="M1.30025 3.21865L1.96265 2.75724L2.47647 3.12715H2.18555L2.77388 3.64752L2.57517 4.37715H2.26393L1.96172 3.70703L1.70399 4.37715H0.935547L1.52388 4.89752L1.30025 5.71865L1.96265 5.25724L2.47647 5.62715H2.18555L2.77388 6.14752L2.57517 6.87715H2.26393L1.96172 6.20703L1.70399 6.87715H0.935547L1.52388 7.39752L1.30025 8.21865L1.96265 7.75724L2.60357 8.21865L2.4043 7.39752L2.91901 6.87715H2.6816L3.21265 6.50724L3.72647 6.87715H3.43555L4.02388 7.39752L3.80025 8.21865L4.46265 7.75724L5.10357 8.21865L4.9043 7.39752L5.41901 6.87715H5.1816L5.71265 6.50724L6.22647 6.87715H5.93555L6.52388 7.39752L6.30025 8.21865L6.96265 7.75724L7.60357 8.21865L7.4043 7.39752L7.91901 6.87715H7.6816L8.21265 6.50724L8.72647 6.87715H8.43555L9.02388 7.39752L8.80025 8.21865L9.46265 7.75724L10.1036 8.21865L9.9043 7.39752L10.419 6.87715H9.76393L9.46172 6.20703L9.20399 6.87715H8.83136L8.6543 6.14752L9.16901 5.62715H8.9316L9.46265 5.25724L10.1036 5.71865L9.9043 4.89752L10.419 4.37715H9.76393L9.46172 3.70703L9.20399 4.37715H8.83136L8.6543 3.64752L9.16901 3.12715H8.9316L9.46265 2.75724L10.1036 3.21865L9.9043 2.39752L10.419 1.87715H9.76393L9.46172 1.20703L9.20399 1.87715H8.43555L9.02388 2.39752L8.82517 3.12715H8.51393L8.21172 2.45703L7.95399 3.12715H7.58136L7.4043 2.39752L7.91901 1.87715H7.26393L6.96172 1.20703L6.70399 1.87715H5.93555L6.52388 2.39752L6.32517 3.12715H6.01393L5.71172 2.45703L5.45399 3.12715H5.08136L4.9043 2.39752L5.41901 1.87715H4.76393L4.46172 1.20703L4.20399 1.87715H3.43555L4.02388 2.39752L3.82517 3.12715H3.51393L3.21172 2.45703L2.95399 3.12715H2.58136L2.4043 2.39752L2.91901 1.87715H2.26393L1.96172 1.20703L1.70399 1.87715H0.935547L1.52388 2.39752L1.30025 3.21865ZM8.82517 5.62715L9.02388 4.89752L8.43555 4.37715H8.72647L8.21265 4.00724L7.6816 4.37715H7.91901L7.4043 4.89752L7.58136 5.62715H7.95399L8.21172 4.95703L8.51393 5.62715H8.82517ZM7.47647 5.62715L6.96265 5.25724L6.4316 5.62715H6.66901L6.1543 6.14752L6.33136 6.87715H6.70399L6.96172 6.20703L7.26393 6.87715H7.57517L7.77388 6.14752L7.18555 5.62715H7.47647ZM5.27388 6.14752L5.07517 6.87715H4.76393L4.46172 6.20703L4.20399 6.87715H3.83136L3.6543 6.14752L4.16901 5.62715H3.9316L4.46265 5.25724L4.97647 5.62715H4.68555L5.27388 6.14752ZM5.45399 5.62715H5.08136L4.9043 4.89752L5.41901 4.37715H5.1816L5.71265 4.00724L6.22647 4.37715H5.93555L6.52388 4.89752L6.32517 5.62715H6.01393L5.71172 4.95703L5.45399 5.62715ZM3.82517 5.62715L4.02388 4.89752L3.43555 4.37715H3.72647L3.21265 4.00724L2.6816 4.37715H2.91901L2.4043 4.89752L2.58136 5.62715H2.95399L3.21172 4.95703L3.51393 5.62715H3.82517ZM7.77388 3.64752L7.57517 4.37715H7.26393L6.96172 3.70703L6.70399 4.37715H6.33136L6.1543 3.64752L6.66901 3.12715H6.4316L6.96265 2.75724L7.47647 3.12715H7.18555L7.77388 3.64752ZM4.97647 3.12715L4.46265 2.75724L3.9316 3.12715H4.16901L3.6543 3.64752L3.83136 4.37715H4.20399L4.46172 3.70703L4.76393 4.37715H5.07517L5.27388 3.64752L4.68555 3.12715H4.97647Z" fill="#F7FCFF"/>
</g>
</svg>
